<?xml version="1.0" standalone="no"?>
<!DOCTYPE svg PUBLIC "-//W3C//DTD SVG 1.1//EN" "http://www.w3.org/Graphics/SVG/1.1/DTD/svg11.dtd" >
<svg xmlns="http://www.w3.org/2000/svg">
<metadata></metadata>
<defs>
<font id="liberation_sans_narrowbold" horiz-adv-x="934" >
<font-face units-per-em="2048" ascent="1638" descent="-410" />
<missing-glyph horiz-adv-x="467" />
<glyph horiz-adv-x="0" />
<glyph horiz-adv-x="682" />
<glyph unicode=" "  horiz-adv-x="467" />
<glyph unicode="&#x09;" horiz-adv-x="467" />
<glyph unicode="&#xa0;" horiz-adv-x="467" />
<glyph unicode="!" horiz-adv-x="559" d="M158 0v270h236v-270h-236zM158 1409h241l-26 -983h-189z" />
<glyph unicode="&#x22;" horiz-adv-x="797" d="M111 1409h224l-22 -511h-180zM460 1409h226l-24 -511h-179z" />
<glyph unicode="#" d="M29 381v149h154l57 332h-169v148h195l69 385h125l-67 -385h252l68 385h128l-69 -385h135v-148h-162l-56 -332h176v-149h-202l-67 -381h-128l66 381h-252l-66 -381h-125l65 381h-127zM309 530h254l57 332h-252z" />
<glyph unicode="$" d="M22 408l210 47q7 -48 19.5 -87.5t34.5 -68.5t56 -47.5t84 -24.5v391q-2 2 -12 4.5t-13 2.5q-64 18 -125.5 44.5t-109.5 72t-77.5 115t-29.5 173.5q0 91 27 156.5t76 108.5t116.5 65t147.5 26v134h90v-134q88 -4 149.5 -28t104 -67.5t68.5 -107t44 -147.5l-217 -39 q-12 87 -48 134.5t-101 58.5v-352q4 -2 8.5 -2t9.5 -2q71 -20 138.5 -47t120 -73t85 -118.5t32.5 -183.5q0 -85 -23 -154.5t-71 -120t-122.5 -80t-177.5 -34.5v-175h-90v172q-93 4 -162.5 31t-118 76t-78.5 119.5t-45 161.5zM274 1034q0 -43 11.5 -70.5t32 -45.5t48.5 -30.5 t60 -25.5v332q-43 -4 -72 -18t-47 -35.5t-25.5 -49t-7.5 -57.5zM516 227q87 7 134 50t47 131q0 49 -14 79.5t-38.5 49.5t-57.5 31.5t-71 25.5v-367z" />
<glyph unicode="%" horiz-adv-x="1493" d="M42 977q0 132 22 218.5t61.5 137.5t93.5 71.5t116 20.5q59 0 111 -20.5t91.5 -71.5t62.5 -137.5t23 -218.5q0 -125 -23 -211t-62.5 -139t-93 -76t-114.5 -23q-60 0 -112.5 23t-91.5 75.5t-61.5 138.5t-22.5 212zM218 977q0 -84 7 -140t21.5 -90t35.5 -48.5t51 -14.5 q28 0 49 14t35 48t21 90.5t7 140.5q0 86 -7 142.5t-21 90t-34.5 47t-47.5 13.5q-30 0 -52.5 -14t-36.5 -47.5t-21 -90t-7 -141.5zM284 0l754 1409h171l-756 -1409h-169zM868 432q0 132 22.5 218.5t62 138t93 72t116.5 20.5q59 0 111.5 -20.5t91.5 -72t61.5 -138t22.5 -218.5 q0 -125 -23 -211t-62.5 -138.5t-92.5 -75.5t-113 -23q-61 0 -114 23t-92 75.5t-61.5 138.5t-22.5 211zM1046 432q0 -84 6.5 -139.5t21 -89.5t36 -48t50.5 -14q27 0 48 14t35.5 47.5t21.5 89.5t7 140q0 87 -6.5 144t-20.5 90.5t-34.5 47t-48.5 13.5q-30 0 -52 -13.5 t-36 -47.5t-21 -91t-7 -143z" />
<glyph unicode="&#x26;" horiz-adv-x="1212" d="M74 385q0 79 21 143t57.5 116t87.5 93.5t111 75.5q-26 65 -43.5 139t-17.5 140t16.5 125t53.5 103.5t96 70.5t143 26q66 0 120.5 -19.5t94 -57.5t61 -93t21.5 -127q0 -73 -27 -129.5t-71.5 -102t-102.5 -83t-120 -72.5q42 -90 92 -173.5t108 -162.5q46 85 77 174.5 t53 188.5l171 -70q-28 -117 -66.5 -220t-91.5 -200q37 -38 73.5 -55.5t72.5 -17.5q26 0 50 4t46 12v-203q-45 -22 -108 -22q-42 0 -80.5 10t-72.5 26.5t-63.5 38.5t-53.5 46q-27 -25 -60.5 -48.5t-72 -41.5t-83.5 -28.5t-95 -10.5q-103 0 -178.5 31t-124 85t-71.5 128 t-23 161zM282 389q0 -46 12.5 -86t37 -69.5t62 -46.5t86.5 -17q53 0 96.5 24t69.5 52q-63 86 -119.5 180t-103.5 197q-68 -39 -104.5 -96t-36.5 -138zM468 1090q0 -48 12.5 -98t31.5 -95q42 22 79 44.5t64 49t42.5 57.5t15.5 70q0 57 -31 93t-85 36q-63 0 -96 -43t-33 -114z " />
<glyph unicode="'" horiz-adv-x="399" d="M89 1409h223l-22 -511h-179z" />
<glyph unicode="(" horiz-adv-x="559" d="M84 531q0 143 14 267.5t44 240t76 225t109 220.5h230q-66 -116 -112.5 -229t-76 -229t-43.5 -238.5t-14 -257.5q0 -136 14 -258.5t43.5 -238.5t76.5 -228.5t112 -229.5h-230q-63 111 -109 221t-76 226t-44 241.5t-14 267.5z" />
<glyph unicode=")" horiz-adv-x="559" d="M2 -425q66 117 112.5 229.5t76 228.5t43.5 238.5t14 258.5q0 135 -14 257.5t-43.5 238.5t-76.5 229t-112 229h230q63 -111 109 -220.5t76 -225t44 -240t14 -267.5q0 -142 -14 -267.5t-44 -241.5t-76 -226t-109 -221h-230z" />
<glyph unicode="*" horiz-adv-x="653" d="M5 1042l56 197l195 -104l-14 274h176l-15 -274l193 104l55 -197l-204 -61l152 -213l-151 -121l-119 252l-123 -252l-152 123l156 211z" />
<glyph unicode="+" horiz-adv-x="981" d="M71 569v224h327v408h185v-408h330v-224h-330v-408h-185v408h-327z" />
<glyph unicode="," horiz-adv-x="467" d="M114 -317q24 35 43.5 74t34.5 80t23 82t8 81h-106v305h238v-239q0 -67 -6.5 -122t-18 -101.5t-28 -85.5t-36.5 -74h-152z" />
<glyph unicode="-" horiz-adv-x="559" d="M66 409v244h426v-244h-426z" />
<glyph unicode="." horiz-adv-x="467" d="M114 0v305h237v-305h-237z" />
<glyph unicode="/" horiz-adv-x="467" d="M16 -41l239 1525h196l-235 -1525h-200z" />
<glyph unicode="0" d="M66 705q0 213 29.5 352.5t82.5 222.5t127.5 116.5t164.5 33.5q84 0 156.5 -33.5t125.5 -116.5t83 -222.5t30 -352.5q0 -202 -30.5 -340.5t-84 -224t-127 -123t-160.5 -37.5t-160 37t-125.5 122.5t-82 224t-29.5 341.5zM297 705q0 -145 9 -242t28.5 -155.5t51.5 -82.5 t79 -24q45 0 77 24t52.5 82.5t30 155.5t9.5 242q0 149 -9 246.5t-29 155t-51.5 80.5t-76.5 23q-48 0 -81 -23.5t-53 -81.5t-28.5 -155.5t-8.5 -244.5z" />
<glyph unicode="1" d="M106 0v209h286v961l-277 -211v221l289 229h218v-1200h265v-209h-781z" />
<glyph unicode="2" d="M58 0v195q39 105 96 189.5t119 155t123 131t109.5 117t79 113.5t30.5 121q0 94 -38.5 139t-113.5 45q-74 0 -112.5 -48.5t-50.5 -145.5l-232 16q8 83 33.5 156t72.5 128t118 86.5t170 31.5q93 0 165 -26.5t121.5 -77.5t75 -124.5t25.5 -167.5q0 -99 -32 -179t-82 -147.5 t-111 -126.5l-118 -115q-58 -56 -105.5 -113t-70.5 -122h537v-231h-809z" />
<glyph unicode="3" d="M39 383l234 25q5 -45 18.5 -82.5t36.5 -64.5t56 -41.5t78 -14.5q83 0 129 50t46 153q0 63 -21.5 101t-55 58.5t-72 27.5t-72.5 7h-81v227h76q34 0 70 8t64.5 29t46.5 58.5t18 95.5q0 87 -39.5 136.5t-116.5 49.5q-71 0 -115 -48t-50 -136l-231 20q10 99 45 172t88 121 t121.5 71.5t145.5 23.5q102 0 175 -30t120 -81t69 -119t22 -145q0 -62 -15 -115.5t-45 -96t-76.5 -73t-110.5 -45.5v-4q71 -10 123.5 -39.5t86.5 -73.5t50 -99.5t16 -117.5q0 -96 -25.5 -172.5t-77.5 -130.5t-128.5 -82.5t-178.5 -28.5q-113 0 -190.5 35t-127 92.5 t-74.5 130.5t-32 148z" />
<glyph unicode="4" d="M25 287v211l488 911h258v-913h154v-209h-154v-287h-220v287h-526zM213 496h338v461q0 17 0.5 44.5t1.5 56.5t2.5 55.5t2.5 41.5q-4 -11 -13 -31l-20 -44q-11 -24 -23 -47l-21 -40z" />
<glyph unicode="5" d="M52 352l230 23q7 -33 18.5 -64t33 -55t52.5 -38.5t76 -14.5q86 0 137 67t51 193q0 56 -12.5 101t-36 77t-57.5 49t-77 17q-57 0 -94.5 -26.5t-62.5 -64.5h-225l40 793h695v-209h-485l-19 -356q34 37 86.5 63.5t122.5 26.5q85 0 152.5 -34t114 -95t71 -146.5t24.5 -189.5 q0 -106 -27.5 -195.5t-81.5 -155t-134 -102t-185 -36.5q-97 0 -169 28.5t-121.5 79t-78 118.5t-38.5 146z" />
<glyph unicode="6" d="M62 672q0 377 111 567.5t317 190.5q69 0 125.5 -17.5t101 -56.5t75.5 -100.5t50 -149.5l-217 -37q-16 74 -53 106.5t-87 32.5q-93 0 -145.5 -113t-52.5 -343q37 75 102.5 115t148.5 40q76 0 138 -30.5t106 -88t67.5 -140.5t23.5 -187q0 -106 -24.5 -194.5t-73 -152 t-121.5 -99t-169 -35.5q-204 0 -313.5 174.5t-109.5 517.5zM303 483q0 -60 12.5 -112t35 -90.5t54.5 -60t72 -21.5q78 0 121.5 67.5t43.5 186.5q0 57 -10.5 102.5t-32.5 77.5t-54 49.5t-73 17.5q-30 0 -61 -12t-54.5 -38.5t-38.5 -67.5t-15 -99z" />
<glyph unicode="7" d="M72 1178v231h788v-223l-147 -291q-69 -141 -121 -283.5t-81.5 -293t-29.5 -318.5h-241q0 167 32.5 317.5t88.5 293.5t129 283l156 284h-574z" />
<glyph unicode="8" d="M53 395q0 77 20 136.5t52.5 102.5t75.5 68.5t88 34.5v4q-48 13 -87 43t-66 72t-41.5 93.5t-14.5 107.5q0 84 25 153t73.5 118t120.5 75.5t166 26.5q101 0 174.5 -27.5t121 -77t70.5 -118.5t23 -152q0 -55 -14.5 -106.5t-41.5 -93.5t-66 -71t-88 -41v-4q51 -10 94.5 -36.5 t75.5 -69t50 -102t18 -134.5q0 -91 -24.5 -167.5t-75.5 -132t-128.5 -86.5t-185.5 -31q-107 0 -185 31t-129.5 86.5t-76 131.5t-24.5 166zM290 416q0 -53 9 -97t29.5 -75.5t55 -48.5t86.5 -17t85.5 17.5t53 49.5t27.5 76.5t8 98.5q0 43 -8 83t-28 70.5t-55.5 49t-89.5 18.5 q-49 0 -82 -18.5t-53 -49.5t-29 -71.5t-9 -85.5zM316 1040q0 -37 6 -73t22.5 -64.5t46 -46.5t76.5 -18q49 0 79 18t45.5 47t20.5 65t5 72q0 42 -7.5 77.5t-25 61t-46.5 40t-73 14.5q-43 0 -71.5 -14.5t-46 -40t-24.5 -61t-7 -77.5z" />
<glyph unicode="9" d="M58 958q0 112 27.5 200t79 148.5t127 92t170.5 31.5q100 0 176.5 -41.5t128 -128t78.5 -219t27 -314.5q0 -375 -112.5 -561t-319.5 -186q-75 0 -134 19t-103.5 59t-75 103t-48.5 150l216 37q16 -75 53.5 -111t94.5 -36q47 0 83.5 27t63 82t41 139.5t14.5 199.5 q-16 -39 -43 -69t-61 -50t-72.5 -30.5t-78.5 -10.5q-75 0 -136.5 32.5t-105 93.5t-67 147.5t-23.5 195.5zM292 956q0 -55 10.5 -102.5t31 -82t52 -54t71.5 -19.5q32 0 62.5 14t55 42t39 70.5t14.5 99.5q0 60 -11 112.5t-33 91t-54 60.5t-74 22q-39 0 -69 -17.5t-51.5 -50.5 t-32.5 -80t-11 -106z" />
<glyph unicode=":" horiz-adv-x="559" d="M161 0v281h237v-281h-237zM161 752v282h237v-282h-237z" />
<glyph unicode=";" horiz-adv-x="559" d="M160 -317q23 35 43 74t34.5 80t23 82t8.5 81h-106v281h236v-215q0 -67 -6 -122t-17.5 -101.5t-28 -85.5t-36.5 -74h-151zM163 752v282h236v-282h-236z" />
<glyph unicode="&#x3c;" horiz-adv-x="981" d="M71 516v322l842 391v-228l-683 -325l683 -324v-227z" />
<glyph unicode="=" horiz-adv-x="981" d="M70 291v221h842v-221h-842zM70 842v223h842v-223h-842z" />
<glyph unicode="&#x3e;" horiz-adv-x="981" d="M71 125v227l682 324l-682 325v228l842 -391v-322z" />
<glyph unicode="?" horiz-adv-x="1026" d="M77 1001q10 89 40.5 167t84 136t131 92t180.5 34q98 0 175 -28t131 -80.5t82 -127.5t28 -168q0 -66 -14 -116t-38 -89.5t-54.5 -71t-62.5 -59.5l-62 -55q-31 -27 -55.5 -57.5t-40.5 -67t-17 -84.5h-219q4 85 30 145.5t62.5 105.5t78.5 80.5t77.5 72.5t59 80.5t23.5 103.5 q0 88 -47 139t-134 51q-42 0 -77 -15.5t-62 -43.5t-44 -68t-22 -88zM359 0v270h237v-270h-237z" />
<glyph unicode="@" horiz-adv-x="1638" d="M96 461q0 139 26 267t74.5 238t119 200t159.5 154t195 99t226 35q167 0 288.5 -59t200.5 -159t117 -232t38 -279q0 -144 -31 -263.5t-84.5 -205.5t-125.5 -134t-153 -48q-34 0 -63.5 10.5t-50 32t-32 54t-11.5 75.5q0 14 1.5 33t3.5 34h-5q-17 -44 -45.5 -87t-66 -76.5 t-82 -54.5t-93.5 -21q-78 0 -130 34t-83 89t-44.5 124t-13.5 138q0 115 28 225t80.5 196t129 138.5t173.5 52.5q84 0 137 -46.5t79 -127.5h5l32 152h128l-96 -506q-14 -79 -22 -141t-8 -99q0 -50 19 -71t45 -21q48 0 93.5 38t81.5 106t58 162t22 206q0 126 -34 234 t-99.5 187t-162 124t-223.5 45q-109 0 -200.5 -31.5t-166 -88.5t-130.5 -136t-94.5 -173.5t-57.5 -201.5t-19 -221q0 -87 14 -168.5t42 -152.5t71 -130t101.5 -101t132.5 -65.5t165 -23.5q71 0 136 12t125.5 33t116 49.5t105.5 60.5l51 -122q-49 -34 -106 -66t-123.5 -56.5 t-143.5 -39.5t-167 -15q-107 0 -197 28.5t-162.5 80t-127.5 123.5t-92 159t-55.5 187t-18.5 207zM568 461q0 -114 39.5 -180t121.5 -66q39 0 78 23t73.5 67.5t63 110t45.5 149.5q4 18 8 39.5t6.5 42.5t4.5 40t2 34q0 47 -13 86.5t-36 68t-55 44.5t-71 16q-45 0 -83 -20.5 t-67.5 -55.5t-51.5 -81.5t-36.5 -99.5t-21.5 -109t-7 -109z" />
<glyph unicode="A" horiz-adv-x="1212" d="M42 0l421 1409h285l420 -1409h-240l-102 360h-440l-102 -360h-242zM440 582h332l-114 405l-20 71q-9 35 -16 64l-12 49q-4 19 -4 21q-1 -3 -5 -22t-11 -48t-16 -64l-20 -71z" />
<glyph unicode="B" horiz-adv-x="1212" d="M112 0v1409h529q102 0 182 -21.5t135 -65.5t83 -110.5t28 -156.5q0 -120 -54.5 -202.5t-165.5 -111.5q140 -20 213.5 -107.5t73.5 -231.5q0 -107 -35.5 -183.5t-96.5 -125t-142 -71t-172 -22.5h-578zM354 219h316q48 0 88.5 9.5t70.5 33t47 63.5t17 100q0 56 -18 94 t-49.5 61t-73.5 33t-92 10h-306v-404zM354 841h277q102 0 148.5 43.5t46.5 130.5q0 95 -49.5 135t-147.5 40h-275v-349z" />
<glyph unicode="C" horiz-adv-x="1212" d="M69 711q0 165 34.5 298t105 226.5t178.5 144t254 50.5q113 0 198 -29t146.5 -81.5t102 -124t63.5 -157.5l-213 -71q-11 45 -35 86.5t-60.5 73.5t-85.5 51.5t-111 19.5q-88 0 -151 -34.5t-103.5 -98.5t-60 -153.5t-19.5 -200.5q0 -110 19.5 -201.5t60.5 -157.5t105 -103 t154 -37q68 0 118 23.5t86.5 61.5t60.5 86t40 97l210 -97q-25 -76 -66 -149t-102.5 -129t-146.5 -90.5t-200 -34.5q-150 0 -259.5 54.5t-181.5 152t-106.5 231.5t-34.5 293z" />
<glyph unicode="D" horiz-adv-x="1212" d="M112 0v1409h418q134 0 246.5 -41t193.5 -126t126.5 -216t45.5 -311q0 -176 -43.5 -309.5t-119 -223.5t-178.5 -136t-222 -46h-467zM354 228h205q73 0 135 31t107.5 92.5t71 152.5t25.5 211q0 123 -27.5 211t-76.5 144.5t-117.5 83.5t-151.5 27h-171v-953z" />
<glyph unicode="E" horiz-adv-x="1120" d="M112 0v1409h909v-228h-667v-354h617v-228h-617v-371h700v-228h-942z" />
<glyph unicode="F" horiz-adv-x="1026" d="M112 0v1409h852v-228h-610v-436h592v-228h-592v-517h-242z" />
<glyph unicode="G" horiz-adv-x="1307" d="M69 711q0 165 36 298t109.5 226.5t184.5 144t261 50.5q109 0 194 -26t149 -74t107 -115.5t68 -151.5l-223 -82q-15 44 -39.5 83.5t-61 69t-84.5 47t-110 17.5q-90 0 -155.5 -34.5t-108 -98.5t-63 -153.5t-20.5 -200.5q0 -110 20.5 -202t64 -158t109 -103t154.5 -37 q53 0 101.5 10t89.5 26.5t74.5 38t54.5 44.5v195h-282v218h504v-518q-39 -49 -95 -93.5t-126 -78t-152.5 -53.5t-174.5 -20q-153 0 -264 54.5t-182.5 152t-105.5 231.5t-34 293z" />
<glyph unicode="H" horiz-adv-x="1212" d="M112 0v1409h242v-561h503v561h242v-1409h-242v604h-503v-604h-242z" />
<glyph unicode="I" horiz-adv-x="467" d="M112 0v1409h243v-1409h-243z" />
<glyph unicode="J" d="M25 382l241 43q8 -59 22.5 -99.5t35.5 -66t48 -37t59 -11.5q72 0 109.5 59t37.5 169v739h-230v231h471v-963q0 -107 -25.5 -193.5t-75 -147t-122 -93t-166.5 -32.5q-87 0 -155 22t-118 70t-82.5 124.5t-49.5 185.5z" />
<glyph unicode="K" horiz-adv-x="1212" d="M112 0v1409h242v-639l520 639h282l-493 -596l533 -813h-285l-414 647l-143 -133v-514h-242z" />
<glyph unicode="L" horiz-adv-x="1026" d="M112 0v1409h242v-1181h620v-228h-862z" />
<glyph unicode="M" horiz-adv-x="1399" d="M112 0v1409h324l207 -788q8 -31 17 -76l19 -87l21 -102l22 100l10 43l10 43q5 21 10 40l9 34l203 793h323v-1409h-215v854q0 51 1 105t3 99l4 103l-33 -150l-14 -62l-14 -62l-13 -56l-12 -45l-208 -786h-173l-208 786q-5 19 -11 45l-13 56l-15 62l-14 62l-35 150 q2 -58 5 -114q2 -48 3.5 -101t1.5 -92v-854h-215z" />
<glyph unicode="N" horiz-adv-x="1212" d="M112 0v1409h276l511 -1094q-4 42 -7 88q-3 39 -5.5 88t-2.5 99v819h215v-1409h-284l-503 1085l8 -88q3 -38 5 -82t2 -84v-831h-215z" />
<glyph unicode="O" horiz-adv-x="1307" d="M69 711q0 165 38 298t112.5 226.5t183 144t249.5 50.5t250 -51t183 -145t112.5 -226.5t38.5 -296.5q0 -165 -40 -300t-115.5 -231t-184 -148t-245.5 -52q-145 0 -254 54.5t-182 152t-109.5 231.5t-36.5 293zM313 711q0 -110 21.5 -201.5t64 -157.5t106 -103t146.5 -37 q89 0 152.5 37.5t105 104t61 158t19.5 199.5q0 111 -21.5 200.5t-64 153.5t-105.5 98.5t-146 34.5q-85 0 -148 -34.5t-106 -98.5t-64 -153.5t-21 -200.5z" />
<glyph unicode="P" horiz-adv-x="1120" d="M112 0v1409h519q111 0 192 -32.5t134.5 -91.5t79.5 -141t26 -181q0 -91 -25 -175.5t-77 -149.5t-131.5 -103.5t-188.5 -38.5h-287v-496h-242zM354 723h257q54 0 93 17t64.5 48t38 74.5t12.5 95.5q0 109 -53.5 165.5t-161.5 56.5h-250v-457z" />
<glyph unicode="Q" horiz-adv-x="1307" d="M69 711q0 165 38 298t112.5 226.5t183 144t249.5 50.5t250 -51t183 -145t112.5 -226.5t38.5 -296.5q0 -141 -29 -259.5t-84.5 -210t-135 -152t-180.5 -85.5q16 -58 38 -94.5t50 -57t61 -28t70 -7.5q24 0 48.5 2.5t49.5 7.5l-2 -202q-44 -12 -92.5 -20t-105.5 -8 q-78 0 -136.5 28.5t-101.5 80t-73 124t-52 160.5q-123 14 -215 73t-154 154t-92.5 221t-30.5 273zM313 711q0 -110 21.5 -202t64 -158t106 -103t146.5 -37q89 0 152.5 37.5t105 104t61 158.5t19.5 200q0 111 -21.5 200.5t-64 153.5t-105.5 98.5t-146 34.5q-85 0 -148 -34.5 t-106 -98.5t-64 -153.5t-21 -200.5z" />
<glyph unicode="R" horiz-adv-x="1212" d="M112 0v1409h577q108 0 189 -29.5t135 -84t80.5 -132t26.5 -174.5q0 -79 -19 -144.5t-53 -116.5t-81 -85.5t-102 -50.5l313 -592h-272l-268 535h-284v-535h-242zM354 764h316q54 0 93 15.5t64 44t37.5 67.5t12.5 86q0 103 -55.5 153t-157.5 50h-310v-416z" />
<glyph unicode="S" horiz-adv-x="1120" d="M48 367l234 47q10 -47 29 -86t52 -67.5t82.5 -44t120.5 -15.5q123 0 188 45.5t65 142.5q0 58 -26 95t-69.5 61t-100 40t-118.5 31l-99 29q-49 15 -93.5 36t-83 50t-67 71.5t-44.5 99.5t-16 134q0 105 34.5 180t96 122.5t145.5 69.5t184 22q113 0 194 -21.5t135.5 -65.5 t86 -110.5t46.5 -155.5l-234 -39q-18 91 -73.5 137t-158.5 46q-64 0 -106.5 -13.5t-67.5 -36.5t-35.5 -53.5t-10.5 -64.5q0 -52 20.5 -85.5t57.5 -56t88 -38t113 -31.5q54 -14 107 -29.5t101.5 -36.5t90.5 -51t72.5 -73.5t48 -103.5t17.5 -142q0 -96 -28.5 -174.5 t-89 -134.5t-154 -86.5t-223.5 -30.5q-115 0 -202.5 25t-150.5 74t-101.5 121.5t-56.5 166.5z" />
<glyph unicode="T" horiz-adv-x="1026" d="M19 1181v228h989v-228h-374v-1181h-242v1181h-373z" />
<glyph unicode="U" horiz-adv-x="1212" d="M101 528v881h242v-858q0 -89 18 -153.5t51.5 -106t81 -61t105.5 -19.5q59 0 108.5 20.5t85 63.5t55.5 109t20 157v848h242v-866q0 -145 -38.5 -251t-107.5 -175.5t-164 -103t-208 -33.5q-108 0 -198 31.5t-155 98t-101.5 170.5t-36.5 248z" />
<glyph unicode="V" horiz-adv-x="1120" d="M11 1409h253l238 -905l22 -92l20 -86q10 -46 18 -88q8 41 18 86q8 38 19 86l22 94l237 905h251l-425 -1409h-245z" />
<glyph unicode="W" horiz-adv-x="1585" d="M2 1409h245l144 -784l23 -126l20 -111q10 -57 18 -109l24 144l10 62l12 63l10 60l9 51l143 750h271l146 -750q5 -24 9 -53l10 -62q5 -31 10 -62.5t9 -61.5l20 -141l20 116l21 112q11 61 23 118l139 784h245l-298 -1409h-287l-157 815q-7 37 -15 88l-17 99q-9 55 -16 114 l-18 -115l-8 -49q-4 -26 -9 -50l-8 -47q-4 -22 -8 -40l-156 -815h-287z" />
<glyph unicode="X" horiz-adv-x="1120" d="M15 0l400 741l-367 668h256l257 -498l256 498h255l-351 -668l384 -741h-254l-290 561l-290 -561h-256z" />
<glyph unicode="Y" horiz-adv-x="1120" d="M29 1409h253l277 -596l281 596h253l-412 -831v-578h-241v578z" />
<glyph unicode="Z" horiz-adv-x="1026" d="M50 0v209l625 969h-563v231h832v-205l-625 -973h659v-231h-928z" />
<glyph unicode="[" horiz-adv-x="559" d="M94 -425v1909h445v-190h-227v-1528h227v-191h-445z" />
<glyph unicode="\" horiz-adv-x="467" d="M17 1485h196l238 -1526h-199z" />
<glyph unicode="]" horiz-adv-x="559" d="M20 -234h228v1528h-228v190h445v-1909h-445v191z" />
<glyph unicode="^" horiz-adv-x="981" d="M37 514l321 895h264l322 -895h-188l-267 752l-266 -752h-186z" />
<glyph unicode="_" d="M-16 -172h965v-78h-965v78z" />
<glyph unicode="`" horiz-adv-x="559" d="M54 1459v43h212l205 -288v-31h-138z" />
<glyph unicode="a" d="M49 306q0 96 27.5 161.5t75 106t111.5 59t136 19.5l191 4v55q0 59 -8.5 98.5t-25 64.5t-40.5 35.5t-55 10.5q-29 0 -51.5 -7t-39 -24.5t-26.5 -47t-14 -74.5l-241 14q10 71 36.5 129.5t72.5 101.5t114 66.5t159 23.5q83 0 147.5 -25t109.5 -74.5t69 -121.5t24 -167v-394 q0 -38 3 -68t10.5 -50.5t22 -31t37.5 -10.5q26 0 51 6v-152l-37 -11q-17 -5 -33 -8t-34.5 -5t-43.5 -2q-87 0 -128.5 52t-49.5 153h-5q-46 -101 -118 -157t-174 -56q-64 0 -114.5 21.5t-85.5 63t-54 102.5t-19 139zM289 328q0 -77 29.5 -114.5t77.5 -37.5q44 0 80.5 23 t61.5 60.5t38.5 86.5t13.5 100v55l-118 -2q-37 -2 -70 -7.5t-58 -23t-40 -50.5t-15 -90z" />
<glyph unicode="b" horiz-adv-x="1026" d="M111 0q2 35 4 99.5t2 147.5v1237h231v-414q0 -32 -0.5 -62.5t-1.5 -56.5q-1 -30 -2 -57h4q42 112 115 160t169 48q85 0 146.5 -41.5t101 -116t58.5 -176.5t19 -223q0 -123 -20 -226.5t-62 -179t-106.5 -117.5t-151.5 -42q-39 0 -78.5 10t-75 33t-65 60t-50.5 91h-2 q0 -21 -1 -48t-3 -52.5t-4 -45.5t-3 -28h-224zM344 536q0 -106 16.5 -176t43 -112t61 -59t69.5 -17q88 0 135.5 88.5t47.5 284.5q0 184 -44.5 273t-136.5 89q-35 0 -70 -17t-62 -59.5t-43.5 -114t-16.5 -180.5z" />
<glyph unicode="c" d="M66 535q0 135 28.5 240.5t82.5 178t133.5 110.5t179.5 38q86 0 153 -28t115.5 -76.5t78.5 -114.5t41 -142l-232 -14q-10 83 -49 132.5t-112 49.5q-93 0 -135 -93t-42 -270q0 -374 181 -374q66 0 110 50.5t55 150.5l231 -13q-8 -75 -37.5 -143.5t-79 -121t-120 -84 t-161.5 -31.5q-106 0 -185 40t-131.5 113t-78.5 175.5t-26 226.5z" />
<glyph unicode="d" horiz-adv-x="1026" d="M69 540q0 123 20 226t62 177.5t106.5 116.5t152.5 42q43 0 83.5 -11t75 -34t62.5 -59t47 -87h2q0 10 -0.5 29.5t-0.5 44.5t-0.5 52t-0.5 52v395h231v-1248q0 -79 2.5 -140.5t3.5 -95.5h-223q-2 8 -4 28.5t-4 46.5t-3 53t-1 48h-3q-40 -105 -112 -150.5t-172 -45.5 q-84 0 -145 42t-101 117t-59 177.5t-19 223.5zM309 540q0 -368 181 -368q34 0 69 18t62 61t44 115.5t17 180.5q0 107 -16.5 177.5t-43.5 112t-61 58t-69 16.5q-44 0 -78 -21t-57.5 -66t-35.5 -115t-12 -169z" />
<glyph unicode="e" d="M66 546q0 155 34 261t91.5 171.5t133 94.5t159.5 29q105 0 179 -44.5t121.5 -124.5t70 -191.5t22.5 -246.5v-8h-569q0 -68 9.5 -126.5t31.5 -101t57.5 -67t85.5 -24.5q61 0 99.5 31.5t54.5 97.5l217 -23q-15 -46 -41.5 -98t-70.5 -95.5t-110 -72t-160 -28.5 q-96 0 -173 34.5t-131 105t-82.5 177t-28.5 249.5zM309 663h345q-7 131 -52 196.5t-121 65.5q-35 0 -66 -14.5t-53.5 -46t-36.5 -81.5t-16 -120z" />
<glyph unicode="f" horiz-adv-x="559" d="M29 892v190h129v113q0 62 12.5 114.5t42 91.5t79.5 61t124 22q39 0 77.5 -5t68.5 -11v-181q-15 4 -33 6.5t-34 2.5q-32 0 -53 -8t-32.5 -24t-16.5 -40.5t-5 -56.5v-85h174v-190h-174v-892h-230v892h-129z" />
<glyph unicode="g" horiz-adv-x="1026" d="M69 550q0 125 20.5 226.5t62.5 174.5t106.5 112.5t153.5 39.5t159 -46t109 -149h4q0 21 1 48.5t3 53t4 45.5t3 27h219q-2 -36 -3.5 -101t-1.5 -149v-799q0 -118 -28 -205.5t-81.5 -145.5t-132 -87t-178.5 -29q-88 0 -155 21.5t-114 60t-75.5 92t-38.5 117.5l230 33 q12 -65 53 -102t106 -37q41 0 75 14t58.5 47.5t38 88.5t13.5 136v57q0 29 1 53q1 28 1 54h-2q-40 -105 -112.5 -152t-173.5 -47q-84 0 -145 40.5t-101.5 113t-59.5 173t-19 221.5zM309 550q0 -175 46 -264t137 -89q34 0 68.5 16.5t61.5 58t43.5 110.5t16.5 174 q0 102 -16.5 170t-43 109t-60.5 58t-68 17q-44 0 -78.5 -21t-58 -65t-36 -112t-12.5 -162z" />
<glyph unicode="h" horiz-adv-x="1026" d="M117 0v1484h231v-405q0 -32 -1 -64.5t-2 -61t-2 -51.5t-2 -36h3q47 124 117.5 180t168.5 56q80 0 135.5 -32t90.5 -88t50.5 -132t15.5 -164v-686h-230v606q0 63 -8 115.5t-27 90t-49.5 58.5t-73.5 21q-42 0 -76 -22.5t-58.5 -64t-38 -99t-13.5 -126.5v-579h-231z" />
<glyph unicode="i" horiz-adv-x="467" d="M117 0v1082h231v-1082h-231zM117 1277v207h231v-207h-231z" />
<glyph unicode="j" horiz-adv-x="467" d="M-26 -218q11 -2 21.5 -3t20.5 -1q32 0 51.5 8t31 27t15.5 50t4 77v1142h231v-1210q0 -65 -13 -119t-41.5 -94t-73.5 -62t-108 -22q-46 0 -80 2.5t-59 6.5v198zM118 1277v207h231v-207h-231z" />
<glyph unicode="k" d="M117 0v1484h231v-850l316 448h248l-312 -422l336 -660h-252l-237 490l-99 -84v-406h-231z" />
<glyph unicode="l" horiz-adv-x="467" d="M117 0v1484h231v-1484h-231z" />
<glyph unicode="m" horiz-adv-x="1493" d="M111 1082h219q2 -12 3.5 -38.5t3.5 -58.5t3 -64t1 -54h3q43 124 106.5 180t152.5 56q102 0 163.5 -60.5t82.5 -175.5h5q24 67 51.5 112t60.5 72.5t72 39.5t85 12q73 0 123.5 -32t82 -88t46 -132t14.5 -164v-687h-229v607q0 63 -7 115.5t-23 90t-41.5 58.5t-62.5 21 q-34 0 -62.5 -21.5t-49.5 -61t-32.5 -94.5t-13.5 -122v-593h-228v607q0 63 -7 115.5t-23 90t-42 58.5t-63 21q-35 0 -64 -22.5t-49.5 -64t-32 -99t-11.5 -126.5v-580h-231v840q0 35 -0.5 72t-1.5 70.5t-2 60t-2 39.5z" />
<glyph unicode="n" horiz-adv-x="1026" d="M111 1082h220q2 -12 3 -38.5t3 -58.5t3 -64t1 -54h3q47 124 117.5 180t168.5 56q80 0 135.5 -32t90.5 -88t50.5 -132t15.5 -164v-687h-230v607q0 63 -8 115.5t-27 90t-49.5 58.5t-73.5 21q-42 0 -76 -22.5t-58.5 -64t-38 -99t-13.5 -126.5v-580h-231v840q0 35 -0.5 72 t-1.5 70.5t-2 60t-2 39.5z" />
<glyph unicode="o" horiz-adv-x="1026" d="M66 542q0 121 27.5 223.5t83 177.5t140 117t197.5 42q120 0 204.5 -42t138 -116.5t78.5 -177t25 -224.5q0 -124 -28 -227t-84.5 -177.5t-141 -116t-197.5 -41.5q-108 0 -191 41t-139 115t-84.5 177.5t-28.5 228.5zM308 542q0 -97 14 -167t40.5 -115t63.5 -66.5t81 -21.5 q51 0 90.5 21.5t66.5 66.5t41 115t14 167q0 193 -51.5 280t-149.5 87q-102 0 -156 -88t-54 -279z" />
<glyph unicode="p" horiz-adv-x="1026" d="M111 1082h224q2 -7 3.5 -27t3 -46t2 -54t0.5 -49h4q42 107 115 153t169 46q84 0 145.5 -42t101.5 -116t59 -176.5t19 -224.5q0 -123 -20 -227t-62 -179t-106.5 -117.5t-151.5 -42.5q-39 0 -78.5 10t-74.5 32.5t-65 59t-51 90.5h-5q1 -5 1.5 -25t1.5 -46.5t1.5 -56 t0.5 -54.5v-415h-231v1258q0 83 -2 148t-4 101zM344 538q0 -106 16.5 -176.5t43.5 -112.5t60.5 -59.5t67.5 -17.5q44 0 78.5 21.5t58 67t36 116.5t12.5 169q0 185 -46 274.5t-137 89.5q-34 0 -68.5 -17.5t-61 -60t-43.5 -114t-17 -180.5z" />
<glyph unicode="q" horiz-adv-x="1026" d="M69 540q0 123 20.5 226.5t62.5 178t106.5 116.5t153.5 42t159 -46t109 -149q0 21 1 48.5t3 53t4.5 45.5t3.5 27h222q-2 -36 -3.5 -101t-1.5 -148v-1258h-229v450q0 28 1 55t1 50l2 50h-2q-40 -105 -114.5 -152.5t-174.5 -47.5q-84 0 -145 42t-101 117t-59 177.5 t-19 223.5zM309 540q0 -368 183 -368q34 0 68.5 18t61.5 61t43.5 115t16.5 180t-16.5 178t-43 111.5t-60.5 58t-68 16.5q-44 0 -78.5 -21t-58 -66t-36 -115t-12.5 -168z" />
<glyph unicode="r" horiz-adv-x="653" d="M111 1082h219q2 -12 3.5 -41.5t2.5 -64.5l4 -70q1 -34 1 -55h3q17 59 34.5 105.5t40.5 79t56 50t81 17.5q20 0 40.5 -4.5t31.5 -10.5v-235q-22 6 -45 10.5t-54 4.5q-86 0 -134 -85t-48 -252v-531h-230v828q0 35 -0.5 74t-1.5 74.5t-2 64t-2 41.5z" />
<glyph unicode="s" d="M59 270l203 37q10 -45 27 -73t42.5 -43t59.5 -20t77 -5q39 0 73.5 5.5t59.5 19t39 38t14 61.5q0 42 -20.5 66.5t-55 40t-82 27t-100.5 26.5q-56 15 -110 36t-96.5 57t-69 91.5t-26.5 140.5q0 77 25 137.5t72.5 103t117.5 65t161 22.5q72 0 134.5 -16.5t111.5 -52 t82.5 -90.5t46.5 -133l-205 -26q-6 39 -20.5 64.5t-36 40.5t-50.5 20.5t-63 5.5q-82 0 -123 -25.5t-41 -85.5q0 -37 16.5 -59t47.5 -36.5t73 -25t92 -25.5q62 -16 121.5 -37.5t106 -59t74.5 -96.5t28 -150q0 -78 -26.5 -140t-77.5 -105.5t-124.5 -67t-168.5 -23.5 q-84 0 -152 15t-119.5 49.5t-86 89.5t-51.5 136z" />
<glyph unicode="t" horiz-adv-x="559" d="M20 892v190h124l72 254h145v-254h168v-190h-168v-562q0 -79 24.5 -116.5t75.5 -37.5q21 0 38.5 4t39.5 10v-174q-43 -17 -90.5 -25.5t-104.5 -8.5q-102 0 -156.5 67.5t-54.5 204.5v638h-113z" />
<glyph unicode="u" horiz-adv-x="1026" d="M104 395v687h231v-607q0 -63 8 -115.5t27 -90t49 -58.5t73 -21q42 0 76 22.5t58.5 64t38 99t13.5 126.5v580h231v-840q0 -34 0.5 -71.5t1.5 -71t2 -60t2 -39.5h-220q-1 12 -2.5 38.5t-3 58.5t-2.5 64t-1 54h-4q-46 -123 -117 -179t-169 -56q-80 0 -135.5 32t-90.5 87.5 t-50.5 131.5t-15.5 164z" />
<glyph unicode="v" d="M7 1082h243l155 -605l15 -63q9 -34 16 -67l15 -64q7 -31 12 -56q5 24 13 55l15 63l17 66l16 63l162 608h241l-328 -1082h-275z" />
<glyph unicode="w" horiz-adv-x="1307" d="M-5 1082h217l112 -636q5 -27 10 -60l11 -63q6 -34 13 -68q6 38 11 74q5 31 11 63l10 54l139 636h247l136 -636q6 -26 12 -59l11 -62q6 -34 11 -70q7 36 12 70l11 62l11 59l117 636h213l-233 -1082h-243l-142 660q-7 31 -13 69.5t-12 72.5l-13 80q-7 -40 -15 -80 q-7 -34 -14 -73t-14 -71l-143 -658h-243z" />
<glyph unicode="x" d="M11 0l325 559l-309 523h249l189 -354l189 354h250l-309 -520l327 -562h-250l-207 392l-208 -392h-246z" />
<glyph unicode="y" d="M13 1082h244l139 -507l10 -37l16 -60l18 -70l17 -70q8 -34 13.5 -60t8.5 -37q2 11 7 37l13 58l15 68l16 69l13 59q6 27 10 39l131 511h241l-351 -1139q-32 -95 -65 -164t-72.5 -114.5t-89 -67.5t-115.5 -22q-36 0 -73.5 3t-71.5 10v200q16 -3 39.5 -5.5t39.5 -2.5 q34 0 60.5 9t47.5 30t39.5 56t35.5 88l15 48z" />
<glyph unicode="z" horiz-adv-x="840" d="M56 0v199l443 680h-410v203h664v-201l-440 -676h480v-205h-737z" />
<glyph unicode="{" horiz-adv-x="653" d="M27 431v195q43 2 78 14.5t59 39.5t37.5 70.5t13.5 106.5v328q0 146 64 222.5t177 76.5h162v-190h-48q-75 0 -108 -52t-33 -157v-301q0 -51 -13.5 -93.5t-36.5 -74.5t-54 -53.5t-65 -30.5v-4q35 -10 66 -31.5t54 -54t36 -74t13 -92.5v-301q0 -106 33.5 -157.5t107.5 -51.5 h48v-191h-162q-57 0 -101 21t-76 59.5t-48 94t-16 124.5v328q0 63 -13.5 106.5t-38 70.5t-59 39t-77.5 13z" />
<glyph unicode="|" horiz-adv-x="471" d="M128 -455v1939h216v-1939h-216z" />
<glyph unicode="}" horiz-adv-x="653" d="M35 -234h47q76 0 108.5 51.5t32.5 157.5v301q0 51 13.5 92.5t36.5 74t53.5 54t65.5 31.5v4q-34 9 -64.5 30.5t-54 53.5t-37 74.5t-13.5 93.5v301q0 105 -32.5 157t-108.5 52h-47v190h162q113 0 177 -76.5t64 -222.5v-328q0 -63 13.5 -106.5t38.5 -70.5t59.5 -39.5 t78.5 -14.5v-195q-43 -1 -78 -13t-60 -39t-38.5 -70.5t-13.5 -106.5v-328q0 -69 -16 -124.5t-48 -94t-76.5 -59.5t-100.5 -21h-162v191z" />
<glyph unicode="~" horiz-adv-x="981" d="M66 543v213q42 38 98 61t125 23q34 0 67.5 -6.5t66 -17t64.5 -24.5l63 -26q37 -16 81 -29.5t83 -13.5q56 0 108.5 25t95.5 67v-219q-26 -22 -51 -37.5t-51 -25t-54.5 -13.5t-62.5 -4q-62 0 -121.5 21t-120.5 47q-54 23 -99 35t-82 12q-32 0 -59.5 -6t-52.5 -17.5 t-49 -27.5t-49 -37z" />
<glyph unicode="&#xa1;" horiz-adv-x="559" d="M159 -327l26 981h189l26 -981h-241zM164 812v270h236v-270h-236z" />
<glyph unicode="&#xa2;" d="M42 686q0 233 98 375q96 140 275 164v184h133v-184q143 -19 234 -119q83 -92 106 -238l-231 -14q-19 136 -109 177v-677q98 44 115 195l232 -12q-27 -232 -207 -332q-62 -34 -140 -45v-191h-133v189q-183 22 -281 166q-92 136 -92 362zM274 691q0 -281 141 -339v680 q-55 -21 -89 -80q-52 -92 -52 -261z" />
<glyph unicode="&#xa3;" d="M17 604v170h146v248q0 92 20 167.5t62 129t108 82.5t160 29q79 0 134.5 -20.5t94.5 -58.5t64 -91.5t40 -120.5l-191 -47q-17 77 -50.5 112t-87.5 35q-75 0 -108 -57.5t-33 -182.5v-225h235v-170h-235v-90q0 -59 -10 -105.5t-29 -83t-47 -64.5t-63 -52h312q85 0 129 49.5 t58 143.5l191 -39q-11 -73 -35.5 -139t-64.5 -115.5t-95 -79t-127 -29.5h-569v205q32 22 59 48t46 61.5t29.5 83.5t10.5 114v92h-154z" />
<glyph unicode="&#xa4;" d="M47 328l110 137q-23 48 -35 103.5t-12 115.5t12.5 116t36.5 105l-109 133l129 156l107 -133q39 28 85 43.5t96 15.5q49 0 94.5 -15t84.5 -44l111 135l129 -158l-111 -135q24 -48 36.5 -103.5t12.5 -115.5t-12 -114.5t-35 -102.5l109 -133l-129 -160l-109 135 q-82 -59 -181 -59q-49 0 -95 14.5t-86 42.5l-111 -137zM295 686q0 -43 13.5 -81t37 -66.5t54.5 -45t67 -16.5q35 0 65.5 16.5t54 45t37 66.5t13.5 81t-13.5 81t-37 66.5t-54 45t-65.5 16.5t-66.5 -16.5t-55 -45t-37 -66.5t-13.5 -81z" />
<glyph unicode="&#xa5;" d="M7 1409h237l221 -596l225 596h237l-299 -718h226v-146h-277v-162h277v-147h-277v-236h-223v236h-275v147h275l2 162h-277v146h226z" />
<glyph unicode="&#xa6;" horiz-adv-x="471" d="M128 324h216v-779h-216v779zM128 676v778h216v-778h-216z" />
<glyph unicode="&#xa7;" d="M43 59l195 37q9 -45 28 -75t46.5 -48t63.5 -25t80 -7q100 0 151.5 32.5t51.5 112.5q0 45 -17 74t-51.5 49.5t-86 37t-120.5 36.5q-52 15 -107 37.5t-99.5 58.5t-73.5 89.5t-29 131.5q0 49 12 89t35 71.5t55.5 55.5t71.5 40q-31 16 -59 40.5t-49 57t-33.5 72.5t-12.5 88 q0 149 96.5 231t280.5 82q71 0 133.5 -15.5t112 -48.5t82.5 -85t45 -125l-196 -25q-6 34 -21.5 58.5t-39 40t-53.5 23t-63 7.5q-92 0 -135 -29.5t-43 -94.5q0 -39 18.5 -65.5t50.5 -45.5t74.5 -32.5t88.5 -26.5q70 -19 132 -43t108 -61t73 -91t27 -134q0 -44 -10.5 -84.5 t-31.5 -75t-51 -61.5t-69 -42q34 -18 61.5 -42t47 -54.5t30 -70t10.5 -89.5q0 -78 -24 -141.5t-73 -108.5t-123.5 -69.5t-176.5 -24.5q-84 0 -152.5 15t-121 49t-87 89t-52.5 135zM273 627q0 -39 19.5 -65.5t53 -45t76.5 -32t89 -26.5q34 2 63.5 10.5t50.5 25.5t33.5 43 t12.5 63q0 39 -13 66t-42.5 47.5t-75 36t-109.5 30.5q-76 -11 -117 -47.5t-41 -105.5z" />
<glyph unicode="&#xa8;" horiz-adv-x="559" d="M13 1199v219h176v-219h-176zM369 1199v219h178v-219h-178z" />
<glyph unicode="&#xa9;" horiz-adv-x="1237" d="M26 707q0 100 21.5 192t60 172.5t92.5 146.5t120 113t141.5 73t157.5 26q123 0 230.5 -57t188.5 -155t127.5 -229.5t46.5 -281.5q0 -100 -21.5 -192.5t-60 -173t-92 -146t-119.5 -112.5t-142 -73t-158 -26q-81 0 -157 26t-141.5 73t-120 112.5t-93 146t-60 173 t-21.5 192.5zM120 707q0 -127 39.5 -238t107 -194t158.5 -131t194 -48q104 0 195 48t159 131t107.5 194t39.5 238q0 126 -39.5 236.5t-107.5 193t-159 130.5t-195 48q-69 0 -132.5 -22t-119 -61.5t-101 -95t-78 -123t-50.5 -145t-18 -161.5zM298 709q0 96 20 173t60 130.5 t101 82.5t143 29q64 0 111.5 -18.5t81.5 -50t57.5 -73t39.5 -87.5l-128 -41q-8 24 -21.5 47t-32.5 41.5t-44.5 29.5t-59.5 11q-48 0 -82 -19.5t-56 -55.5t-32 -86.5t-10 -112.5t11 -114t34 -89.5t57.5 -58.5t81.5 -21q34 0 60 13t45.5 34t33 46.5t21.5 49.5l131 -47 q-16 -43 -39.5 -85.5t-58 -76.5t-82 -54.5t-111.5 -20.5q-85 0 -147.5 31.5t-103.5 88t-61 134.5t-20 170z" />
<glyph unicode="&#xaa;" horiz-adv-x="621" d="M37 927q0 60 19 100t50.5 64.5t74 35t89.5 11.5l120 2v42q0 35 -6.5 58t-18 36.5t-27 19t-33.5 5.5q-17 0 -32.5 -4t-27.5 -14.5t-21 -28.5t-11 -47l-156 9q7 43 24.5 80t48.5 64.5t74 43t100 15.5q53 0 96 -14t74 -43.5t48 -73.5t17 -104v-237q0 -48 7.5 -72.5 t34.5 -24.5q3 0 9 0.5t11.5 1.5t11 1.5t8.5 1.5v-109q-24 -8 -49.5 -13t-47.5 -5q-58 0 -91.5 36.5t-37.5 97.5h-3q-28 -65 -73 -101t-108 -36q-79 0 -126.5 52.5t-47.5 149.5zM192 941q0 -41 19 -63t58 -22q29 0 51 15t38 38t24 51.5t8 56.5v27l-75 -2q-25 -1 -47.5 -4.5 t-39.5 -14t-26.5 -30t-9.5 -52.5z" />
<glyph unicode="&#xab;" d="M75 502v71l212 367h194v-37l-209 -366l210 -361v-35h-195zM452 502v71l210 367h195v-37l-208 -366l210 -361v-35h-197z" />
<glyph unicode="&#xac;" horiz-adv-x="981" d="M69 569v224h842v-652h-183v428h-659z" />
<glyph unicode="&#xad;" horiz-adv-x="559" d="M66 409v244h426v-244h-426z" />
<glyph unicode="&#xae;" horiz-adv-x="1237" d="M26 707q0 100 21.5 192t60 172.5t92.5 146.5t120 113t141.5 73t157.5 26q123 0 230.5 -57t188.5 -155t127.5 -229.5t46.5 -281.5q0 -100 -21.5 -192.5t-60 -173t-92 -146t-119.5 -112.5t-142 -73t-158 -26q-81 0 -157 26t-141.5 73t-120 112.5t-93 146t-60 173 t-21.5 192.5zM120 707q0 -127 39.5 -238t107 -194t158.5 -131t194 -48q104 0 195 48t159 131t107.5 194t39.5 238q0 126 -39.5 236.5t-107.5 193t-159 130.5t-195 48q-69 0 -132.5 -22t-119 -61.5t-101 -95t-78 -123t-50.5 -145t-18 -161.5zM369 297v815h270 q125 0 187.5 -64.5t62.5 -177.5q0 -94 -39 -153t-103 -84l174 -336h-164l-146 313h-96v-313h-146zM515 739h118q54 0 81.5 35.5t27.5 93.5q0 57 -31 87t-87 30h-109v-246z" />
<glyph unicode="&#xaf;" horiz-adv-x="559" d="M-8 1452v94h575v-94h-575z" />
<glyph unicode="&#xb0;" horiz-adv-x="819" d="M90 1110q0 67 25 124.5t68.5 100t102 66.5t124.5 24t124.5 -24t102 -66.5t69 -100t25.5 -124.5q0 -66 -25.5 -123.5t-69 -100t-102 -67t-124.5 -24.5t-124.5 24.5t-102 67t-68.5 100t-25 123.5zM244 1110q0 -34 13 -64.5t35.5 -53.5t52.5 -36.5t65 -13.5t64.5 13.5 t51.5 36.5t34.5 53.5t12.5 64.5q0 35 -12.5 65.5t-34.5 53t-51.5 35t-64.5 12.5t-65 -12.5t-52.5 -35t-35.5 -53t-13 -65.5z" />
<glyph unicode="&#xb1;" horiz-adv-x="1124" d="M49 0v223h1027v-223h-1027zM49 707v223h401v340h224v-340h402v-223h-402v-341h-224v341h-401z" />
<glyph unicode="&#xb2;" horiz-adv-x="559" d="M42 815q20 53 51 93.5t65.5 72.5t68.5 59t61.5 52.5t45 53.5t17.5 62q0 42 -16 66.5t-51 24.5q-70 0 -77 -98l-159 5q5 46 22.5 86t47 70t71 47t95.5 17q58 0 101.5 -16t71.5 -44t42 -66.5t14 -83.5q0 -53 -18 -93t-46 -72t-62 -59l-65 -52q-32 -25 -57.5 -51t-37.5 -57 h297v-138h-481z" />
<glyph unicode="&#xb3;" horiz-adv-x="559" d="M36 892l155 12q4 -45 26.5 -69t66.5 -24q40 0 62 23.5t22 72.5q0 31 -11 49.5t-28 28t-37 12.5t-38 3h-46v126h42q19 0 37.5 4t33 14t24 27.5t9.5 44.5q0 39 -19 61t-54 22q-34 0 -55 -22t-25 -67l-153 12q5 51 25.5 89.5t52 64t72.5 38t87 12.5q56 0 98 -14.5t69 -40 t41 -60t14 -73.5q0 -64 -29.5 -109.5t-94.5 -61.5v-2q37 -5 63.5 -20.5t43.5 -38.5t25 -51.5t8 -59.5q0 -99 -61.5 -155t-174.5 -56q-69 0 -115.5 18t-75.5 47.5t-42.5 66.5t-17.5 76z" />
<glyph unicode="&#xb4;" horiz-adv-x="559" d="M71 1183v31l207 288h211v-43l-278 -276h-140z" />
<glyph unicode="&#xb5;" horiz-adv-x="1026" d="M117 -426v1508h244v-605q0 -64 7 -116t24.5 -89.5t46.5 -58t74 -20.5q43 0 73 22.5t48 63t26 98t8 127.5v578h244v-840q0 -34 0.5 -70.5t2 -70t2.5 -60.5t2 -41h-233q-3 23 -7 62t-4 82h-3q-17 -49 -35.5 -81t-39.5 -50.5t-46.5 -25.5t-54.5 -7q-45 0 -80 24t-55 66h-4 q3 -32 3.5 -59.5t0.5 -55.5v-381h-244z" />
<glyph unicode="&#xb6;" d="M58 1049q0 84 20.5 150.5t59.5 113t95.5 71.5t128.5 25h516v-143h-107v-1530h-128v1530h-160v-1530h-127v958q-66 0 -121 22.5t-94 66.5t-61 111t-22 155z" />
<glyph unicode="&#xb7;" horiz-adv-x="559" d="M139 531v305h282v-305h-282z" />
<glyph unicode="&#xb8;" horiz-adv-x="559" d="M79 -301q20 -5 37.5 -6t31.5 -1q61 0 86.5 18.5t25.5 50.5q0 35 -23 52t-77 17h-21q-10 0 -22 -2l51 172h117l-27 -82q77 -5 114.5 -46t37.5 -107q0 -39 -13 -74t-42 -60.5t-76.5 -40.5t-117.5 -15q-37 0 -82 6v118z" />
<glyph unicode="&#xb9;" horiz-adv-x="559" d="M67 694v121h151v468l-142 -108v122l148 117h143v-599h140v-121h-440z" />
<glyph unicode="&#xba;" horiz-adv-x="612" d="M37 1073q0 75 16.5 138.5t50.5 109.5t85.5 72t120.5 26q72 0 124 -26t85 -72t48.5 -109.5t15.5 -138.5q0 -77 -17.5 -141t-52 -110t-86 -71.5t-120.5 -25.5q-65 0 -115.5 25.5t-85 71t-52 109.5t-17.5 142zM199 1073q0 -60 7.5 -100t22 -64t34 -34t43.5 -10q27 0 48.5 10 t35.5 34t22 64t8 100q0 59 -7 98t-20.5 62.5t-33.5 33t-47 9.5t-48 -10t-35.5 -33.5t-22 -62.5t-7.5 -97z" />
<glyph unicode="&#xbb;" d="M76 141v35l210 361l-208 366v37h195l210 -367v-71l-210 -361h-197zM453 141v35l210 361l-209 366v37h194l211 -367v-71l-211 -361h-195z" />
<glyph unicode="&#xbc;" horiz-adv-x="1401" d="M79 694v121h151v468l-142 -108v122l148 117h143v-599h140v-121h-440zM410 0l736 1409h165l-736 -1409h-165zM975 141v148l259 432h173v-440h84v-140h-84v-140h-150v140h-282zM1091 281h166v194v22q0 14 0.5 30t1.5 31t1 25q-2 -4 -9 -19.5t-16 -33.5l-17 -33l-11 -22z " />
<glyph unicode="&#xbd;" horiz-adv-x="1401" d="M79 694v121h151v468l-142 -108v122l148 117h143v-599h140v-121h-440zM390 0l736 1409h165l-736 -1409h-165zM1015 120q20 53 51 93.5t65.5 72.5t68.5 59t61.5 52.5t45 53.5t17.5 62q0 42 -16 66.5t-51 24.5q-70 0 -77 -98l-159 5q5 46 22.5 86t47 70t71 47t95.5 17 q58 0 101.5 -16t71.5 -44t42 -66.5t14 -83.5q0 -53 -18 -93t-46 -72t-62 -59l-65 -52q-32 -25 -57.5 -51t-37.5 -57h297v-138h-481z" />
<glyph unicode="&#xbe;" horiz-adv-x="1401" d="M95 892l155 12q4 -45 26.5 -69t66.5 -24q40 0 62 23.5t22 72.5q0 31 -11 49.5t-28 28t-37 12.5t-38 3h-46v126h42q19 0 37.5 4t33 14t24 27.5t9.5 44.5q0 39 -19 61t-54 22q-34 0 -55 -22t-25 -67l-153 12q5 51 25.5 89.5t52 64t72.5 38t87 12.5q56 0 98 -14.5t69 -40 t41 -60t14 -73.5q0 -64 -29.5 -109.5t-94.5 -61.5v-2q37 -5 63.5 -20.5t43.5 -38.5t25 -51.5t8 -59.5q0 -99 -61.5 -155t-174.5 -56q-69 0 -115.5 18t-75.5 47.5t-42.5 66.5t-17.5 76zM410 0l736 1409h165l-736 -1409h-165zM975 141v148l259 432h173v-440h84v-140h-84v-140 h-150v140h-282zM1091 281h166v194v22q0 14 0.5 30t1.5 31t1 25q-2 -4 -9 -19.5t-16 -33.5l-17 -33l-11 -22z" />
<glyph unicode="&#xbf;" horiz-adv-x="1026" d="M94 56q0 66 14 116t38 89.5t54 71t62 59.5l63 55q31 27 55.5 57.5t40 67t17.5 84.5h219q-4 -85 -30 -145t-63 -105.5t-78.5 -81t-77.5 -72.5t-59 -80t-23 -104q0 -88 47 -139t134 -51q42 0 77 15.5t62 43.5t44 68t22 88l234 -12q-10 -89 -41 -167t-84 -136t-130.5 -92 t-180.5 -34q-98 0 -175 28t-131 80.5t-82 127.5t-28 168zM426 812v270h238v-270h-238z" />
<glyph unicode="&#xc0;" horiz-adv-x="1212" d="M42 0l421 1409h285l420 -1409h-240l-102 360h-440l-102 -360h-242zM413 1772v43h212l206 -254v-31h-139zM440 582h332l-114 405l-20 71q-9 35 -16 64l-12 49q-4 19 -4 21q-1 -3 -5 -22t-11 -48t-16 -64l-20 -71z" />
<glyph unicode="&#xc1;" horiz-adv-x="1212" d="M42 0l421 1409h285l420 -1409h-240l-102 360h-440l-102 -360h-242zM440 582h332l-114 405l-20 71q-9 35 -16 64l-12 49q-4 19 -4 21q-1 -3 -5 -22t-11 -48t-16 -64l-20 -71zM557 1530v31l207 254h212v-43l-279 -242h-140z" />
<glyph unicode="&#xc2;" horiz-adv-x="1212" d="M42 0l421 1409h285l420 -1409h-240l-102 360h-440l-102 -360h-242zM375 1530v29l211 276h188l205 -276v-29h-130l-167 151h-3l-173 -151h-131zM440 582h332l-114 405l-20 71q-9 35 -16 64l-12 49q-4 19 -4 21q-1 -3 -5 -22t-11 -48t-16 -64l-20 -71z" />
<glyph unicode="&#xc3;" horiz-adv-x="1212" d="M42 0l421 1409h285l420 -1409h-240l-102 360h-440l-102 -360h-242zM357 1530q2 45 8.5 96t26 95t54.5 73t95 29q37 0 74 -19t72 -42l64 -43q30 -19 54 -19q21 0 34 8.5t22.5 24.5t15 39t9.5 51h111q-2 -45 -8.5 -96t-25.5 -95t-54 -73t-95 -29q-36 0 -72.5 19t-71 42.5 t-65.5 42.5t-55 19q-21 0 -35.5 -8.5t-23 -24.5t-13.5 -38.5t-9 -51.5h-112zM440 582h332l-114 405l-20 71q-9 35 -16 64l-12 49q-4 19 -4 21q-1 -3 -5 -22t-11 -48t-16 -64l-20 -71z" />
<glyph unicode="&#xc4;" horiz-adv-x="1212" d="M42 0l421 1409h285l420 -1409h-240l-102 360h-440l-102 -360h-242zM411 1530v219h159v-219h-159zM440 582h332l-114 405l-20 71q-9 35 -16 64l-12 49q-4 19 -4 21q-1 -3 -5 -22t-11 -48t-16 -64l-20 -71zM784 1530v219h161v-219h-161z" />
<glyph unicode="&#xc5;" horiz-adv-x="1212" d="M42 0l421 1409h285l420 -1409h-240l-102 360h-440l-102 -360h-242zM440 582h332l-114 405l-20 71q-9 35 -16 64l-12 49q-4 19 -4 21q-1 -3 -5 -22t-11 -48t-16 -64l-20 -71zM478 1552q0 52 16.5 98.5t44.5 81t66.5 54.5t80.5 20q43 0 81 -20t66.5 -54.5t44.5 -81 t16 -98.5q0 -53 -16 -99.5t-44.5 -81t-66.5 -54t-81 -19.5t-81 19.5t-66 54t-44.5 81t-16.5 99.5zM584 1552q0 -27 7.5 -50.5t21.5 -40.5t33 -27t40 -10t40.5 10t33.5 27t22 40.5t8 50.5q0 26 -8 48.5t-22 39.5t-33.5 27t-40.5 10t-40 -10t-33 -27t-21.5 -39.5t-7.5 -48.5z " />
<glyph unicode="&#xc6;" horiz-adv-x="1679" d="M3 0l574 1409h1003v-227h-575v-355h524v-221h-524v-379h608v-227h-850v360h-369l-141 -360h-250zM478 582h285v610h-50q-3 -9 -13 -37l-24 -61l-24 -65q-12 -31 -17 -46z" />
<glyph unicode="&#xc7;" horiz-adv-x="1212" d="M69 711q0 165 34.5 298t105 226.5t178.5 144t254 50.5q113 0 198 -29t146.5 -81.5t102 -124t63.5 -157.5l-213 -71q-11 45 -35 86.5t-60.5 73.5t-85.5 51.5t-111 19.5q-88 0 -151 -34.5t-103.5 -98.5t-60 -153.5t-19.5 -200.5q0 -110 19.5 -201.5t60.5 -157.5t105 -103 t154 -37q68 0 118 23.5t86.5 61.5t60.5 86t40 97l210 -97q-25 -76 -66 -149t-102.5 -129t-146.5 -90.5t-200 -34.5q-150 0 -259.5 54.5t-181.5 152t-106.5 231.5t-34.5 293zM568 -301q20 -5 37.5 -6t31.5 -1q61 0 86.5 18.5t25.5 50.5q0 35 -23 52t-77 17h-21q-10 0 -22 -2 l51 172h117l-27 -82q77 -5 114.5 -46t37.5 -107q0 -39 -13 -74t-42 -60.5t-76.5 -40.5t-117.5 -15q-37 0 -82 6v118z" />
<glyph unicode="&#xc8;" horiz-adv-x="1120" d="M112 0v1409h909v-228h-667v-354h617v-228h-617v-371h700v-228h-942zM380 1772v43h212l206 -254v-31h-139z" />
<glyph unicode="&#xc9;" horiz-adv-x="1120" d="M112 0v1409h909v-228h-667v-354h617v-228h-617v-371h700v-228h-942zM501 1530v31l207 254h212v-43l-279 -242h-140z" />
<glyph unicode="&#xca;" horiz-adv-x="1120" d="M112 0v1409h909v-228h-667v-354h617v-228h-617v-371h700v-228h-942zM349 1530v29l211 276h188l205 -276v-29h-130l-167 151h-3l-173 -151h-131z" />
<glyph unicode="&#xcb;" horiz-adv-x="1120" d="M112 0v1409h909v-228h-667v-354h617v-228h-617v-371h700v-228h-942zM383 1530v219h159v-219h-159zM756 1530v219h161v-219h-161z" />
<glyph unicode="&#xcc;" horiz-adv-x="467" d="M-56 1772v43h212l206 -254v-31h-139zM112 0v1409h243v-1409h-243z" />
<glyph unicode="&#xcd;" horiz-adv-x="467" d="M88 1530v31l207 254h212v-43l-279 -242h-140zM112 0v1409h243v-1409h-243z" />
<glyph unicode="&#xce;" horiz-adv-x="467" d="M-80 1530v29l211 276h188l205 -276v-29h-130l-167 151h-3l-173 -151h-131zM112 0v1409h243v-1409h-243z" />
<glyph unicode="&#xcf;" horiz-adv-x="467" d="M-44 1530v219h159v-219h-159zM112 0v1409h243v-1409h-243zM329 1530v219h161v-219h-161z" />
<glyph unicode="&#xd0;" horiz-adv-x="1212" d="M7 594v219h105v596h418q134 0 246.5 -41t193.5 -126t126.5 -216t45.5 -311q0 -176 -43.5 -309.5t-119 -223.5t-178.5 -136t-222 -46h-467v594h-105zM354 231h205q73 0 135 30.5t107.5 91.5t71 151.5t25.5 210.5q0 123 -27.5 210.5t-76.5 143.5t-117.5 82.5t-151.5 26.5 h-171v-365h292v-219h-292v-363z" />
<glyph unicode="&#xd1;" horiz-adv-x="1212" d="M112 0v1409h276l511 -1094q-4 42 -7 88q-3 39 -5.5 88t-2.5 99v819h215v-1409h-284l-503 1085l8 -88q3 -38 5 -82t2 -84v-831h-215zM358 1530q2 45 8.5 96t26 95t54.5 73t95 29q37 0 74 -19t72 -42l64 -43q30 -19 54 -19q21 0 34 8.5t22.5 24.5t15 39t9.5 51h111 q-2 -45 -8.5 -96t-25.5 -95t-54 -73t-95 -29q-36 0 -72.5 19t-71 42.5t-65.5 42.5t-55 19q-21 0 -35.5 -8.5t-23 -24.5t-13.5 -38.5t-9 -51.5h-112z" />
<glyph unicode="&#xd2;" horiz-adv-x="1307" d="M69 711q0 165 38 298t112.5 226.5t183 144t249.5 50.5t250 -51t183 -145t112.5 -226.5t38.5 -296.5q0 -165 -40 -300t-115.5 -231t-184 -148t-245.5 -52q-145 0 -254 54.5t-182 152t-109.5 231.5t-36.5 293zM313 711q0 -110 21.5 -201.5t64 -157.5t106 -103t146.5 -37 q89 0 152.5 37.5t105 104t61 158t19.5 199.5q0 111 -21.5 200.5t-64 153.5t-105.5 98.5t-146 34.5q-85 0 -148 -34.5t-106 -98.5t-64 -153.5t-21 -200.5zM531 1772v43h212l206 -254v-31h-139z" />
<glyph unicode="&#xd3;" horiz-adv-x="1307" d="M69 711q0 165 38 298t112.5 226.5t183 144t249.5 50.5t250 -51t183 -145t112.5 -226.5t38.5 -296.5q0 -165 -40 -300t-115.5 -231t-184 -148t-245.5 -52q-145 0 -254 54.5t-182 152t-109.5 231.5t-36.5 293zM313 711q0 -110 21.5 -201.5t64 -157.5t106 -103t146.5 -37 q89 0 152.5 37.5t105 104t61 158t19.5 199.5q0 111 -21.5 200.5t-64 153.5t-105.5 98.5t-146 34.5q-85 0 -148 -34.5t-106 -98.5t-64 -153.5t-21 -200.5zM609 1530v31l207 254h212v-43l-279 -242h-140z" />
<glyph unicode="&#xd4;" horiz-adv-x="1307" d="M69 711q0 165 38 298t112.5 226.5t183 144t249.5 50.5t250 -51t183 -145t112.5 -226.5t38.5 -296.5q0 -165 -40 -300t-115.5 -231t-184 -148t-245.5 -52q-145 0 -254 54.5t-182 152t-109.5 231.5t-36.5 293zM313 711q0 -110 21.5 -201.5t64 -157.5t106 -103t146.5 -37 q89 0 152.5 37.5t105 104t61 158t19.5 199.5q0 111 -21.5 200.5t-64 153.5t-105.5 98.5t-146 34.5q-85 0 -148 -34.5t-106 -98.5t-64 -153.5t-21 -200.5zM431 1530v29l211 276h188l205 -276v-29h-130l-167 151h-3l-173 -151h-131z" />
<glyph unicode="&#xd5;" horiz-adv-x="1307" d="M69 711q0 165 38 298t112.5 226.5t183 144t249.5 50.5t250 -51t183 -145t112.5 -226.5t38.5 -296.5q0 -165 -40 -300t-115.5 -231t-184 -148t-245.5 -52q-145 0 -254 54.5t-182 152t-109.5 231.5t-36.5 293zM313 711q0 -110 21.5 -201.5t64 -157.5t106 -103t146.5 -37 q89 0 152.5 37.5t105 104t61 158t19.5 199.5q0 111 -21.5 200.5t-64 153.5t-105.5 98.5t-146 34.5q-85 0 -148 -34.5t-106 -98.5t-64 -153.5t-21 -200.5zM406 1530q2 45 8.5 96t26 95t54.5 73t95 29q37 0 74 -19t72 -42l64 -43q30 -19 54 -19q21 0 34 8.5t22.5 24.5t15 39 t9.5 51h111q-2 -45 -8.5 -96t-25.5 -95t-54 -73t-95 -29q-36 0 -72.5 19t-71 42.5t-65.5 42.5t-55 19q-21 0 -35.5 -8.5t-23 -24.5t-13.5 -38.5t-9 -51.5h-112z" />
<glyph unicode="&#xd6;" horiz-adv-x="1307" d="M69 711q0 165 38 298t112.5 226.5t183 144t249.5 50.5t250 -51t183 -145t112.5 -226.5t38.5 -296.5q0 -165 -40 -300t-115.5 -231t-184 -148t-245.5 -52q-145 0 -254 54.5t-182 152t-109.5 231.5t-36.5 293zM313 711q0 -110 21.5 -201.5t64 -157.5t106 -103t146.5 -37 q89 0 152.5 37.5t105 104t61 158t19.5 199.5q0 111 -21.5 200.5t-64 153.5t-105.5 98.5t-146 34.5q-85 0 -148 -34.5t-106 -98.5t-64 -153.5t-21 -200.5zM466 1530v219h159v-219h-159zM839 1530v219h161v-219h-161z" />
<glyph unicode="&#xd7;" horiz-adv-x="981" d="M71 326l292 358l-289 352l129 156l289 -350l289 352l129 -158l-288 -354l288 -350l-129 -160l-289 354l-292 -358z" />
<glyph unicode="&#xd8;" horiz-adv-x="1307" d="M69 711q0 165 38 298t112.5 226.5t183 144t249.5 50.5q85 0 157.5 -19.5t133.5 -54.5l67 117h158l-116 -203q92 -94 138.5 -236.5t46.5 -322.5q0 -165 -40 -300t-115.5 -231t-184.5 -148t-246 -52q-174 0 -296 77l-74 -129l-160 -1l126 218q-89 99 -133.5 243.5 t-44.5 322.5zM313 711q0 -99 16.5 -183t52.5 -149l442 768q-37 25 -79 38t-93 13q-85 0 -148 -34.5t-106 -98.5t-64 -153.5t-21 -200.5zM476 266q35 -26 79 -40.5t96 -14.5q89 0 153 37.5t105.5 104t61 158.5t19.5 200q0 100 -17.5 182.5t-52.5 144.5z" />
<glyph unicode="&#xd9;" horiz-adv-x="1212" d="M101 528v881h242v-858q0 -89 18 -153.5t51.5 -106t81 -61t105.5 -19.5q59 0 108.5 20.5t85 63.5t55.5 109t20 157v848h242v-866q0 -145 -38.5 -251t-107.5 -175.5t-164 -103t-208 -33.5q-108 0 -198 31.5t-155 98t-101.5 170.5t-36.5 248zM400 1772v43h212l206 -254v-31 h-139z" />
<glyph unicode="&#xda;" horiz-adv-x="1212" d="M101 528v881h242v-858q0 -89 18 -153.5t51.5 -106t81 -61t105.5 -19.5q59 0 108.5 20.5t85 63.5t55.5 109t20 157v848h242v-866q0 -145 -38.5 -251t-107.5 -175.5t-164 -103t-208 -33.5q-108 0 -198 31.5t-155 98t-101.5 170.5t-36.5 248zM576 1530v31l207 254h212v-43 l-279 -242h-140z" />
<glyph unicode="&#xdb;" horiz-adv-x="1212" d="M101 528v881h242v-858q0 -89 18 -153.5t51.5 -106t81 -61t105.5 -19.5q59 0 108.5 20.5t85 63.5t55.5 109t20 157v848h242v-866q0 -145 -38.5 -251t-107.5 -175.5t-164 -103t-208 -33.5q-108 0 -198 31.5t-155 98t-101.5 170.5t-36.5 248zM373 1530v29l211 276h188 l205 -276v-29h-130l-167 151h-3l-173 -151h-131z" />
<glyph unicode="&#xdc;" horiz-adv-x="1212" d="M101 528v881h242v-858q0 -89 18 -153.5t51.5 -106t81 -61t105.5 -19.5q59 0 108.5 20.5t85 63.5t55.5 109t20 157v848h242v-866q0 -145 -38.5 -251t-107.5 -175.5t-164 -103t-208 -33.5q-108 0 -198 31.5t-155 98t-101.5 170.5t-36.5 248zM410 1530v219h159v-219h-159z M783 1530v219h161v-219h-161z" />
<glyph unicode="&#xdd;" horiz-adv-x="1120" d="M29 1409h253l277 -596l281 596h253l-412 -831v-578h-241v578zM508 1530v31l207 254h212v-43l-279 -242h-140z" />
<glyph unicode="&#xde;" horiz-adv-x="1120" d="M112 0v1409h242v-233h277q111 0 192 -31.5t134.5 -89t79.5 -138.5t26 -180q0 -91 -25 -173.5t-77 -144.5t-131.5 -99t-188.5 -37h-287v-283h-242zM354 492h257q54 0 93 18t64.5 50.5t38 76.5t12.5 96q0 110 -53.5 172t-161.5 62h-250v-475z" />
<glyph unicode="&#xdf;" horiz-adv-x="1026" d="M117 0v1007q0 111 24.5 199.5t75 150t127 94.5t179.5 33q94 0 163 -27t113.5 -72.5t66 -106.5t21.5 -129q0 -54 -13.5 -96.5t-34 -76.5t-44.5 -61l-45 -49q-20 -23 -33.5 -43.5t-13.5 -40.5q0 -28 20.5 -52.5t50.5 -51.5l67 -60q36 -33 66 -75.5t50.5 -99t20.5 -131.5 q0 -73 -18 -134t-57 -105t-98.5 -68.5t-143.5 -24.5q-58 0 -111 10t-104 33v206q20 -11 44.5 -21.5t50 -19t50.5 -13.5t45 -5q66 0 97 34.5t31 91.5q0 46 -20.5 80t-51.5 63.5t-67 58t-67 65t-51.5 84t-20.5 113.5q0 46 13.5 80.5t34 63.5t44 54t44 51.5t34 57.5t13.5 71 q0 65 -38 104t-110 39q-84 0 -128.5 -63.5t-44.5 -204.5v-1013h-231z" />
<glyph unicode="&#xe0;" d="M41 306q0 96 27.5 161.5t75 106t111.5 59t136 19.5l191 4v55q0 59 -8.5 98.5t-25 64.5t-40.5 35.5t-55 10.5q-29 0 -51.5 -7t-39 -24.5t-26.5 -47t-14 -74.5l-241 14q10 71 36.5 129.5t72.5 101.5t114 66.5t159 23.5q83 0 147.5 -25t109.5 -74.5t69 -121.5t24 -167v-394 q0 -38 3 -68t10.5 -50.5t22 -31t37.5 -10.5q26 0 51 6v-152l-37 -11q-17 -5 -33 -8t-34.5 -5t-43.5 -2q-87 0 -128.5 52t-49.5 153h-5q-46 -101 -118 -157t-174 -56q-64 0 -114.5 21.5t-85.5 63t-54 102.5t-19 139zM228 1459v43h212l205 -288v-31h-138zM281 328 q0 -77 29.5 -114.5t77.5 -37.5q44 0 80.5 23t61.5 60.5t38.5 86.5t13.5 100v55l-118 -2q-37 -2 -70 -7.5t-58 -23t-40 -50.5t-15 -90z" />
<glyph unicode="&#xe1;" d="M41 306q0 96 27.5 161.5t75 106t111.5 59t136 19.5l191 4v55q0 59 -8.5 98.5t-25 64.5t-40.5 35.5t-55 10.5q-29 0 -51.5 -7t-39 -24.5t-26.5 -47t-14 -74.5l-241 14q10 71 36.5 129.5t72.5 101.5t114 66.5t159 23.5q83 0 147.5 -25t109.5 -74.5t69 -121.5t24 -167v-394 q0 -38 3 -68t10.5 -50.5t22 -31t37.5 -10.5q26 0 51 6v-152l-37 -11q-17 -5 -33 -8t-34.5 -5t-43.5 -2q-87 0 -128.5 52t-49.5 153h-5q-46 -101 -118 -157t-174 -56q-64 0 -114.5 21.5t-85.5 63t-54 102.5t-19 139zM281 328q0 -77 29.5 -114.5t77.5 -37.5q44 0 80.5 23 t61.5 60.5t38.5 86.5t13.5 100v55l-118 -2q-37 -2 -70 -7.5t-58 -23t-40 -50.5t-15 -90zM359 1183v31l207 288h211v-43l-278 -276h-140z" />
<glyph unicode="&#xe2;" d="M41 306q0 96 27.5 161.5t75 106t111.5 59t136 19.5l191 4v55q0 59 -8.5 98.5t-25 64.5t-40.5 35.5t-55 10.5q-29 0 -51.5 -7t-39 -24.5t-26.5 -47t-14 -74.5l-241 14q10 71 36.5 129.5t72.5 101.5t114 66.5t159 23.5q83 0 147.5 -25t109.5 -74.5t69 -121.5t24 -167v-394 q0 -38 3 -68t10.5 -50.5t22 -31t37.5 -10.5q26 0 51 6v-152l-37 -11q-17 -5 -33 -8t-34.5 -5t-43.5 -2q-87 0 -128.5 52t-49.5 153h-5q-46 -101 -118 -157t-174 -56q-64 0 -114.5 21.5t-85.5 63t-54 102.5t-19 139zM199 1183v28l211 318h188l205 -318v-28h-130l-167 192h-3 l-173 -192h-131zM281 328q0 -77 29.5 -114.5t77.5 -37.5q44 0 80.5 23t61.5 60.5t38.5 86.5t13.5 100v55l-118 -2q-37 -2 -70 -7.5t-58 -23t-40 -50.5t-15 -90z" />
<glyph unicode="&#xe3;" d="M41 306q0 96 27.5 161.5t75 106t111.5 59t136 19.5l191 4v55q0 59 -8.5 98.5t-25 64.5t-40.5 35.5t-55 10.5q-29 0 -51.5 -7t-39 -24.5t-26.5 -47t-14 -74.5l-241 14q10 71 36.5 129.5t72.5 101.5t114 66.5t159 23.5q83 0 147.5 -25t109.5 -74.5t69 -121.5t24 -167v-394 q0 -38 3 -68t10.5 -50.5t22 -31t37.5 -10.5q26 0 51 6v-152l-37 -11q-17 -5 -33 -8t-34.5 -5t-43.5 -2q-87 0 -128.5 52t-49.5 153h-5q-46 -101 -118 -157t-174 -56q-64 0 -114.5 21.5t-85.5 63t-54 102.5t-19 139zM165 1183q2 45 8.5 96t26 95t54.5 73t95 29q37 0 74 -19 t71 -43l64 -42q30 -19 54 -19q20 0 34 8.5t23 24.5t14.5 39t9.5 51h111q-2 -45 -8.5 -96t-25.5 -95t-54 -73t-95 -29q-36 0 -72.5 19t-70.5 42l-66 43q-30 19 -55 19q-21 0 -35 -8.5t-22.5 -24.5t-13.5 -38.5t-9 -51.5h-112zM281 328q0 -77 29.5 -114.5t77.5 -37.5 q44 0 80.5 23t61.5 60.5t38.5 86.5t13.5 100v55l-118 -2q-37 -2 -70 -7.5t-58 -23t-40 -50.5t-15 -90z" />
<glyph unicode="&#xe4;" d="M41 306q0 96 27.5 161.5t75 106t111.5 59t136 19.5l191 4v55q0 59 -8.5 98.5t-25 64.5t-40.5 35.5t-55 10.5q-29 0 -51.5 -7t-39 -24.5t-26.5 -47t-14 -74.5l-241 14q10 71 36.5 129.5t72.5 101.5t114 66.5t159 23.5q83 0 147.5 -25t109.5 -74.5t69 -121.5t24 -167v-394 q0 -38 3 -68t10.5 -50.5t22 -31t37.5 -10.5q26 0 51 6v-152l-37 -11q-17 -5 -33 -8t-34.5 -5t-43.5 -2q-87 0 -128.5 52t-49.5 153h-5q-46 -101 -118 -157t-174 -56q-64 0 -114.5 21.5t-85.5 63t-54 102.5t-19 139zM228 1199v219h176v-219h-176zM281 328q0 -77 29.5 -114.5 t77.5 -37.5q44 0 80.5 23t61.5 60.5t38.5 86.5t13.5 100v55l-118 -2q-37 -2 -70 -7.5t-58 -23t-40 -50.5t-15 -90zM584 1199v219h178v-219h-178z" />
<glyph unicode="&#xe5;" d="M41 306q0 96 27.5 161.5t75 106t111.5 59t136 19.5l191 4v55q0 59 -8.5 98.5t-25 64.5t-40.5 35.5t-55 10.5q-29 0 -51.5 -7t-39 -24.5t-26.5 -47t-14 -74.5l-241 14q10 71 36.5 129.5t72.5 101.5t114 66.5t159 23.5q83 0 147.5 -25t109.5 -74.5t69 -121.5t24 -167v-394 q0 -38 3 -68t10.5 -50.5t22 -31t37.5 -10.5q26 0 51 6v-152l-37 -11q-17 -5 -33 -8t-34.5 -5t-43.5 -2q-87 0 -128.5 52t-49.5 153h-5q-46 -101 -118 -157t-174 -56q-64 0 -114.5 21.5t-85.5 63t-54 102.5t-19 139zM281 328q0 -77 29.5 -114.5t77.5 -37.5q44 0 80.5 23 t61.5 60.5t38.5 86.5t13.5 100v55l-118 -2q-37 -2 -70 -7.5t-58 -23t-40 -50.5t-15 -90zM298 1431q0 52 16.5 98.5t44.5 81t66.5 54.5t80.5 20q43 0 81 -20t66.5 -54.5t44.5 -81t16 -98.5q0 -53 -16 -99.5t-44.5 -81t-66.5 -54t-81 -19.5t-81 19.5t-66 54t-44.5 81 t-16.5 99.5zM404 1431q0 -27 7.5 -50.5t21.5 -40.5t33 -27t40 -10t40.5 10t33.5 27t22 40.5t8 50.5q0 26 -8 48.5t-22 39.5t-33.5 27t-40.5 10t-40 -10t-33 -27t-21.5 -39.5t-7.5 -48.5z" />
<glyph unicode="&#xe6;" horiz-adv-x="1493" d="M54 306q0 96 28.5 161t77.5 105.5t114.5 59t140.5 20.5l197 4v55q0 59 -9 98.5t-27 64.5t-43.5 35.5t-58.5 10.5q-30 0 -54.5 -7t-41.5 -24.5t-28 -47t-15 -74.5l-241 14q10 71 36.5 129.5t73.5 101.5t115 66.5t161 23.5q178 0 273 -107q57 57 128 82t150 25 q105 0 179 -44.5t121.5 -124.5t69.5 -191.5t22 -246.5v-19h-569q0 -65 11 -121.5t33.5 -98t57 -65t83.5 -23.5q61 0 99.5 31.5t54.5 97.5l217 -23q-15 -46 -41.5 -98t-70.5 -95.5t-110.5 -72t-160.5 -28.5q-124 0 -214 56.5t-142 172.5q-24 -50 -55 -92t-72.5 -72.5 t-93.5 -47.5t-117 -17t-116.5 21.5t-87.5 63t-55.5 102.5t-19.5 139zM294 328q0 -77 31 -114.5t82 -37.5q47 0 84.5 24.5t64.5 64t41.5 90t14.5 101.5v45l-125 -2q-39 -2 -74 -7.5t-61.5 -23t-42 -50.5t-15.5 -90zM856 663h344q-7 131 -52 196.5t-121 65.5 q-35 0 -65.5 -14.5t-53.5 -46t-36.5 -81.5t-15.5 -120z" />
<glyph unicode="&#xe7;" d="M66 535q0 135 28.5 240.5t82.5 178t133.5 110.5t179.5 38q86 0 153 -28t115.5 -76.5t78.5 -114.5t41 -142l-232 -14q-10 83 -49 132.5t-112 49.5q-93 0 -135 -93t-42 -270q0 -374 181 -374q66 0 110 50.5t55 150.5l231 -13q-8 -75 -37.5 -143.5t-79 -121t-120 -84 t-161.5 -31.5q-106 0 -185 40t-131.5 113t-78.5 175.5t-26 226.5zM370 -301q20 -5 37.5 -6t31.5 -1q61 0 86.5 18.5t25.5 50.5q0 35 -23 52t-77 17h-21q-10 0 -22 -2l51 172h117l-27 -82q77 -5 114.5 -46t37.5 -107q0 -39 -13 -74t-42 -60.5t-76.5 -40.5t-117.5 -15 q-37 0 -82 6v118z" />
<glyph unicode="&#xe8;" d="M66 546q0 155 34 261t91.5 171.5t133 94.5t159.5 29q105 0 179 -44.5t121.5 -124.5t70 -191.5t22.5 -246.5v-8h-569q0 -68 9.5 -126.5t31.5 -101t57.5 -67t85.5 -24.5q61 0 99.5 31.5t54.5 97.5l217 -23q-15 -46 -41.5 -98t-70.5 -95.5t-110 -72t-160 -28.5 q-96 0 -173 34.5t-131 105t-82.5 177t-28.5 249.5zM275 1459v43h212l205 -288v-31h-138zM309 663h345q-7 131 -52 196.5t-121 65.5q-35 0 -66 -14.5t-53.5 -46t-36.5 -81.5t-16 -120z" />
<glyph unicode="&#xe9;" d="M66 546q0 155 34 261t91.5 171.5t133 94.5t159.5 29q105 0 179 -44.5t121.5 -124.5t70 -191.5t22.5 -246.5v-8h-569q0 -68 9.5 -126.5t31.5 -101t57.5 -67t85.5 -24.5q61 0 99.5 31.5t54.5 97.5l217 -23q-15 -46 -41.5 -98t-70.5 -95.5t-110 -72t-160 -28.5 q-96 0 -173 34.5t-131 105t-82.5 177t-28.5 249.5zM309 663h345q-7 131 -52 196.5t-121 65.5q-35 0 -66 -14.5t-53.5 -46t-36.5 -81.5t-16 -120zM402 1183v31l207 288h211v-43l-278 -276h-140z" />
<glyph unicode="&#xea;" d="M66 546q0 155 34 261t91.5 171.5t133 94.5t159.5 29q105 0 179 -44.5t121.5 -124.5t70 -191.5t22.5 -246.5v-8h-569q0 -68 9.5 -126.5t31.5 -101t57.5 -67t85.5 -24.5q61 0 99.5 31.5t54.5 97.5l217 -23q-15 -46 -41.5 -98t-70.5 -95.5t-110 -72t-160 -28.5 q-96 0 -173 34.5t-131 105t-82.5 177t-28.5 249.5zM223 1183v28l211 318h188l205 -318v-28h-130l-167 192h-3l-173 -192h-131zM309 663h345q-7 131 -52 196.5t-121 65.5q-35 0 -66 -14.5t-53.5 -46t-36.5 -81.5t-16 -120z" />
<glyph unicode="&#xeb;" d="M66 546q0 155 34 261t91.5 171.5t133 94.5t159.5 29q105 0 179 -44.5t121.5 -124.5t70 -191.5t22.5 -246.5v-8h-569q0 -68 9.5 -126.5t31.5 -101t57.5 -67t85.5 -24.5q61 0 99.5 31.5t54.5 97.5l217 -23q-15 -46 -41.5 -98t-70.5 -95.5t-110 -72t-160 -28.5 q-96 0 -173 34.5t-131 105t-82.5 177t-28.5 249.5zM257 1199v219h176v-219h-176zM309 663h345q-7 131 -52 196.5t-121 65.5q-35 0 -66 -14.5t-53.5 -46t-36.5 -81.5t-16 -120zM613 1199v219h178v-219h-178z" />
<glyph unicode="&#xec;" horiz-adv-x="467" d="M-76 1459v43h212l205 -288v-31h-138zM119 0v1082h231v-1082h-231z" />
<glyph unicode="&#xed;" horiz-adv-x="467" d="M98 1183v31l207 288h211v-43l-278 -276h-140zM119 0v1082h231v-1082h-231z" />
<glyph unicode="&#xee;" horiz-adv-x="467" d="M-83 1183v28l211 318h188l205 -318v-28h-130l-167 192h-3l-173 -192h-131zM119 0v1082h231v-1082h-231z" />
<glyph unicode="&#xef;" horiz-adv-x="467" d="M-43 1199v219h176v-219h-176zM119 0v1082h231v-1082h-231zM313 1199v219h178v-219h-178z" />
<glyph unicode="&#xf0;" horiz-adv-x="1026" d="M66 479q0 107 27.5 197.5t83 156.5t140 103t197.5 37q38 0 75 -8.5t59 -23.5q-28 72 -56.5 127t-66.5 108l-240 -122v184l137 70q-47 46 -102 90l-110 86h240q33 -20 66.5 -43t64.5 -51l220 113v-188l-99 -49q57 -70 104.5 -150.5t82 -171t53 -191.5t18.5 -212v-4 q0 -122 -27.5 -224t-84 -175.5t-141 -114.5t-196.5 -41q-108 0 -191 36.5t-139.5 102t-85.5 157t-29 201.5zM308 477q0 -80 14 -137.5t40.5 -95t63.5 -55t81 -17.5q103 0 157.5 72t54.5 233q0 160 -51.5 231.5t-149.5 71.5q-102 0 -156 -73t-54 -230z" />
<glyph unicode="&#xf1;" horiz-adv-x="1026" d="M111 1082h220q2 -12 3 -38.5t3 -58.5t3 -64t1 -54h3q47 124 117.5 180t168.5 56q80 0 135.5 -32t90.5 -88t50.5 -132t15.5 -164v-687h-230v607q0 63 -8 115.5t-27 90t-49.5 58.5t-73.5 21q-42 0 -76 -22.5t-58.5 -64t-38 -99t-13.5 -126.5v-580h-231v840q0 35 -0.5 72 t-1.5 70.5t-2 60t-2 39.5zM255 1183q2 45 8.5 96t26 95t54.5 73t95 29q37 0 74 -19t71 -43l64 -42q30 -19 54 -19q20 0 34 8.5t23 24.5t14.5 39t9.5 51h111q-2 -45 -8.5 -96t-25.5 -95t-54 -73t-95 -29q-36 0 -72.5 19t-70.5 42l-66 43q-30 19 -55 19q-21 0 -35 -8.5 t-22.5 -24.5t-13.5 -38.5t-9 -51.5h-112z" />
<glyph unicode="&#xf2;" horiz-adv-x="1026" d="M66 542q0 121 27.5 223.5t83 177.5t140 117t197.5 42q120 0 204.5 -42t138 -116.5t78.5 -177t25 -224.5q0 -124 -28 -227t-84.5 -177.5t-141 -116t-197.5 -41.5q-108 0 -191 41t-139 115t-84.5 177.5t-28.5 228.5zM308 542q0 -97 14 -167t40.5 -115t63.5 -66.5t81 -21.5 q51 0 90.5 21.5t66.5 66.5t41 115t14 167q0 193 -51.5 280t-149.5 87q-102 0 -156 -88t-54 -279zM316 1459v43h212l205 -288v-31h-138z" />
<glyph unicode="&#xf3;" horiz-adv-x="1026" d="M66 542q0 121 27.5 223.5t83 177.5t140 117t197.5 42q120 0 204.5 -42t138 -116.5t78.5 -177t25 -224.5q0 -124 -28 -227t-84.5 -177.5t-141 -116t-197.5 -41.5q-108 0 -191 41t-139 115t-84.5 177.5t-28.5 228.5zM308 542q0 -97 14 -167t40.5 -115t63.5 -66.5t81 -21.5 q51 0 90.5 21.5t66.5 66.5t41 115t14 167q0 193 -51.5 280t-149.5 87q-102 0 -156 -88t-54 -279zM449 1183v31l207 288h211v-43l-278 -276h-140z" />
<glyph unicode="&#xf4;" horiz-adv-x="1026" d="M66 542q0 121 27.5 223.5t83 177.5t140 117t197.5 42q120 0 204.5 -42t138 -116.5t78.5 -177t25 -224.5q0 -124 -28 -227t-84.5 -177.5t-141 -116t-197.5 -41.5q-108 0 -191 41t-139 115t-84.5 177.5t-28.5 228.5zM256 1183v28l211 318h188l205 -318v-28h-130l-167 192 h-3l-173 -192h-131zM308 542q0 -97 14 -167t40.5 -115t63.5 -66.5t81 -21.5q51 0 90.5 21.5t66.5 66.5t41 115t14 167q0 193 -51.5 280t-149.5 87q-102 0 -156 -88t-54 -279z" />
<glyph unicode="&#xf5;" horiz-adv-x="1026" d="M66 542q0 121 27.5 223.5t83 177.5t140 117t197.5 42q120 0 204.5 -42t138 -116.5t78.5 -177t25 -224.5q0 -124 -28 -227t-84.5 -177.5t-141 -116t-197.5 -41.5q-108 0 -191 41t-139 115t-84.5 177.5t-28.5 228.5zM237 1183q2 45 8.5 96t26 95t54.5 73t95 29q37 0 74 -19 t71 -43l64 -42q30 -19 54 -19q20 0 34 8.5t23 24.5t14.5 39t9.5 51h111q-2 -45 -8.5 -96t-25.5 -95t-54 -73t-95 -29q-36 0 -72.5 19t-70.5 42l-66 43q-30 19 -55 19q-21 0 -35 -8.5t-22.5 -24.5t-13.5 -38.5t-9 -51.5h-112zM308 542q0 -97 14 -167t40.5 -115t63.5 -66.5 t81 -21.5q51 0 90.5 21.5t66.5 66.5t41 115t14 167q0 193 -51.5 280t-149.5 87q-102 0 -156 -88t-54 -279z" />
<glyph unicode="&#xf6;" horiz-adv-x="1026" d="M66 542q0 121 27.5 223.5t83 177.5t140 117t197.5 42q120 0 204.5 -42t138 -116.5t78.5 -177t25 -224.5q0 -124 -28 -227t-84.5 -177.5t-141 -116t-197.5 -41.5q-108 0 -191 41t-139 115t-84.5 177.5t-28.5 228.5zM297 1199v219h176v-219h-176zM308 542q0 -97 14 -167 t40.5 -115t63.5 -66.5t81 -21.5q51 0 90.5 21.5t66.5 66.5t41 115t14 167q0 193 -51.5 280t-149.5 87q-102 0 -156 -88t-54 -279zM653 1199v219h178v-219h-178z" />
<glyph unicode="&#xf7;" horiz-adv-x="1124" d="M49 569v224h1027v-224h-1027zM442 170v233h238v-233h-238zM442 961v233h238v-233h-238z" />
<glyph unicode="&#xf8;" horiz-adv-x="1026" d="M1 -55l161 215q-48 73 -72 169.5t-24 212.5q0 121 27.5 223.5t83 177.5t140 117t197.5 42q85 0 152 -21.5t119 -61.5l83 114h151l-151 -206q48 -74 70 -172t22 -213q0 -124 -28 -227t-84.5 -177.5t-141 -116t-197.5 -41.5q-81 0 -147 23t-118 66l-93 -124h-150zM308 542 q0 -92 14 -163l333 461q-49 69 -137 69q-102 0 -156 -88t-54 -279zM372 244q26 -37 60 -54.5t75 -17.5q51 0 90.5 21.5t66.5 66.5t41 115t14 167q0 47 -3 87.5t-10 74.5z" />
<glyph unicode="&#xf9;" horiz-adv-x="1026" d="M104 395v687h231v-607q0 -63 8 -115.5t27 -90t49 -58.5t73 -21q42 0 76 22.5t58.5 64t38 99t13.5 126.5v580h231v-840q0 -34 0.5 -71.5t1.5 -71t2 -60t2 -39.5h-220q-1 12 -2.5 38.5t-3 58.5t-2.5 64t-1 54h-4q-46 -123 -117 -179t-169 -56q-80 0 -135.5 32t-90.5 87.5 t-50.5 131.5t-15.5 164zM271 1459v43h212l205 -288v-31h-138z" />
<glyph unicode="&#xfa;" horiz-adv-x="1026" d="M104 395v687h231v-607q0 -63 8 -115.5t27 -90t49 -58.5t73 -21q42 0 76 22.5t58.5 64t38 99t13.5 126.5v580h231v-840q0 -34 0.5 -71.5t1.5 -71t2 -60t2 -39.5h-220q-1 12 -2.5 38.5t-3 58.5t-2.5 64t-1 54h-4q-46 -123 -117 -179t-169 -56q-80 0 -135.5 32t-90.5 87.5 t-50.5 131.5t-15.5 164zM447 1183v31l207 288h211v-43l-278 -276h-140z" />
<glyph unicode="&#xfb;" horiz-adv-x="1026" d="M104 395v687h231v-607q0 -63 8 -115.5t27 -90t49 -58.5t73 -21q42 0 76 22.5t58.5 64t38 99t13.5 126.5v580h231v-840q0 -34 0.5 -71.5t1.5 -71t2 -60t2 -39.5h-220q-1 12 -2.5 38.5t-3 58.5t-2.5 64t-1 54h-4q-46 -123 -117 -179t-169 -56q-80 0 -135.5 32t-90.5 87.5 t-50.5 131.5t-15.5 164zM252 1183v28l211 318h188l205 -318v-28h-130l-167 192h-3l-173 -192h-131z" />
<glyph unicode="&#xfc;" horiz-adv-x="1026" d="M104 395v687h231v-607q0 -63 8 -115.5t27 -90t49 -58.5t73 -21q42 0 76 22.5t58.5 64t38 99t13.5 126.5v580h231v-840q0 -34 0.5 -71.5t1.5 -71t2 -60t2 -39.5h-220q-1 12 -2.5 38.5t-3 58.5t-2.5 64t-1 54h-4q-46 -123 -117 -179t-169 -56q-80 0 -135.5 32t-90.5 87.5 t-50.5 131.5t-15.5 164zM295 1199v219h176v-219h-176zM651 1199v219h178v-219h-178z" />
<glyph unicode="&#xfd;" d="M13 1082h244l139 -507l10 -37l16 -60l18 -70l17 -70q8 -34 13.5 -60t8.5 -37q2 11 7 37l13 58l15 68l16 69l13 59q6 27 10 39l131 511h241l-351 -1139q-32 -95 -65 -164t-72.5 -114.5t-89 -67.5t-115.5 -22q-36 0 -73.5 3t-71.5 10v200q16 -3 39.5 -5.5t39.5 -2.5 q34 0 60.5 9t47.5 30t39.5 56t35.5 88l15 48zM397 1183v31l207 288h211v-43l-278 -276h-140z" />
<glyph unicode="&#xfe;" horiz-adv-x="1026" d="M117 -425v1909h231v-462q0 -30 -0.5 -60t-1.5 -54l-2 -54h4q42 107 115 153t169 46q84 0 145.5 -40t101.5 -111t59 -168.5t19 -213.5q0 -117 -20 -216t-62 -171t-106.5 -112.5t-151.5 -40.5q-39 0 -78.5 10t-74.5 32.5t-65 59t-51 90.5h-5q1 -5 1.5 -25t1.5 -46.5 t1.5 -56t0.5 -54.5v-415h-231zM344 512q0 -99 16.5 -164.5t43.5 -104.5t60.5 -55t67.5 -16q89 0 137 82.5t48 265.5q0 172 -45.5 255t-137.5 83q-34 0 -68.5 -16t-61 -55.5t-43.5 -106.5t-17 -168z" />
<glyph unicode="&#xff;" d="M13 1082h244l139 -507l10 -37l16 -60l18 -70l17 -70q8 -34 13.5 -60t8.5 -37q2 11 7 37l13 58l15 68l16 69l13 59q6 27 10 39l131 511h241l-351 -1139q-32 -95 -65 -164t-72.5 -114.5t-89 -67.5t-115.5 -22q-36 0 -73.5 3t-71.5 10v200q16 -3 39.5 -5.5t39.5 -2.5 q34 0 60.5 9t47.5 30t39.5 56t35.5 88l15 48zM254 1199v219h176v-219h-176zM610 1199v219h178v-219h-178z" />
<glyph unicode="&#x152;" horiz-adv-x="1679" d="M69 711q0 165 38 296.5t112.5 223t183 140.5t249.5 49q46 0 86.5 -3.5t79.5 -7.5h762v-227h-547v-355h497v-221h-497v-379h580v-227h-800q-31 -2 -75 -6t-88 -4q-145 0 -253.5 53t-181.5 148.5t-109.5 228t-36.5 291.5zM312 711q0 -110 22 -200t65 -154.5t106 -99.5 t145 -35q38 0 73 3t66 17v927q-25 8 -63 13.5t-74 5.5q-84 0 -148 -33t-106.5 -95t-64 -150t-21.5 -199z" />
<glyph unicode="&#x153;" horiz-adv-x="1585" d="M66 542q0 121 27.5 223.5t83 177.5t140 117t197.5 42q110 0 189.5 -40t133.5 -113q58 81 136 117t165 36q105 0 179 -44.5t122 -124.5t70 -191.5t22 -246.5v-19h-569q0 -65 10.5 -121.5t33 -98t57.5 -65t83 -23.5q61 0 99.5 31.5t54.5 97.5l218 -23q-15 -46 -41.5 -98 t-71 -95.5t-110.5 -72t-160 -28.5q-97 0 -173 39.5t-130 119.5q-57 -76 -137 -117.5t-186 -41.5q-108 0 -191 41t-139 115t-84.5 177.5t-28.5 228.5zM307 542q0 -97 14.5 -167t41 -115t63 -66.5t81.5 -21.5q51 0 90.5 21.5t66.5 66.5t41 115t14 167q0 193 -51.5 280 t-150.5 87q-102 0 -156 -88t-54 -279zM963 663h345q-7 131 -52 196.5t-121 65.5q-35 0 -66 -14.5t-53.5 -46t-36.5 -81.5t-16 -120z" />
<glyph unicode="&#x178;" horiz-adv-x="1120" d="M29 1409h253l277 -596l281 596h253l-412 -831v-578h-241v578zM350 1530v219h159v-219h-159zM723 1530v219h161v-219h-161z" />
<glyph unicode="&#x2c6;" horiz-adv-x="559" d="M0 1183v28l211 318h188l205 -318v-28h-130l-167 192h-3l-173 -192h-131z" />
<glyph unicode="&#x2dc;" horiz-adv-x="559" d="M-11 1183q2 45 8.5 96t26 95t54.5 73t95 29q37 0 74 -19t71 -43l64 -42q30 -19 54 -19q20 0 34 8.5t23 24.5t14.5 39t9.5 51h111q-2 -45 -8.5 -96t-25.5 -95t-54 -73t-95 -29q-36 0 -72.5 19t-70.5 42l-66 43q-30 19 -55 19q-21 0 -35 -8.5t-22.5 -24.5t-13.5 -38.5 t-9 -51.5h-112z" />
<glyph unicode="&#x2000;" horiz-adv-x="917" />
<glyph unicode="&#x2001;" horiz-adv-x="1835" />
<glyph unicode="&#x2002;" horiz-adv-x="917" />
<glyph unicode="&#x2003;" horiz-adv-x="1835" />
<glyph unicode="&#x2004;" horiz-adv-x="611" />
<glyph unicode="&#x2005;" horiz-adv-x="458" />
<glyph unicode="&#x2006;" horiz-adv-x="305" />
<glyph unicode="&#x2007;" horiz-adv-x="305" />
<glyph unicode="&#x2008;" horiz-adv-x="229" />
<glyph unicode="&#x2009;" horiz-adv-x="367" />
<glyph unicode="&#x200a;" horiz-adv-x="101" />
<glyph unicode="&#x2010;" horiz-adv-x="559" d="M66 409v244h426v-244h-426z" />
<glyph unicode="&#x2011;" horiz-adv-x="559" d="M66 409v244h426v-244h-426z" />
<glyph unicode="&#x2012;" horiz-adv-x="559" d="M66 409v244h426v-244h-426z" />
<glyph unicode="&#x2013;" d="M51 448v203h831v-203h-831z" />
<glyph unicode="&#x2014;" horiz-adv-x="1679" d="M0 448v203h1679v-203h-1679z" />
<glyph unicode="&#x2018;" horiz-adv-x="467" d="M114 831v195q0 67 6 122t17.5 101t28 85.5t37.5 74.5h150q-23 -35 -42.5 -74t-34 -80t-23 -82t-8.5 -81h105v-261h-236z" />
<glyph unicode="&#x2019;" horiz-adv-x="467" d="M114 831q23 36 42.5 75t34 79.5t23 82t8.5 81.5h-105v260h236v-195q0 -67 -6 -121.5t-17.5 -101t-28 -85.5t-38.5 -75h-149z" />
<glyph unicode="&#x201a;" horiz-adv-x="467" d="M113 -317q24 35 44 74t35 80t23 82t8 81h-106v260h237v-194q0 -67 -6.5 -122t-18 -101.5t-27.5 -85.5t-37 -74h-152z" />
<glyph unicode="&#x201c;" horiz-adv-x="840" d="M124 831v195q0 67 6 122t17.5 101t28 85.5t36.5 74.5h151q-23 -35 -43 -74t-34 -80t-22.5 -82t-8.5 -81h104v-261h-235zM475 831v195q0 67 6 122t18 101t29 85.5t38 74.5h149q-23 -35 -42.5 -74t-34 -80t-22.5 -82t-8 -81h104v-261h-237z" />
<glyph unicode="&#x201d;" horiz-adv-x="840" d="M124 831q23 36 42.5 75t34 79.5t22.5 82t8 81.5h-104v260h236v-192q0 -68 -6 -123.5t-17.5 -102t-28.5 -85.5t-38 -75h-149zM475 831q47 72 78 154.5t31 163.5h-104v260h235v-192q0 -68 -6 -123.5t-17.5 -102t-28 -85.5t-37.5 -75h-151z" />
<glyph unicode="&#x201e;" horiz-adv-x="840" d="M124 -317q23 35 42.5 74t34 80t22.5 82t8 81h-104v260h236v-194q0 -67 -6 -122t-17.5 -101.5t-28.5 -85.5t-38 -74h-149zM475 -317q24 35 43.5 74t34.5 80t23 82t8 81h-104v260h235v-194q0 -67 -6 -122t-17.5 -101.5t-28 -85.5t-37.5 -74h-151z" />
<glyph unicode="&#x2022;" horiz-adv-x="588" d="M53 676q0 61 19 114.5t51.5 93t76 62.5t92.5 23q50 0 94 -23t76.5 -62.5t52 -93t19.5 -114.5t-19.5 -114.5t-52 -93.5t-76.5 -63.5t-94 -23.5q-49 0 -92.5 23.5t-76 63.5t-51.5 93.5t-19 114.5z" />
<glyph unicode="&#x2026;" horiz-adv-x="1679" d="M184 0v305h237v-305h-237zM721 0v305h235v-305h-235zM1253 0v305h236v-305h-236z" />
<glyph unicode="&#x202f;" horiz-adv-x="367" />
<glyph unicode="&#x2039;" horiz-adv-x="559" d="M75 502v71l212 367h193v-37l-208 -366l210 -361v-35h-195z" />
<glyph unicode="&#x203a;" horiz-adv-x="559" d="M76 141v35l210 361l-208 366v37h195l210 -367v-71l-210 -361h-197z" />
<glyph unicode="&#x205f;" horiz-adv-x="458" />
<glyph unicode="&#x20ac;" d="M8 510l33 149h63q-1 5 -1.5 20t-0.5 31q0 17 0.5 34.5t1.5 21.5h-96l33 149h71q12 123 43.5 219t83.5 162t126 100t171 34q83 0 145.5 -27.5t106.5 -76t71 -114t37 -141.5l-229 -16q-8 74 -42.5 115t-95.5 41q-39 0 -69 -16t-52.5 -51.5t-37 -91.5t-21.5 -137h268 l-23 -149h-249q-1 -11 -1 -26v-30q0 -14 0.5 -26.5t1.5 -24.5h279l-25 -149h-249q5 -67 17 -124t35 -98.5t56.5 -65t80.5 -23.5q59 0 94 46t43 128l227 -16q-11 -80 -36 -149t-69.5 -119.5t-109 -79.5t-153.5 -29q-102 0 -177 39t-126 109.5t-79.5 168t-39.5 213.5h-106z " />
<glyph unicode="&#x2122;" horiz-adv-x="1679" d="M102 1270v139h553v-139h-206v-502h-147v502h-200zM732 768v641h203l114 -301l17 -48q10 -27 18 -52l19 -60l19 60l17 52l16 48l118 301h199v-641h-135v340q0 14 1 42l2 57q2 34 4 73l-25 -75l-21 -61q-10 -31 -17 -48l-126 -328h-107l-122 328l-18 50l-21 60l-25 74 q2 -41 4 -76q2 -30 2 -58v-38v-340h-136z" />
<glyph unicode="&#x25fc;" horiz-adv-x="1080" d="M0 0v1080h1080v-1080h-1080z" />
</font>
</defs>
</svg>
