<?xml version="1.0" standalone="no"?>
<!DOCTYPE svg PUBLIC "-//W3C//DTD SVG 1.1//EN" "http://www.w3.org/Graphics/SVG/1.1/DTD/svg11.dtd" >
<svg xmlns="http://www.w3.org/2000/svg">
<metadata></metadata>
<defs>
<font id="liberation_serifbold_italic" horiz-adv-x="1024" >
<font-face units-per-em="2048" ascent="1638" descent="-410" />
<missing-glyph horiz-adv-x="500" />
<glyph horiz-adv-x="0" />
<glyph unicode="&#xd;" horiz-adv-x="682" />
<glyph unicode="!" horiz-adv-x="797" d="M156 137q0 34 13 64.5t35.5 53t52.5 35.5t65 13q34 0 64.5 -13t53 -35.5t35.5 -53t13 -64.5q0 -35 -13 -65t-35.5 -52.5t-53 -35.5t-64.5 -13q-35 0 -65 13t-52.5 35.5t-35.5 52.5t-13 65zM320 420l60 921h299l-264 -921h-95z" />
<glyph unicode="&#x22;" horiz-adv-x="1137" d="M368 860l9 481h238l-163 -481h-84zM754 860l9 481h238l-163 -481h-84z" />
<glyph unicode="#" d="M-5 411l22 123h178l103 287h-231l22 123h254l143 397h152l-144 -397h262l144 397h151l-144 -397h152l-22 -123h-174l-101 -287h225l-22 -123h-252l-148 -411h-151l148 411h-262l-146 -411h-154l148 411h-153zM346 534h262l104 287h-263z" />
<glyph unicode="$" d="M-24 51l64 360h88l1 -215q32 -47 91.5 -80.5t150.5 -34.5l97 515q-54 28 -109.5 60.5t-99.5 76.5t-72 103.5t-28 142.5q0 183 113.5 275.5t338.5 100.5l24 128h103l-25 -129q71 -4 139.5 -14.5t129.5 -26.5l-56 -319h-89l-7 196q-28 21 -61.5 36t-75.5 21l-82 -437 q55 -31 112 -66t102.5 -80t74.5 -104t29 -137q0 -203 -120.5 -312.5t-353.5 -126.5l-26 -140h-102l25 136q-126 2 -219.5 23.5t-156.5 47.5zM399 1047q0 -65 33 -110t85 -81l75 394q-54 -5 -90.5 -23.5t-59.5 -46.5t-33 -62.5t-10 -70.5zM476 91q54 12 93 37t65 59 t38.5 74.5t12.5 84.5q0 37 -9 67.5t-25.5 55.5t-39 45.5t-48.5 38.5z" />
<glyph unicode="%" horiz-adv-x="1706" d="M132 882q0 103 25.5 190.5t75.5 152t124 101t171 36.5q134 0 203.5 -64.5t69.5 -192.5q0 -26 -3 -53t-8 -57q-16 -90 -47 -159t-79 -116.5t-113.5 -72t-149.5 -24.5q-134 0 -201.5 65.5t-67.5 193.5zM202 -20l1192 1382h151l-1193 -1382h-150zM323 853q0 -27 3.5 -52 t13 -43.5t25.5 -30t40 -11.5q65 0 115.5 73.5t73.5 205.5q12 67 12 120q0 75 -20 114t-68 39q-63 0 -110 -71t-70 -202q-5 -29 -10 -66.5t-5 -75.5zM932 232q0 103 25.5 190.5t75.5 152t124 101t171 36.5q134 0 203.5 -64.5t69.5 -192.5q0 -26 -3 -53t-8 -57 q-16 -90 -47 -159t-79 -116.5t-113.5 -72t-149.5 -24.5q-134 0 -201.5 65.5t-67.5 193.5zM1123 203q0 -27 3.5 -52t13 -43.5t25.5 -30t40 -11.5q65 0 115.5 73.5t73.5 205.5q12 67 12 120q0 75 -20 114t-68 39q-63 0 -110 -71t-70 -202q-5 -29 -10 -66.5t-5 -75.5z" />
<glyph unicode="&#x26;" horiz-adv-x="1593" d="M50 347q0 96 39 163.5t98 114t128.5 76.5t131.5 52q-33 52 -59.5 122.5t-26.5 161.5q0 73 26.5 133t76 102.5t121 65.5t162.5 23q95 0 162 -22.5t109 -59t61.5 -83t19.5 -94.5q0 -79 -31.5 -134t-82 -94.5t-114 -68t-126.5 -53.5l312 -351q54 83 89 160.5t50 155.5 l-116 26l11 64h477l-11 -64l-125 -26q-18 -43 -45 -96.5t-61 -111.5t-75.5 -116.5t-89.5 -110.5l173 -194l122 -25l-11 -63h-364l-101 120q-42 -28 -88.5 -53.5t-102 -44.5t-123 -30.5t-151.5 -11.5q-123 0 -211 26.5t-144.5 74.5t-83 115.5t-26.5 150.5zM316 356 q0 -60 17.5 -106.5t48.5 -78t73 -47.5t92 -16q103 0 188.5 32.5t150.5 87.5l-369 430q-35 -18 -71 -40.5t-65 -57t-47 -84t-18 -120.5zM595 1071q0 -58 21.5 -116.5t58.5 -111.5q43 20 80 42t64.5 50.5t43.5 65.5t16 87q0 84 -37.5 130t-94.5 46q-74 0 -113 -52t-39 -141z " />
<glyph unicode="'" horiz-adv-x="569" d="M282 860l9 481h238l-163 -481h-84z" />
<glyph unicode="(" horiz-adv-x="682" d="M101 218q0 66 7.5 140t21.5 157q33 188 88 326.5t136.5 243.5t193 185t257.5 151l-22 -124q-94 -63 -161 -154t-114.5 -199t-79 -228t-52.5 -242q-17 -92 -27 -181t-10 -173q0 -140 36 -256.5t125 -195.5l-22 -104q-95 55 -165.5 120t-117.5 144t-70.5 175t-23.5 215z " />
<glyph unicode=")" horiz-adv-x="682" d="M-153 -436l21 124q93 63 160.5 154t115.5 199.5t79.5 229.5t53.5 243q17 93 27 182t10 174q0 69 -8.5 133t-27 120.5t-49 105.5t-74.5 88l18 104q95 -56 166 -120.5t118 -143t70.5 -174.5t23.5 -214q0 -128 -29 -294q-33 -189 -88.5 -328.5t-137 -245t-193 -186 t-256.5 -151.5z" />
<glyph unicode="*" d="M163 944l317 39l-289 137l126 195l247 -275l-19 324l230 -36l-122 -302l320 179l61 -221l-322 -38l295 -134l-127 -193l-248 270l22 -324l-230 37l119 305l-320 -188z" />
<glyph unicode="+" horiz-adv-x="1167" d="M125 608v143h404v406h143v-406h405v-143h-405v-405h-143v405h-404z" />
<glyph unicode="," horiz-adv-x="512" d="M-44 -225q51 14 86 38t56.5 51t30.5 53t9 44q0 20 -10.5 33.5t-26 24.5t-34 22.5t-34 27.5t-26 39.5t-10.5 59.5q0 65 45 99t114 34q38 0 72 -12.5t59.5 -37.5t40.5 -61t15 -84q0 -71 -21.5 -135.5t-68 -119.5t-120 -98t-177.5 -70v92z" />
<glyph unicode="." horiz-adv-x="512" d="M15 137q0 34 13 64.5t35.5 53t52.5 35.5t65 13q34 0 64.5 -13t53 -35.5t35.5 -53t13 -64.5q0 -35 -13 -65t-35.5 -52.5t-53 -35.5t-64.5 -13q-35 0 -65 13t-52.5 35.5t-35.5 52.5t-13 65z" />
<glyph unicode="/" horiz-adv-x="569" d="M-124 -20l710 1369h140l-710 -1369h-140z" />
<glyph unicode="0" d="M71 399q0 59 6 130.5t19 146.5q30 166 78 294t115.5 215t155.5 132t198 45q166 0 255.5 -100t89.5 -311q0 -58 -6.5 -130.5t-19.5 -144.5q-30 -168 -77.5 -298t-115.5 -218.5t-157 -134t-202 -45.5q-165 0 -252 103.5t-87 315.5zM316 367q0 -61 6 -112t20 -87.5t36.5 -57 t56.5 -20.5q52 0 92 36t72.5 106.5t58 175t48.5 241.5q7 45 13 90t10.5 87t7.5 78.5t4 65.5q0 138 -27.5 209.5t-96.5 71.5q-51 0 -91 -37.5t-72 -109.5t-58 -178t-48 -243q-16 -98 -24 -172.5t-8 -143.5z" />
<glyph unicode="1" d="M48 0l15 86l246 24l177 1006l-253 -71l15 85l417 222h132l-219 -1242l239 -24l-15 -86h-754z" />
<glyph unicode="2" d="M-25 0l33 189q149 115 276 225t219.5 216t145 210t52.5 209q0 108 -50 156.5t-131 48.5q-48 0 -88 -14.5t-71 -37.5l-77 -194h-87l54 305q84 18 162.5 30.5t168.5 12.5q97 0 170.5 -20.5t123.5 -58.5t75.5 -91t25.5 -119q0 -87 -29 -165.5t-80.5 -151t-124 -141 t-160 -135t-186.5 -133t-205 -135.5h672l-39 -206h-850z" />
<glyph unicode="3" d="M-16 20l45 325h92l14 -215q13 -11 38 -19.5t54 -15.5t58.5 -10.5t50.5 -3.5q138 0 215 79t77 234q0 115 -49.5 171.5t-146.5 67.5l-115 7l22 121l113 8q64 4 109.5 26t74.5 58.5t42 86.5t13 111q0 101 -48 152t-133 51q-46 0 -86.5 -14.5t-69.5 -37.5l-77 -194h-87 l54 305q36 9 72.5 17t76 14t84 9t97.5 3q94 0 168 -20.5t124 -58t76.5 -91.5t26.5 -121q0 -74 -20.5 -135t-62.5 -107.5t-105.5 -77t-149.5 -43.5q63 -10 114 -35.5t86.5 -65t55 -91.5t19.5 -113q0 -106 -43 -184.5t-118.5 -130t-177.5 -77t-220 -25.5q-231 0 -363 40z" />
<glyph unicode="4" d="M-32 275l28 153l763 920h203l-157 -888h157l-33 -185h-157l-47 -275h-249l47 275h-555zM171 460h385l69 386q5 27 14.5 66.5t18.5 76.5q11 43 23 88z" />
<glyph unicode="5" d="M23 20l45 325h92l14 -215q28 -23 78 -36t102 -13q73 0 126.5 26.5t89 74.5t52.5 115t17 148q0 51 -9.5 95t-32.5 77t-61 51.5t-94 18.5q-28 0 -55.5 -4t-53 -9.5t-47 -12.5t-36.5 -13h-93l122 693h692l-36 -203h-566l-63 -365q18 5 38.5 9.5t45.5 8t56 5.5t70 2 q101 0 176 -24.5t124 -70t73 -110t24 -143.5q0 -113 -38.5 -200.5t-111.5 -147.5t-180 -91t-243 -31q-55 0 -98.5 3t-80 8.5t-70 13t-68.5 15.5z" />
<glyph unicode="6" d="M70 446q0 125 24.5 241.5t68.5 217.5t105.5 184t136 142.5t160 92t177.5 32.5q82 0 155 -13t127 -30l-54 -305h-87l-9 194q-31 25 -67 38.5t-74 13.5q-70 0 -129 -40t-106 -109t-82 -162.5t-56 -200.5q55 29 122 51t142 22q81 0 141.5 -24.5t100 -68.5t59 -105t19.5 -134 q0 -104 -32 -195.5t-93.5 -159.5t-152 -108t-207.5 -40q-94 0 -166.5 31t-122 91t-75 146.5t-25.5 197.5zM329 415q0 -97 12.5 -161.5t34 -102.5t49 -54t57.5 -16q44 0 80 27t61.5 76.5t39.5 119.5t14 155q0 120 -46 175.5t-118 55.5q-40 0 -83 -11.5t-86 -29.5 q-15 -114 -15 -234z" />
<glyph unicode="7" d="M86 0l774 1138h-529l-77 -180h-87l68 383h857l-14 -79l-733 -1262h-259z" />
<glyph unicode="8" d="M37 321q0 82 22 147.5t62 114t95 81t121 47.5q-32 17 -58 44.5t-44.5 62t-29 76t-10.5 86.5q0 88 27 159t83 120.5t141.5 76t202.5 26.5q88 0 152.5 -19t107 -55t63.5 -87.5t21 -115.5q0 -80 -20.5 -142.5t-55 -109t-80 -77t-96.5 -45.5q83 -30 130.5 -99.5t47.5 -171.5 q0 -111 -30 -197t-91.5 -144.5t-155.5 -88.5t-223 -30q-98 0 -170 25t-119 70.5t-70 108t-23 137.5zM289 272q0 -91 37.5 -140t116.5 -49q60 0 102.5 29t69 81t39 123t12.5 155q0 41 -8.5 75t-26.5 58t-47 37t-71 13q-57 0 -99 -27.5t-69.5 -78t-41.5 -121t-14 -155.5z M447 914q0 -68 24 -108t82 -40q48 0 83.5 29t58.5 77t34 110t11 127q0 73 -26.5 112.5t-88.5 39.5q-47 0 -81 -27t-55.5 -74t-31.5 -110.5t-10 -135.5z" />
<glyph unicode="9" d="M30 23l54 305h87l9 -194q35 -28 78 -40t81 -12q70 0 128.5 39.5t104.5 107.5t78.5 159.5t52.5 195.5q-54 -26 -119 -44.5t-141 -18.5q-85 0 -147 27t-102.5 74.5t-60 111.5t-19.5 138q0 99 32.5 187t93.5 153.5t149 104t199 38.5q86 0 159.5 -31.5t127 -92t83.5 -149 t30 -202.5q0 -127 -23.5 -243.5t-66.5 -216.5t-103.5 -181t-134 -138.5t-158 -89t-176.5 -31.5q-88 0 -160.5 11.5t-135.5 31.5zM379 872q0 -114 41 -170t115 -56q41 0 89 11t94 28q12 97 12 198q0 106 -14 177t-36 114.5t-49.5 62t-54.5 18.5q-44 0 -80.5 -28t-62.5 -78.5 t-40 -121t-14 -155.5z" />
<glyph unicode=":" horiz-adv-x="682" d="M69 137q0 34 13 64.5t35.5 53t52.5 35.5t65 13q34 0 64.5 -13t53 -35.5t35.5 -53t13 -64.5q0 -35 -13 -65t-35.5 -52.5t-53 -35.5t-64.5 -13q-35 0 -65 13t-52.5 35.5t-35.5 52.5t-13 65zM209 794q0 35 12.5 65.5t34.5 53t52.5 35t65.5 12.5t65 -12.5t52.5 -35t35.5 -53 t13 -65.5t-13 -65t-35.5 -52.5t-52.5 -35.5t-65 -13t-65.5 13t-52.5 35.5t-34.5 52.5t-12.5 65z" />
<glyph unicode="&#x3c;" horiz-adv-x="1167" d="M101 635v90l952 468v-143l-767 -370l767 -371v-143z" />
<glyph unicode="=" horiz-adv-x="1167" d="M118 403v144h952v-144h-952zM118 813v143h952v-143h-952z" />
<glyph unicode="&#x3e;" horiz-adv-x="1167" d="M153 166v143l768 371l-768 370v143l952 -468v-90z" />
<glyph unicode="?" d="M185 137q0 34 12.5 64.5t34.5 53t52.5 35.5t65.5 13t65 -13t52.5 -35.5t35.5 -53t13 -64.5q0 -35 -13 -65t-35.5 -52.5t-52.5 -35.5t-65 -13t-65.5 13t-52.5 35.5t-34.5 52.5t-12.5 65zM190 1013l40 295q69 21 149 34.5t163 13.5q103 0 179.5 -22t127.5 -62.5t76 -98.5 t25 -130q0 -171 -90.5 -274t-281.5 -155l-81 -22l-63 -202h-103l-2 313l107 23q57 12 102 37t76.5 64.5t48.5 94.5t17 129q0 95 -43.5 149t-145.5 54q-38 0 -79.5 -13.5t-67.5 -33.5l-65 -194h-89z" />
<glyph unicode="@" horiz-adv-x="1704" d="M48 362q0 143 31 273t89 241t141 201.5t185.5 154t223 98t254.5 34.5q168 0 295 -43.5t212 -123.5t127.5 -193t42.5 -252q0 -103 -23.5 -197t-66 -174.5t-100.5 -146.5t-128 -112.5t-149 -71.5t-162 -25q-33 0 -62 10t-50.5 27.5t-36 41.5t-18.5 52q-23 -19 -55.5 -41.5 t-69.5 -42.5t-75.5 -33.5t-72.5 -13.5q-50 0 -85.5 21t-58 55t-32.5 77.5t-10 88.5q0 171 69 307t202 231q51 37 97.5 60t96 36t104.5 18t122 5q48 0 98 -3.5t85 -7.5l-121 -534q-5 -21 -10 -44.5t-9.5 -45t-7.5 -39.5t-3 -27q0 -22 11.5 -38t40.5 -16q44 0 82.5 24 t70.5 65.5t56.5 98t41.5 121t26 134t9 138.5q0 122 -34.5 216t-98.5 157.5t-155 96.5t-203 33t-209.5 -32t-177.5 -90.5t-142.5 -140t-105.5 -180.5t-65 -211.5t-22 -233.5q0 -126 36.5 -242t111.5 -204t188.5 -140.5t267.5 -52.5q96 0 173 14.5t140.5 38.5t116.5 56t103 68 l52 -76q-56 -45 -119 -84t-138 -68.5t-164 -46.5t-195 -17q-184 0 -327 58.5t-240.5 160.5t-148.5 239t-51 293zM644 320q0 -66 20 -98.5t48 -32.5q20 0 40.5 6t39.5 15.5t35.5 21t28.5 21.5l127 552q-4 1 -12 1.5t-16 1.5t-15.5 1.5t-11.5 0.5q-17 0 -38 -2.5t-43 -9.5 t-44.5 -20t-42.5 -34q-19 -24 -39.5 -69.5t-37.5 -103t-28 -123t-11 -128.5z" />
<glyph unicode="A" horiz-adv-x="1366" d="M-106 0l14 73l103 27l668 1252h240l254 -1252l109 -27l-14 -73h-549l14 73l138 27l-61 347h-472l-184 -347l148 -27l-14 -73h-394zM394 557h396l-101 561z" />
<glyph unicode="B" horiz-adv-x="1366" d="M-19 0l12 73l178 27l201 1142l-168 26l14 73h586q133 0 225.5 -21t150.5 -59t84 -92t26 -121q0 -76 -25 -133.5t-70 -98t-107 -65.5t-135 -35q69 -6 128.5 -28.5t103 -61.5t68.5 -94.5t25 -127.5q0 -209 -157.5 -309.5t-472.5 -100.5q-55 0 -98.5 1t-83 2t-78.5 2t-85 1 h-322zM468 110q35 -2 68 -3q29 -2 61 -2.5t57 -0.5q93 0 155.5 21t100.5 60.5t54.5 95t16.5 124.5q0 66 -21.5 113t-61 77.5t-95.5 44.5t-125 14h-114zM583 764h94q155 0 235.5 66t80.5 205q0 95 -60.5 145.5t-177.5 50.5h-89z" />
<glyph unicode="C" horiz-adv-x="1366" d="M70 531q0 193 62.5 346.5t174.5 259.5t266.5 162.5t338.5 56.5q148 0 263 -16t210 -36l-53 -337h-84v194q-54 43 -130.5 66.5t-160.5 23.5q-123 0 -228 -51.5t-182 -147t-120.5 -230t-43.5 -300.5q0 -95 21 -175.5t64 -139t109 -91.5t157 -33q55 0 107.5 8.5t99 22.5 t85 32t65.5 38l77 220h85l-66 -340q-49 -16 -109.5 -31t-127.5 -27t-138 -19t-142 -7q-147 0 -259 39.5t-187.5 112t-114.5 174t-39 225.5z" />
<glyph unicode="D" horiz-adv-x="1479" d="M-15 0l12 73l177 27l201 1142l-167 26l13 73h521q168 0 296.5 -36t215.5 -106.5t132 -173.5t45 -237q0 -179 -57 -325t-164.5 -250t-262 -160.5t-348.5 -56.5q-118 0 -228 2t-191 2h-195zM471 114q32 -3 61.5 -5.5t62.5 -2.5q125 0 222.5 47.5t165 135t102.5 210.5 t35 275q0 125 -30 212t-84.5 141.5t-131 79t-169.5 24.5h-37z" />
<glyph unicode="E" horiz-adv-x="1366" d="M-15 0l12 73l177 27l201 1142l-167 26l13 73h1052l-60 -341h-91l6 217q-31 4 -72.5 7t-86 4.5t-87 2t-75.5 0.5h-138l-87 -492h281l57 148h89l-73 -412h-89l-4 152h-281l-91 -517h183q62 0 116.5 1.5t98.5 3.5t75.5 5t47.5 6l103 248h91l-84 -374h-1117z" />
<glyph unicode="F" horiz-adv-x="1366" d="M-2 0l12 73l164 27l201 1142l-167 26l13 73h1111l-64 -361h-94l10 237q-21 3 -56 5t-77 4t-86.5 2.5t-85 1.5t-72.5 1h-47h-91l-93 -529h363l61 170h89l-80 -452h-89l-1 172h-363l-87 -492l218 -27l-12 -73h-677z" />
<glyph unicode="G" horiz-adv-x="1479" d="M70 523q0 201 65.5 356t180.5 261t271 161t337 55q138 0 253 -16.5t222 -45.5l-55 -308h-84l1 174q-58 44 -138.5 67.5t-181.5 23.5q-112 0 -213.5 -49t-178.5 -143.5t-122.5 -234.5t-45.5 -321q0 -105 24 -184t67 -131.5t103 -78.5t133 -26q77 0 139.5 14.5t97.5 28.5 l68 380l-167 32l12 68h598l-12 -68l-136 -32l-77 -436q-67 -21 -133 -37.5t-135.5 -28.5t-144 -18t-156.5 -6q-142 0 -252.5 37.5t-186 108t-114.5 171t-39 226.5z" />
<glyph unicode="H" horiz-adv-x="1593" d="M-15 0l13 74l176 26l201 1141l-167 27l13 73h639l-13 -73l-177 -27l-87 -496h488l87 496l-167 27l13 73h641l-13 -73l-178 -27l-201 -1141l168 -26l-13 -74h-641l13 74l177 26l94 535h-488l-94 -535l167 -26l-13 -74h-638z" />
<glyph unicode="I" horiz-adv-x="797" d="M-20 0l13 74l176 26l201 1141l-167 27l13 73h639l-13 -73l-177 -27l-201 -1141l167 -26l-13 -74h-638z" />
<glyph unicode="J" d="M-4 10l54 304h83l4 -179q15 -23 43 -36t70 -13q34 0 65.5 12t57 36t44 59.5t26.5 82.5l170 966l-167 26l13 73h619l-13 -73l-157 -26l-142 -810q-24 -137 -79.5 -224.5t-127.5 -138t-154.5 -70t-160.5 -19.5q-69 0 -136 8t-112 22z" />
<glyph unicode="K" horiz-adv-x="1366" d="M-15 0l12 73l177 27l201 1142l-167 26l13 73h629l-13 -73l-167 -26l-91 -524l576 524l-113 26l13 73h425l-13 -73l-139 -26l-473 -429l353 -713l134 -27l-12 -73h-386l-296 636l-93 -45l-86 -491l178 -27l-12 -73h-650z" />
<glyph unicode="L" horiz-adv-x="1251" d="M-15 0l12 73l177 27l201 1142l-166 26l13 73h663l-13 -73l-202 -26l-200 -1136h113q52 0 111.5 2t112.5 5t94 6.5t57 6.5l117 279h84l-89 -405h-1085z" />
<glyph unicode="M" horiz-adv-x="1821" d="M-27 0l12 73l177 27l201 1142l-167 26l13 73h493l165 -874l476 874h535l-13 -73l-177 -26l-201 -1142l167 -27l-12 -73h-657l12 73l195 27l187 1058l-639 -1158h-45l-221 1158l-187 -1058l175 -27l-12 -73h-477z" />
<glyph unicode="N" horiz-adv-x="1479" d="M-19 0l12 73l177 27l201 1142l-167 26l13 73h433l435 -894l140 795l-175 26l13 73h477l-13 -73l-177 -26l-218 -1242h-115l-541 1112l-181 -1012l175 -27l-12 -73h-477z" />
<glyph unicode="O" horiz-adv-x="1479" d="M74 524q0 113 22.5 218.5t67 198t111 169t153 131t194 85t234.5 30.5q129 0 233 -40.5t178 -113t114 -172.5t40 -218q0 -97 -19 -196.5t-59 -192t-102 -173.5t-149 -141t-199.5 -94.5t-253.5 -34.5q-129 0 -233 40.5t-178 113t-114 172t-40 218.5zM375 485 q0 -92 18.5 -166t54 -126.5t88 -81t121.5 -28.5q78 0 142.5 35.5t116 95.5t90 138t64 162t38 169.5t12.5 159.5q0 93 -19 168t-55.5 128.5t-90.5 82.5t-123 29q-77 0 -141 -36.5t-115 -97t-88.5 -139t-62.5 -163.5t-37.5 -170.5t-12.5 -159.5z" />
<glyph unicode="P" horiz-adv-x="1251" d="M-1 0l11 73l162 27l202 1142l-168 26l12 73h531q136 0 233.5 -25t160 -71.5t92 -113t29.5 -148.5q0 -102 -35 -186t-106.5 -144.5t-180 -93.5t-255.5 -33h-143l-76 -426l219 -27l-11 -73h-677zM564 636h79q76 0 136.5 23.5t103 68t65.5 108t23 144.5q0 69 -18 116.5 t-49 77.5t-74 43t-92 13h-69z" />
<glyph unicode="Q" horiz-adv-x="1479" d="M74 524q0 113 22.5 218.5t67 198t111 169t153 131t194 85t234.5 30.5q129 0 233 -40.5t178 -113t114 -172.5t40 -218q0 -120 -29 -242t-90.5 -229.5t-158.5 -192t-233 -128.5l32 -49q34 -54 65.5 -89.5t59.5 -56.5t52.5 -29.5t46.5 -8.5q26 0 49 3t40 5l13 -78 q-19 -8 -50 -16.5t-67 -15.5t-73.5 -12t-70.5 -5q-74 0 -128 16.5t-97.5 49.5t-81 82.5t-77.5 115.5l-30 50q-119 7 -215 50t-163.5 114.5t-104 168t-36.5 209.5zM375 485q0 -92 18.5 -166t54 -126.5t88 -81t121.5 -28.5q78 0 142.5 35.5t116 95.5t90 138t64 162t38 169.5 t12.5 159.5q0 93 -19 168t-55.5 128.5t-90.5 82.5t-123 29q-77 0 -141 -36.5t-115 -97t-88.5 -139t-62.5 -163.5t-37.5 -170.5t-12.5 -159.5z" />
<glyph unicode="R" horiz-adv-x="1366" d="M-3 0l12 73l164 27l201 1142l-167 26l13 73h535q135 0 232 -21.5t159.5 -64t92.5 -105.5t30 -147q0 -87 -25 -154.5t-69 -117t-104.5 -83t-130.5 -52.5l201 -496l147 -27l-12 -73h-400l-208 568h-116l-83 -468l167 -27l-12 -73h-627zM571 678h55q82 0 147 21t110 60.5 t69 97t24 130.5q0 130 -60.5 187t-177.5 57h-69z" />
<glyph unicode="S" horiz-adv-x="1139" d="M37 51l64 360h88l1 -215q17 -25 44.5 -46t61.5 -36.5t73 -24t80 -8.5q79 0 136.5 17.5t94.5 48.5t55 73t18 91q0 54 -24 94t-63.5 72.5t-89.5 61t-102.5 58t-102.5 64t-89.5 79.5t-63.5 103t-24 136q0 96 35.5 166.5t103 117.5t164.5 70t220 23q85 0 174 -12t162 -31 l-56 -319h-89l-7 196q-38 29 -91.5 45.5t-119.5 16.5q-64 0 -110 -15t-75 -40t-43 -58.5t-14 -69.5q0 -48 24 -85t64 -68t90.5 -59t103 -58t103 -64.5t90.5 -79t64 -101t24 -131.5q0 -110 -38.5 -193t-112.5 -138.5t-181.5 -83.5t-246.5 -28q-131 0 -230.5 22.5t-164.5 48.5 z" />
<glyph unicode="T" horiz-adv-x="1251" d="M149 966l66 376h1103l-66 -376h-88l13 249q-18 4 -46.5 7t-60.5 5.5t-63.5 4t-54.5 1.5h-59l-200 -1133l208 -27l-12 -73h-722l12 73l218 27l200 1135h-61q-23 0 -54 -1.5t-62.5 -4.5t-60.5 -6.5t-48 -7.5l-75 -249h-87z" />
<glyph unicode="U" horiz-adv-x="1479" d="M167 1268l13 73h619l-13 -73l-177 -26l-113 -656q-11 -62 -17 -115.5t-6 -81.5q0 -138 69.5 -202.5t197.5 -64.5q90 0 158.5 26t117 71.5t78 108t42.5 135.5l137 779l-175 26l13 73h456l-13 -73l-157 -26l-135 -771q-19 -107 -58.5 -197t-107 -155t-167.5 -101.5 t-240 -36.5q-134 0 -230 31.5t-158 87t-91.5 132.5t-29.5 167q0 37 5.5 83.5t14.5 100.5l114 659z" />
<glyph unicode="V" horiz-adv-x="1366" d="M120 1268l12 73h547l-12 -73l-144 -27l202 -879l487 879l-130 27l12 73h411l-12 -73l-132 -27l-722 -1272h-113l-301 1272z" />
<glyph unicode="W" horiz-adv-x="1821" d="M141 1268l13 73h564l-13 -73l-162 -26l106 -814l397 829h100l152 -834l362 819l-164 26l13 73h432l-13 -73l-122 -26l-592 -1273h-94l-158 848l-402 -848h-101l-188 1273z" />
<glyph unicode="X" horiz-adv-x="1366" d="M-52 0l12 73l153 27l461 535l-238 607l-146 26l13 73h613l-13 -73l-165 -26l143 -367l316 367l-151 26l13 73h449l-13 -73l-153 -26l-416 -482l259 -660l147 -27l-12 -73h-613l12 73l165 27l-165 420l-362 -420l151 -27l-12 -73h-448z" />
<glyph unicode="Y" horiz-adv-x="1251" d="M105 1268l13 73h636l-13 -73l-185 -26l178 -556l364 556l-159 26l13 73h456l-13 -73l-147 -26l-466 -694l-80 -448l208 -27l-12 -73h-722l12 73l218 27l79 442l-234 700z" />
<glyph unicode="Z" horiz-adv-x="1251" d="M-5 0l20 114l826 1121h-192q-46 0 -90.5 -1.5t-83 -4.5t-69.5 -6.5t-50 -7.5l-68 -211h-89l59 337h941l-19 -106l-823 -1131h187q59 0 120.5 3.5t115 9t94.5 11t60 9.5l104 256h90l-96 -393h-1037z" />
<glyph unicode="[" horiz-adv-x="682" d="M51 -274l299 1695h436l-12 -67l-210 -41l-261 -1479l196 -41l-12 -67h-436z" />
<glyph unicode="\" horiz-adv-x="569" d="M130 1349h127l212 -1369h-130z" />
<glyph unicode="]" horiz-adv-x="682" d="M-106 -274l12 67l210 41l261 1479l-196 41l12 67h436l-299 -1695h-436z" />
<glyph unicode="^" horiz-adv-x="1167" d="M131 389l428 952h90l428 -952h-143l-330 761l-330 -761h-143z" />
<glyph unicode="_" d="M-153 -141h1056v-144h-1056v144z" />
<glyph unicode="`" horiz-adv-x="682" d="M230 1386l7 37h265l137 -273l-6 -32h-86z" />
<glyph unicode="a" d="M24 319q0 129 40.5 246t114.5 205.5t178 141t231 52.5q72 0 136.5 -12.5t114.5 -32.5l82 37h54l-152 -866l109 -32l-8 -58h-347l-4 138q-27 -34 -59.5 -63t-69 -50.5t-76 -33.5t-80.5 -12q-58 0 -106.5 21t-83.5 63.5t-54.5 106.5t-19.5 149zM287 351q0 -58 10.5 -100.5 t28 -70t39 -40.5t43.5 -13q23 0 47.5 12.5t48 33t44.5 45t37 48.5l99 563q-21 16 -55 25t-69 9q-61 0 -111.5 -45t-86.5 -118t-55.5 -164.5t-19.5 -184.5z" />
<glyph unicode="b" d="M27 48l227 1285l-92 23l11 65h365l-76 -430q-3 -18 -7.5 -42t-10 -50t-11.5 -52t-13 -50q27 36 59 67t68 53.5t75 35t79 12.5q56 0 104 -21.5t83 -63.5t55 -104.5t20 -144.5q0 -86 -17 -168t-48.5 -154.5t-76.5 -133.5t-102 -105t-125 -68.5t-145 -24.5q-48 0 -101.5 4 t-108.5 12t-109 21.5t-103 33.5zM308 124q12 -12 29.5 -21t35.5 -15t35 -9t29 -3q56 0 104 45t83.5 118t55.5 164t20 184q0 60 -10.5 103t-27.5 70t-39 40t-44 13q-19 0 -40.5 -10.5t-44 -29t-45.5 -44t-44 -55.5z" />
<glyph unicode="c" horiz-adv-x="909" d="M30 330q0 156 48.5 275t127 199t178 120.5t201.5 40.5q40 0 82 -4t81.5 -10.5t73.5 -14.5t57 -16l-49 -288h-72l-14 171q-25 28 -60.5 44t-85.5 16q-58 0 -112 -38.5t-96 -107.5t-67 -165t-25 -212q0 -63 13.5 -108t36.5 -73.5t55 -41.5t68 -13q75 0 136.5 27t118.5 67 l44 -63q-27 -24 -66 -51t-87.5 -50t-105.5 -38.5t-120 -15.5q-90 0 -158 25.5t-113 72t-67.5 110.5t-22.5 142z" />
<glyph unicode="d" d="M24 310q0 129 35.5 247.5t101.5 208.5t159 144t208 54q22 0 47 -2t48.5 -5.5t44 -9t34.5 -11.5q1 12 2.5 29.5t3.5 35.5t4 34t4 25l46 272l-160 24l12 65h435l-237 -1336l99 -25l-12 -60h-332l-7 144q-27 -36 -60 -66.5t-70 -52t-76 -33.5t-78 -12q-53 0 -99 21t-80 62 t-53.5 103t-19.5 144zM287 354q0 -60 8.5 -103t23 -70t33 -40t38.5 -13q19 0 42.5 10.5t48.5 29t50 44t46 55.5l97 550q-12 12 -30 21t-37.5 15t-37 9t-29.5 3q-56 0 -102.5 -45t-80 -118t-52 -164t-18.5 -184z" />
<glyph unicode="e" horiz-adv-x="909" d="M48 330q0 89 19.5 170.5t55 152t83.5 128t105.5 98.5t121.5 63.5t130 22.5q73 0 129 -15.5t94.5 -43t58 -65t19.5 -81.5q0 -65 -36 -124.5t-105 -106.5t-169 -79t-229 -42q-1 -4 -2 -12.5t-1.5 -18t-1 -20t-0.5 -17.5q0 -45 8 -87.5t28 -75.5t55.5 -53t89.5 -20 q74 0 137 28.5t118 65.5l44 -63q-31 -26 -73 -53.5t-92 -50t-107 -37t-117 -14.5q-94 0 -162.5 24.5t-113 69.5t-66 110t-21.5 146zM341 508q67 7 119 32.5t87.5 62t54 81t18.5 89.5q0 42 -20.5 63t-48.5 21q-38 0 -71.5 -30t-61 -79t-47.5 -111.5t-30 -128.5z" />
<glyph unicode="f" horiz-adv-x="682" d="M0 -436l222 1272h-162l12 69l169 39l23 122q37 198 144 287t285 89q44 0 88.5 -6.5t70.5 -14.5l-39 -222h-64l-12 112q-8 8 -20.5 14.5t-35.5 6.5t-43.5 -10.5t-38.5 -36.5t-33 -71.5t-28 -115.5l-29 -158h206l-18 -104h-206l-222 -1272h-269z" />
<glyph unicode="g" d="M-38 -365l22 253h56l36 -131q36 -37 93 -60.5t126 -23.5q58 0 97.5 18t66 51t41.5 79.5t25 103.5q3 18 8 45t11 57t13 61t15 57q-28 -36 -61.5 -67t-70.5 -53.5t-75.5 -35t-76.5 -12.5q-55 0 -102 21.5t-82 63.5t-55 104.5t-20 144.5q0 86 16.5 168t47.5 154.5 t76.5 133.5t104 105t129 68.5t152.5 24.5q48 0 101 -3.5t106.5 -9.5t106.5 -13.5t101 -15.5l-172 -958q-20 -108 -62 -184.5t-105.5 -124.5t-148 -70t-188.5 -22q-51 0 -101 6t-94 16t-79.5 23t-57.5 26zM292 355q0 -60 10 -103t26.5 -70t37 -40t41.5 -13q35 0 82.5 35 t92.5 95l107 582q-26 11 -56.5 18t-72.5 7q-62 0 -111.5 -45t-84 -118t-53.5 -164t-19 -184z" />
<glyph unicode="h" horiz-adv-x="1139" d="M40 0l234 1331l-91 24l11 66h365l-84 -463q-4 -24 -10 -53.5t-11.5 -57t-10.5 -49.5t-7 -29q76 97 170.5 146.5t211.5 49.5q46 0 85.5 -13t68.5 -38.5t45 -62.5t16 -85q0 -18 -3 -43t-6.5 -51.5t-8 -50.5t-7.5 -41l-87 -490l116 -24l-13 -66h-386l102 569q4 21 8 44t7 44 t5 39t2 29q0 97 -91 97q-34 0 -72 -20.5t-74 -53t-66 -73.5t-47 -81l-106 -594h-266z" />
<glyph unicode="i" horiz-adv-x="569" d="M52 0l150 850l-91 24l11 66h365l-150 -850l119 -24l-11 -66h-393zM253 1268q0 32 12 60t33 48.5t49 32.5t60 12t60 -12t48.5 -32.5t32.5 -48.5t12 -60t-12 -60t-32.5 -49t-48.5 -33t-60 -12t-60 12t-49 33t-33 49t-12 60z" />
<glyph unicode="j" horiz-adv-x="569" d="M-268 -418l39 225h63l24 -118q8 -6 19 -10.5t26 -4.5q22 0 43.5 13.5t41 43.5t36.5 78.5t29 119.5l161 911l-160 34l11 66h435l-172 -979q-19 -106 -58 -181.5t-94.5 -123.5t-125.5 -70t-150 -22q-45 0 -89 5t-79 13zM268 1268q0 32 12 60t33 48.5t49 32.5t60 12t60 -12 t48.5 -32.5t32.5 -48.5t12 -60t-12 -60t-32.5 -49t-48.5 -33t-60 -12t-60 12t-49 33t-33 49t-12 60z" />
<glyph unicode="k" d="M28 0l235 1331l-92 24l12 66h365l-160 -914l351 344l-86 23l11 66h344l-11 -66l-92 -22l-243 -224l222 -538l80 -24l-11 -66h-314l-166 453l-108 -70l-68 -383h-269z" />
<glyph unicode="l" horiz-adv-x="569" d="M45 0l236 1331l-91 24l11 66h365l-236 -1331l119 -24l-11 -66h-393z" />
<glyph unicode="m" horiz-adv-x="1593" d="M39 0l148 849l-89 25l13 66h328l-3 -168q72 98 153 145.5t181 47.5q39 0 73 -11t60 -35t41.5 -61.5t16.5 -90.5q72 101 155.5 149.5t182.5 48.5q39 0 74 -12.5t61.5 -38.5t41.5 -66t15 -94q0 -12 -3 -34.5t-6.5 -48t-8 -50t-7.5 -41.5l-87 -490l116 -24l-13 -66h-386 l102 569q4 21 8 44t7 44t5 39t2 29q0 97 -72 97q-27 0 -61 -23.5t-65.5 -61t-56 -83.5t-32.5 -91l-99 -563h-267l102 569q4 21 8 44t7 44t5 39t2 29q0 97 -74 97q-27 0 -57 -20.5t-58.5 -53t-52 -73.5t-38.5 -81l-106 -594h-266z" />
<glyph unicode="n" horiz-adv-x="1139" d="M42 0l148 849l-89 25l13 66h334l-8 -175q76 98 169.5 149t210.5 51q46 0 85.5 -12.5t68.5 -37.5t45 -63t16 -89q0 -18 -2.5 -41t-6.5 -47.5l-8 -49t-8 -45.5l-87 -490l116 -24l-13 -66h-386l102 569q4 21 8 44t7 44t5 39t2 29q0 97 -91 97q-34 0 -72 -20.5t-74 -53 t-66 -73.5t-47 -81l-106 -594h-266z" />
<glyph unicode="o" d="M32 374q0 117 38 224t109.5 188.5t173 130t227.5 48.5q83 0 152 -27t118.5 -78t76.5 -124t27 -165q0 -117 -38 -224t-109.5 -188.5t-173 -130t-227.5 -48.5q-83 0 -152 27t-118.5 78t-76.5 124t-27 165zM297 319q0 -115 37 -177.5t95 -62.5q47 0 92.5 40.5t81.5 113 t58 172.5t22 220q0 117 -31 179t-94 62q-47 0 -94 -43.5t-84 -118.5t-60 -174.5t-23 -210.5z" />
<glyph unicode="p" d="M-146 -436l12 65l104 24l214 1202l-99 25l12 60h345l-6 -138q56 73 123.5 118t143.5 45q55 0 102 -21.5t82 -63.5t55 -104.5t20 -144.5q0 -129 -35.5 -247t-102.5 -207.5t-162 -143t-213 -53.5q-45 0 -86.5 10t-68.5 23q-1 -12 -2.5 -29.5t-3.5 -35.5t-4.5 -34t-3.5 -25 l-38 -236l160 -24l-12 -65h-536zM322 127q24 -24 57.5 -36t58.5 -12q39 0 74 20.5t64 56.5t52 84.5t38.5 105t24 118t8.5 123.5q0 60 -9.5 103t-25 70t-35.5 40t-41 13q-35 0 -79 -36.5t-89 -96.5z" />
<glyph unicode="q" d="M26 311q0 129 34.5 247.5t100.5 208.5t161.5 144t217.5 54q106 0 219.5 -11.5t212.5 -30.5l-229 -1271l92 -23l-11 -65h-365l73 387q3 18 7.5 42t10 50t11.5 52t13 50q-27 -36 -61.5 -67t-73 -53.5t-78.5 -35t-77 -12.5q-54 0 -101.5 21.5t-82 63.5t-54.5 104.5 t-20 144.5zM289 355q0 -60 10 -103t26.5 -70t37 -40t40.5 -13q17 0 39.5 10.5t47 29t49.5 44t47 55.5l105 573q-26 11 -61 18t-76 7q-61 0 -110 -45t-83.5 -118t-53 -164t-18.5 -184z" />
<glyph unicode="r" horiz-adv-x="797" d="M42 0l150 850l-117 24l11 66h375l-23 -202q30 59 66 102t74 70.5t77 41t74 13.5q20 0 44.5 -3t38.5 -7l-58 -337h-55l-44 137q-36 0 -67.5 -8.5t-60.5 -27.5t-56.5 -49.5t-54.5 -73.5l-105 -596h-269z" />
<glyph unicode="s" horiz-adv-x="797" d="M-11 34l46 261h66l15 -132q12 -17 29 -33t38.5 -29t49 -20.5t60.5 -7.5q43 0 77 12.5t56.5 33.5t34.5 48.5t12 57.5q0 31 -14.5 54.5t-39 43.5t-56 38t-65.5 38q-41 23 -77.5 49.5t-64.5 60t-44.5 75.5t-16.5 96q0 84 30.5 139.5t82 87.5t120 45t144.5 13q64 0 131.5 -9 t130.5 -23l-43 -241h-66l-13 110q-21 26 -62 47.5t-92 21.5q-76 0 -111.5 -34t-35.5 -89q0 -28 13 -50t35 -41t50.5 -36.5t60.5 -35.5q43 -24 83 -50t71 -59t50 -76.5t19 -102.5q0 -152 -102 -234.5t-305 -82.5q-43 0 -88.5 5.5t-86 14t-72.5 17.5t-50 17z" />
<glyph unicode="t" horiz-adv-x="569" d="M62 836l11 65l142 39l139 213h146l-38 -213h158l-18 -104h-158l-91 -509q-7 -36 -11.5 -69t-4.5 -51q0 -53 26.5 -77t64.5 -24q24 0 51 7.5t59 18.5l26 -70q-20 -14 -49.5 -28.5t-65 -26.5t-75 -19.5t-78.5 -7.5q-64 0 -107.5 16.5t-70.5 44.5t-39 65t-12 79 q0 29 5.5 67.5t12.5 76.5l92 507h-115z" />
<glyph unicode="u" horiz-adv-x="1139" d="M75 874l13 66h386l-102 -568q-4 -21 -8 -44t-7 -44t-5 -39t-2 -29q0 -97 91 -97q34 0 72 20.5t74 53t66 73t47 81.5l106 593h266l-148 -849l109 -25l-13 -66h-354l8 176q-76 -98 -169.5 -149t-210.5 -51q-47 0 -86 12.5t-68 38.5t-45 66t-16 94q0 12 2.5 34.5t6.5 49 t9 54.5t9 51l85 474z" />
<glyph unicode="v" horiz-adv-x="909" d="M19 875l11 66h300l149 -654l203 314q32 50 49 99t17 81q0 25 -7.5 41t-20 26.5t-29 16t-33.5 10.5l12 65h231q9 -8 17.5 -25t8.5 -38q0 -16 -3.5 -37t-12.5 -48.5t-25 -61t-42 -73.5l-437 -677h-123l-204 871z" />
<glyph unicode="w" horiz-adv-x="1366" d="M2 874l11 66h304l126 -658l309 564h100l112 -564l165 298q11 20 21 46.5t18 54t12.5 52.5t4.5 42q0 28 -8.5 45.5t-23 28t-32.5 16t-36 10.5l12 65h245q14 -11 22.5 -31t8.5 -50q0 -33 -13 -83t-54 -119l-402 -677h-119l-103 538l-296 -538h-133l-171 870z" />
<glyph unicode="x" d="M-25 43q0 35 32.5 76.5t104.5 101.5l284 239l-202 390l-86 25l11 65h299l165 -325l102 85q34 28 53.5 49t29.5 37t12.5 28t2.5 22q0 13 -13.5 23.5t-41.5 15.5l12 65h213q9 -7 15 -17.5t6 -25.5q0 -38 -33 -84t-105 -106l-208 -174l228 -447l86 -21l-11 -65h-302 l-190 374l-165 -138q-34 -29 -52.5 -49t-27.5 -35t-10.5 -26.5t-1.5 -21.5q0 -11 9.5 -22.5t32.5 -16.5l-12 -65h-221q-6 5 -11 16.5t-5 26.5z" />
<glyph unicode="y" horiz-adv-x="909" d="M-205 -423l42 242h60l20 -126q12 -11 28.5 -17t41.5 -6q37 0 74 23.5t73 62t70.5 88.5t67.5 104l28 47l-214 855l-61 24l11 66h303l152 -639l181 300q14 23 25.5 48t20 49t13.5 45.5t5 37.5q0 25 -7.5 41t-20 26.5t-29 16t-33.5 10.5l12 65h231q9 -8 17.5 -25t8.5 -38 q0 -16 -3 -37t-12 -48t-25 -61t-41 -74l-439 -716q-49 -80 -98 -150t-101.5 -121.5t-111.5 -81.5t-128 -30q-28 0 -48.5 1t-38.5 3.5t-35.5 6t-38.5 8.5z" />
<glyph unicode="z" horiz-adv-x="797" d="M-58 0l8 50l516 800h-70q-28 0 -55.5 -2.5t-52.5 -7t-44.5 -11t-31.5 -14.5l-60 -155h-72l49 280h660l-9 -54l-516 -796h83q27 0 57.5 3.5t59 9.5t53.5 14.5t42 19.5l82 178h72l-74 -315h-697z" />
<glyph unicode="{" horiz-adv-x="713" d="M28 533l15 85q103 3 168.5 52.5t85.5 163.5l55 314q25 141 109.5 207t239.5 66h135l-15 -87h-62q-69 0 -109.5 -34.5t-55.5 -120.5l-64 -360q-9 -50 -31.5 -92t-55.5 -74.5t-74 -54t-86 -30.5v-3q75 -17 118.5 -68.5t43.5 -131.5q0 -13 -1.5 -26t-3.5 -27l-53 -304 q-6 -33 -6 -61q0 -61 26.5 -97.5t83.5 -36.5h62l-16 -87h-135q-66 0 -113.5 17.5t-78 48.5t-45.5 74.5t-15 95.5q0 40 7 78l48 275q6 33 6 61q0 82 -47.5 118t-135.5 39z" />
<glyph unicode="|" horiz-adv-x="451" d="M139 -442v1863h143v-1863h-143z" />
<glyph unicode="}" horiz-adv-x="713" d="M-120 -274l16 87h62q69 0 109 34.5t55 120.5l65 364q9 51 31 93t54.5 74.5t73.5 54t88 31.5v3q-72 16 -117 68t-45 132q0 12 1.5 24.5t3.5 26.5l52 300q6 33 6 62q0 61 -26.5 97t-82.5 36h-62l15 87h135q130 0 191.5 -62.5t61.5 -168.5q0 -20 -2 -40t-6 -42l-47 -274 q-6 -33 -6 -61q0 -81 47.5 -117t134.5 -38l-15 -85q-51 -2 -93 -14.5t-74.5 -38.5t-54 -66.5t-31.5 -98.5l-56 -315q-24 -136 -109 -205t-240 -69h-135z" />
<glyph unicode="~" horiz-adv-x="1167" d="M86 481q7 69 21 138t45 123.5t84.5 89t139.5 34.5q39 0 74 -11t67.5 -28t62 -39.5t56.5 -44.5q17 -14 40.5 -34.5t50 -39.5t53.5 -32t51 -13q33 0 57 13.5t41 42.5t29 75t20 111h144q-9 -68 -24.5 -137t-47 -124t-84 -89.5t-135.5 -34.5q-48 0 -92 18t-84 45t-77 58 t-71.5 58t-67 45t-63.5 18q-34 0 -59 -12t-42.5 -40.5t-29 -75t-18.5 -114.5h-141z" />
<glyph unicode="&#xa1;" horiz-adv-x="797" d="M76 -409l264 921h95l-60 -921h-299zM267 795q0 34 13 64.5t35.5 53t52.5 35.5t65 13q34 0 64.5 -13t53 -35.5t35.5 -53t13 -64.5q0 -35 -13 -65t-35.5 -52.5t-53 -35.5t-64.5 -13q-35 0 -65 13t-52.5 35.5t-35.5 52.5t-13 65z" />
<glyph unicode="&#xa2;" d="M123 535q0 153 48 270t125.5 196.5t175.5 122t198 45.5l30 172h92l-31 -174q33 -3 66.5 -7.5t64 -10t56.5 -12t44 -12.5l-49 -288h-72l-14 171q-40 45 -114 57l-132 -754q64 8 120.5 36.5t107.5 63.5l44 -63q-22 -19 -52.5 -41.5t-68 -44t-81 -39.5t-91.5 -28l-34 -195 h-92l32 185q-90 0 -159.5 25.5t-117 72t-72 110.5t-24.5 142zM391 545q0 -102 36.5 -159.5t90.5 -73.5l133 753q-51 -15 -98 -59.5t-83 -112.5t-57.5 -156.5t-21.5 -191.5z" />
<glyph unicode="&#xa3;" d="M-5 0l21 123q45 35 93.5 71.5t88.5 79.5t65.5 95t25.5 120q0 31 -5 63.5t-14 67.5h-161l18 101h88q-11 42 -18.5 86.5t-7.5 94.5q0 107 33 191.5t99.5 143t166.5 89t235 30.5q46 0 84.5 -3.5t74.5 -9t71 -13.5t73 -17l-54 -305h-87l-9 194q-29 20 -69 36.5t-97 16.5 q-66 0 -116 -29.5t-83.5 -85.5t-51 -136t-17.5 -182q0 -24 1 -51.5t2 -49.5h262l-18 -101h-243q1 -15 1 -33.5v-35.5q0 -57 -13 -108.5t-34 -95.5t-48.5 -80.5t-56.5 -63.5h610l-37 -203h-873z" />
<glyph unicode="&#xa4;" d="M99 350l102 103q-32 48 -49.5 104t-17.5 119t17.5 119t49.5 104l-102 105l104 104l101 -107q48 32 104 51t119 19q62 0 118.5 -19t104.5 -51l105 105l102 -100l-104 -107q32 -48 50.5 -104.5t18.5 -118.5q0 -63 -18.5 -119t-50.5 -104l104 -103l-100 -102l-107 104 q-48 -34 -104.5 -51.5t-118.5 -17.5q-63 0 -119 18.5t-104 50.5l-105 -104zM273 676q0 -52 20 -98.5t54.5 -81t81 -54.5t98.5 -20q53 0 99.5 20t81.5 54.5t55 81t20 98.5q0 53 -20 99.5t-55 81.5t-81.5 55t-99.5 20q-52 0 -98.5 -20t-81 -55t-54.5 -81.5t-20 -99.5z" />
<glyph unicode="&#xa5;" d="M72 297l18 102h257l24 138h-257l18 102h233l-154 612l-80 24l12 66h473l-12 -66l-116 -26l109 -547l319 549l-106 24l12 66h331l-12 -66l-89 -20l-373 -616h233l-18 -102h-254l-24 -138h254l-18 -102h-254l-37 -207l139 -24l-11 -66h-554l11 66l146 24l37 207h-257z" />
<glyph unicode="&#xa6;" horiz-adv-x="451" d="M182 180h142v-622h-142v622zM182 801v620h142v-620h-142z" />
<glyph unicode="&#xa7;" d="M37 -204l46 261h66l14 -132q13 -15 32 -30.5t44 -28t54.5 -20.5t62.5 -8q45 0 81 12t61.5 33.5t39 51.5t13.5 65q0 52 -31.5 92t-79.5 74.5t-103 69t-103 77t-79.5 96.5t-31.5 129q0 63 22 114.5t60.5 91t91 67t114.5 43.5q-29 17 -56 40.5t-48 53.5t-33.5 67t-12.5 81 q0 81 31.5 137t85.5 91t125 50.5t150 15.5q70 0 140 -9t133 -20l-42 -241h-66l-13 110q-11 13 -29 25t-40.5 21t-48.5 14.5t-51 5.5q-79 0 -121 -37t-42 -100q0 -38 19 -67t50 -53.5t70.5 -46.5t81 -45t81 -49t70.5 -59.5t50 -76.5t19 -99q0 -64 -21 -117t-60.5 -95 t-95.5 -72.5t-126 -49.5q33 -25 62 -53.5t50 -61.5t33 -72t12 -85q0 -149 -108 -230.5t-326 -81.5q-48 0 -96 6t-88.5 14.5t-70.5 17t-42 13.5zM337 608q0 -34 14.5 -62t39 -52t56.5 -45.5t67 -41.5q38 8 71 27t58 45t39 57t14 63q0 34 -14.5 60.5t-39 48t-56.5 39t-68 34.5 q-38 -6 -70.5 -22t-57.5 -39t-39 -52t-14 -60z" />
<glyph unicode="&#xa8;" horiz-adv-x="682" d="M163 1251q0 25 10 46.5t26.5 37.5t38.5 25.5t46 9.5q25 0 46.5 -9.5t37.5 -25.5t25.5 -37.5t9.5 -46.5q0 -24 -9 -46t-25 -38.5t-38 -26.5t-47 -10q-24 0 -46 10t-38.5 26.5t-26.5 38.5t-10 46zM519 1251q0 25 9.5 46.5t26 37.5t38.5 25.5t47 9.5t47 -9.5t38 -25.5 t25 -37.5t9 -46.5q0 -24 -9 -46t-25 -38.5t-38 -26.5t-47 -10t-47 10t-38.5 26.5t-26 38.5t-9.5 46z" />
<glyph unicode="&#xa9;" horiz-adv-x="1530" d="M87 670q0 96 24.5 184.5t69.5 165.5t107.5 140t139.5 108t165 69.5t184 24.5t184.5 -24.5t165.5 -69.5t140 -108t108 -140t69.5 -165.5t24.5 -184.5t-24.5 -184t-69.5 -165t-108 -139.5t-140 -107.5t-165.5 -69.5t-184.5 -24.5q-144 0 -269.5 54t-219 147.5t-147.5 219 t-54 269.5zM177 670q0 -126 47 -236.5t128 -193t190.5 -130t234.5 -47.5q124 0 234 47.5t191.5 130t129 193t47.5 236.5q0 84 -21.5 161.5t-61 145.5t-94 123t-121.5 95t-144 61.5t-160 21.5q-125 0 -234.5 -48t-190.5 -130.5t-128 -193t-47 -236.5zM386 664q0 108 29.5 188 t85 132.5t134.5 78.5t179 26q82 0 147.5 -9.5t120.5 -20.5l4 -207h-69l-19 105q-41 25 -82 38t-98 13q-66 0 -112 -18.5t-75 -59t-42 -106t-13 -158.5q0 -165 53.5 -248.5t182.5 -83.5q75 0 119.5 17t75.5 42l22 119h70l-4 -219q-26 -8 -58 -15t-69 -12.5t-76.5 -8.5 t-79.5 -3q-99 0 -178 28.5t-134 82t-84.5 129t-29.5 170.5z" />
<glyph unicode="&#xaa;" horiz-adv-x="545" d="M88 983q0 75 24.5 144t71.5 121t115.5 83t157.5 31q46 0 79 -9.5t51 -16.5l6 3q3 2 6 3.5l7 3.5q8 4 19 11h50l-91 -511l54 -15l-10 -49h-203l2 44q-30 -22 -71.5 -40.5t-101.5 -18.5q-35 0 -65.5 15t-53 43t-35 68t-12.5 90zM248 992q0 -71 19 -105t53 -34q23 0 51.5 10 t55.5 27l68 388q-14 6 -33 10.5t-39 4.5q-45 0 -77.5 -27t-54.5 -70.5t-32.5 -97t-10.5 -106.5z" />
<glyph unicode="&#xab;" d="M80 430l12 66l383 356h101l-262 -389l125 -389h-101zM490 430l12 66l383 356h100l-261 -389l124 -389h-100z" />
<glyph unicode="&#xac;" horiz-adv-x="1241" d="M114 608v144h953v-549h-142v405h-811z" />
<glyph unicode="&#xad;" horiz-adv-x="682" d="M43 395l33 174h532l-33 -174h-532z" />
<glyph unicode="&#xae;" horiz-adv-x="1530" d="M87 670q0 96 24.5 184.5t69.5 165.5t107.5 140t139.5 108t165 69.5t184 24.5t184.5 -24.5t165.5 -69.5t140 -108t108 -140t69.5 -165.5t24.5 -184.5t-24.5 -184t-69.5 -165t-108 -139.5t-140 -107.5t-165.5 -69.5t-184.5 -24.5q-144 0 -269.5 54t-219 147.5t-147.5 219 t-54 269.5zM177 670q0 -126 47 -236.5t128 -193t190.5 -130t234.5 -47.5q124 0 234 47.5t191.5 130t129 193t47.5 236.5q0 84 -21.5 161.5t-61 145.5t-94 123t-121.5 95t-144 61.5t-160 21.5q-125 0 -234.5 -48t-190.5 -130.5t-128 -193t-47 -236.5zM427 1026v55h350 q84 0 143.5 -16t98 -45.5t56.5 -70t18 -89.5q0 -77 -45.5 -135t-133.5 -86l207 -289l70 -16v-58h-225l-230 343h-49v-269l94 -16v-58h-346v58l76 16v660zM687 694h23q104 0 152 36t48 128q0 48 -13 77t-38.5 44.5t-63.5 21t-89 5.5h-19v-312z" />
<glyph unicode="&#xaf;" d="M137 1452v94h1059v-94h-1059z" />
<glyph unicode="&#xb0;" horiz-adv-x="819" d="M184 1051q0 64 24 121t66 99t98.5 66.5t121.5 24.5q64 0 121 -24.5t99 -66.5t66.5 -99t24.5 -121q0 -65 -24.5 -121.5t-66.5 -98.5t-99 -66t-121 -24q-65 0 -121.5 24t-98.5 66t-66 98.5t-24 121.5zM303 1049q0 -41 14.5 -77t40 -63t60.5 -43t75 -16q42 0 77 16t60.5 43 t40 63t14.5 77q0 43 -14.5 79.5t-40 63.5t-60.5 42.5t-77 15.5q-40 0 -75 -15.5t-60.5 -42.5t-40 -63.5t-14.5 -79.5z" />
<glyph unicode="&#xb1;" horiz-adv-x="1124" d="M85 0v141h953v-141h-953zM85 608v144h404v405h143v-405h406v-144h-406v-405h-143v405h-404z" />
<glyph unicode="&#xb2;" horiz-adv-x="614" d="M40 535l20 114q89 69 163.5 133t128 126.5t83.5 124.5t30 128q0 52 -22.5 84.5t-67.5 32.5q-28 0 -52 -8.5t-43 -22.5l-46 -116h-62l33 192q48 11 97.5 19t101.5 8q118 0 181.5 -51t63.5 -138q0 -71 -34.5 -132.5t-93.5 -119t-139 -114.5t-170 -118h363l-25 -142h-510z " />
<glyph unicode="&#xb3;" horiz-adv-x="614" d="M41 549l27 203h65l9 -132q17 -10 45.5 -17.5t61.5 -7.5q93 0 136 50t43 139q0 61 -31 90.5t-80 33.5l-68 6l14 83l63 4q60 3 96 43.5t36 129.5q0 49 -24 75.5t-67 26.5q-29 0 -52 -7t-44 -20l-47 -119h-62l34 193q44 11 89.5 19t107.5 8q56 0 101.5 -12t78 -34.5t50 -55 t17.5 -72.5q0 -97 -54.5 -150.5t-147.5 -69.5q83 -11 125.5 -54.5t42.5 -113.5q0 -54 -21.5 -102.5t-64.5 -85t-108.5 -57.5t-152.5 -21q-59 0 -117 8t-101 19z" />
<glyph unicode="&#xb4;" horiz-adv-x="682" d="M253 1118l6 33l196 272h285l-4 -37l-397 -268h-86z" />
<glyph unicode="&#xb5;" horiz-adv-x="1180" d="M-57 -436l8 45q9 19 25.5 62t35 103.5t37.5 135.5t34 159l138 781l-116 24l13 66h386l-102 -569q-4 -21 -8 -44t-7 -44t-5 -39t-2 -29q0 -97 91 -97q34 0 72 20.5t74 53t66 73t47 81.5l106 594h266l-148 -849l89 -25l-13 -66h-329l3 175q-21 -31 -51 -65t-65 -63 t-72.5 -48t-71.5 -19q-38 0 -66 11.5t-45 37.5q-11 -62 -24.5 -124.5t-28.5 -122t-31 -115t-32 -103.5h-274z" />
<glyph unicode="&#xb6;" d="M35 952q0 90 27.5 162t82 122.5t136 77.5t188.5 27h488v-73l-83 -23v-1503h-140v1503h-135v-1503h-140v803q-87 3 -164.5 29.5t-135 76.5t-91 125t-33.5 176z" />
<glyph unicode="&#xb7;" horiz-adv-x="683" d="M180 677q0 34 13 64.5t35.5 53t52.5 35.5t65 13q34 0 64.5 -13t53 -35.5t35.5 -53t13 -64.5q0 -35 -13 -65t-35.5 -52.5t-53 -35.5t-64.5 -13q-35 0 -65 13t-52.5 35.5t-35.5 52.5t-13 65z" />
<glyph unicode="&#xb8;" horiz-adv-x="682" d="M-56 -403l37 97q32 -11 59 -15t44 -4q28 0 48 8t33.5 20.5t20 29t6.5 34.5q0 35 -22.5 58t-83.5 27l86 195h91l-43 -110q36 -5 67 -17t53.5 -31t35.5 -45t13 -60q0 -54 -24.5 -94.5t-66 -67.5t-95 -40.5t-110.5 -13.5q-32 0 -71.5 6.5t-77.5 22.5z" />
<glyph unicode="&#xb9;" horiz-adv-x="614" d="M75 535l12 67l141 14l101 572l-146 -41l11 66l251 134h90l-129 -731l138 -14l-12 -67h-457z" />
<glyph unicode="&#xba;" horiz-adv-x="614" d="M125 1007q0 70 23 134.5t66 113.5t104.5 78t138.5 29q50 0 91.5 -16.5t71.5 -47t46.5 -74.5t16.5 -99q0 -71 -23 -135t-66 -113t-104.5 -78t-138.5 -29q-50 0 -91.5 16.5t-71.5 47t-46.5 74.5t-16.5 99zM284 959q0 -119 80 -119q42 0 72 33.5t49.5 83.5t29 106.5 t9.5 103.5q0 64 -21.5 93.5t-63.5 29.5q-28 0 -50.5 -16t-39.5 -42.5t-29.5 -60.5t-20.5 -71t-11.5 -73.5t-3.5 -67.5z" />
<glyph unicode="&#xbb;" d="M-2 74l260 389l-123 389h100l257 -356l-12 -66l-382 -356h-100zM407 74l261 389l-124 389h101l257 -356l-12 -66l-382 -356h-101z" />
<glyph unicode="&#xbc;" horiz-adv-x="1536" d="M64 535l12 67l141 14l101 572l-146 -41l11 66l251 134h90l-129 -731l138 -14l-12 -67h-457zM288 0l965 1341h120l-962 -1341h-123zM802 157l18 98l458 552h142l-93 -527h80l-22 -123h-80l-28 -159h-161l28 159h-342zM941 280h225l40 227q3 17 8 40t10 43q5 24 12 49z" />
<glyph unicode="&#xbd;" horiz-adv-x="1536" d="M45 535l12 67l141 14l101 572l-146 -41l11 66l251 134h90l-129 -731l138 -14l-12 -67h-457zM241 0l965 1341h120l-962 -1341h-123zM882 1l20 114q89 69 163.5 133t128 126.5t83.5 124.5t30 128q0 52 -22.5 84.5t-67.5 32.5q-28 0 -52 -8.5t-43 -22.5l-46 -116h-62l33 192 q48 11 97.5 19t101.5 8q118 0 181.5 -51t63.5 -138q0 -71 -34.5 -132.5t-93.5 -119t-139 -114.5t-170 -118h363l-25 -142h-510z" />
<glyph unicode="&#xbe;" horiz-adv-x="1536" d="M99 549l27 203h65l9 -132q17 -10 45.5 -17.5t61.5 -7.5q93 0 136 50t43 139q0 61 -31 90.5t-80 33.5l-68 6l14 83l63 4q60 3 96 43.5t36 129.5q0 49 -24 75.5t-67 26.5q-29 0 -52 -7t-44 -20l-47 -119h-62l34 193q44 11 89.5 19t107.5 8q56 0 101.5 -12t78 -34.5t50 -55 t17.5 -72.5q0 -97 -54.5 -150.5t-147.5 -69.5q83 -11 125.5 -54.5t42.5 -113.5q0 -54 -21.5 -102.5t-64.5 -85t-108.5 -57.5t-152.5 -21q-59 0 -117 8t-101 19zM318 0l965 1341h120l-962 -1341h-123zM818 157l18 98l458 552h142l-93 -527h80l-22 -123h-80l-28 -159h-161 l28 159h-342zM957 280h225l40 227q3 17 8 40t10 43q5 24 12 49z" />
<glyph unicode="&#xbf;" d="M48 -127q0 171 85 280t277 159l91 24l63 202h103l2 -313l-100 -25q-63 -16 -110 -41t-78.5 -63t-47 -92t-15.5 -127q0 -95 43.5 -149t145.5 -54q38 0 79.5 13.5t67.5 33.5l65 194h89l-40 -295q-69 -21 -149 -34.5t-163 -13.5q-206 0 -307 78.5t-101 222.5zM482 791 q0 34 13 64.5t35.5 53t52.5 35.5t65 13t65.5 -13t52.5 -35.5t34.5 -53t12.5 -64.5q0 -35 -12.5 -65t-34.5 -52.5t-52.5 -35.5t-65.5 -13t-65 13t-52.5 35.5t-35.5 52.5t-13 65z" />
<glyph unicode="&#xc0;" horiz-adv-x="1366" d="M-106 0l14 73l103 27l668 1252h240l254 -1252l109 -27l-14 -73h-549l14 73l138 27l-61 347h-472l-184 -347l148 -27l-14 -73h-394zM394 557h396l-101 561zM544 1720l7 37h265l137 -273l-6 -32h-86z" />
<glyph unicode="&#xc1;" horiz-adv-x="1366" d="M-106 0l14 73l103 27l668 1252h240l254 -1252l109 -27l-14 -73h-549l14 73l138 27l-61 347h-472l-184 -347l148 -27l-14 -73h-394zM394 557h396l-101 561zM690 1452l6 33l196 272h285l-4 -37l-397 -268h-86z" />
<glyph unicode="&#xc2;" horiz-adv-x="1366" d="M-106 0l14 73l103 27l668 1252h240l254 -1252l109 -27l-14 -73h-549l14 73l138 27l-61 347h-472l-184 -347l148 -27l-14 -73h-394zM394 557h396l-101 561zM478 1452l6 33l269 293h213l166 -293l-6 -33h-76l-220 162l-276 -162h-76z" />
<glyph unicode="&#xc3;" horiz-adv-x="1366" d="M-106 0l14 73l103 27l668 1252h240l254 -1252l109 -27l-14 -73h-549l14 73l138 27l-61 347h-472l-184 -347l148 -27l-14 -73h-394zM394 557h396l-101 561zM438 1442q13 56 34 108t52.5 91.5t76 63.5t106.5 24q52 0 90.5 -21.5t69.5 -46.5q10 -8 22.5 -18.5t26 -20.5 t28 -17t27.5 -7q37 0 58 25.5t41 86.5h99q-14 -56 -34.5 -107.5t-52.5 -91.5t-77 -63.5t-106 -23.5q-26 0 -48.5 6.5t-42 16t-36.5 22t-32 24.5q-10 8 -22 19t-25.5 21t-28 17t-28.5 7q-38 0 -59 -26t-40 -89h-99z" />
<glyph unicode="&#xc4;" horiz-adv-x="1366" d="M-106 0l14 73l103 27l668 1252h240l254 -1252l109 -27l-14 -73h-549l14 73l138 27l-61 347h-472l-184 -347l148 -27l-14 -73h-394zM394 557h396l-101 561zM516 1585q0 25 10 46.5t26.5 37.5t38.5 25.5t46 9.5q25 0 46.5 -9.5t37.5 -25.5t25.5 -37.5t9.5 -46.5 q0 -24 -9 -46t-25 -38.5t-38 -26.5t-47 -10q-24 0 -46 10t-38.5 26.5t-26.5 38.5t-10 46zM872 1585q0 25 9.5 46.5t26 37.5t38.5 25.5t47 9.5t47 -9.5t38 -25.5t25 -37.5t9 -46.5q0 -24 -9 -46t-25 -38.5t-38 -26.5t-47 -10t-47 10t-38.5 26.5t-26 38.5t-9.5 46z" />
<glyph unicode="&#xc5;" horiz-adv-x="1366" d="M-106 0l14 73l103 27l668 1252h240l254 -1252l109 -27l-14 -73h-549l14 73l138 27l-61 347h-472l-184 -347l148 -27l-14 -73h-394zM394 557h396l-101 561zM589 1450q0 44 16 82.5t44.5 67t67 45t83.5 16.5t83.5 -16.5t67 -45t44.5 -67t16 -82.5t-16 -82.5t-44.5 -67.5 t-67 -46t-83.5 -17t-83.5 17t-67 46t-44.5 67.5t-16 82.5zM702 1450q0 -20 8 -37.5t21.5 -31t31 -21.5t37.5 -8t37.5 8t31 21.5t21.5 31t8 37.5t-8 38t-21.5 31.5t-31 21.5t-37.5 8t-37.5 -8t-31 -21.5t-21.5 -31.5t-8 -38z" />
<glyph unicode="&#xc6;" horiz-adv-x="1933" d="M-161 0l12 73l125 27l852 1152l-141 18l12 71h1141l-60 -341h-91l6 217q-31 4 -67 7t-71 4.5t-67.5 2t-55.5 0.5h-200l-87 -492h283l57 148h89l-73 -412h-89l-4 152h-283l-91 -517h245q62 0 108 1.5t79 3.5t55.5 5t38.5 6l100 248h91l-84 -374h-1119l12 73l177 27l61 347 h-412l-254 -347l149 -27l-12 -73h-432zM469 557h351l112 641z" />
<glyph unicode="&#xc7;" horiz-adv-x="1366" d="M70 531q0 193 62.5 346.5t174.5 259.5t266.5 162.5t338.5 56.5q148 0 263 -16t210 -36l-53 -337h-84v194q-54 43 -130.5 66.5t-160.5 23.5q-123 0 -228 -51.5t-182 -147t-120.5 -230t-43.5 -300.5q0 -95 21 -175.5t64 -139t109 -91.5t157 -33q55 0 107.5 8.5t99 22.5 t85 32t65.5 38l77 220h85l-66 -340q-49 -16 -109.5 -31t-127.5 -27t-138 -19t-142 -7q-147 0 -259 39.5t-187.5 112t-114.5 174t-39 225.5zM407 -403l37 97q32 -11 59 -15t44 -4q28 0 48 8t33.5 20.5t20 29t6.5 34.5q0 35 -22.5 58t-83.5 27l86 195h91l-43 -110 q36 -5 67 -17t53.5 -31t35.5 -45t13 -60q0 -54 -24.5 -94.5t-66 -67.5t-95 -40.5t-110.5 -13.5q-32 0 -71.5 6.5t-77.5 22.5z" />
<glyph unicode="&#xc8;" horiz-adv-x="1366" d="M-15 0l12 73l177 27l201 1142l-167 26l13 73h1052l-60 -341h-91l6 217q-31 4 -72.5 7t-86 4.5t-87 2t-75.5 0.5h-138l-87 -492h281l57 148h89l-73 -412h-89l-4 152h-281l-91 -517h183q62 0 116.5 1.5t98.5 3.5t75.5 5t47.5 6l103 248h91l-84 -374h-1117zM528 1720l7 37 h265l137 -273l-6 -32h-86z" />
<glyph unicode="&#xc9;" horiz-adv-x="1366" d="M-15 0l12 73l177 27l201 1142l-167 26l13 73h1052l-60 -341h-91l6 217q-31 4 -72.5 7t-86 4.5t-87 2t-75.5 0.5h-138l-87 -492h281l57 148h89l-73 -412h-89l-4 152h-281l-91 -517h183q62 0 116.5 1.5t98.5 3.5t75.5 5t47.5 6l103 248h91l-84 -374h-1117zM656 1452l6 33 l196 272h285l-4 -37l-397 -268h-86z" />
<glyph unicode="&#xca;" horiz-adv-x="1366" d="M-15 0l12 73l177 27l201 1142l-167 26l13 73h1052l-60 -341h-91l6 217q-31 4 -72.5 7t-86 4.5t-87 2t-75.5 0.5h-138l-87 -492h281l57 148h89l-73 -412h-89l-4 152h-281l-91 -517h183q62 0 116.5 1.5t98.5 3.5t75.5 5t47.5 6l103 248h91l-84 -374h-1117zM506 1452l6 33 l269 293h213l166 -293l-6 -33h-76l-220 162l-276 -162h-76z" />
<glyph unicode="&#xcb;" horiz-adv-x="1366" d="M-15 0l12 73l177 27l201 1142l-167 26l13 73h1052l-60 -341h-91l6 217q-31 4 -72.5 7t-86 4.5t-87 2t-75.5 0.5h-138l-87 -492h281l57 148h89l-73 -412h-89l-4 152h-281l-91 -517h183q62 0 116.5 1.5t98.5 3.5t75.5 5t47.5 6l103 248h91l-84 -374h-1117zM525 1585 q0 25 10 46.5t26.5 37.5t38.5 25.5t46 9.5q25 0 46.5 -9.5t37.5 -25.5t25.5 -37.5t9.5 -46.5q0 -24 -9 -46t-25 -38.5t-38 -26.5t-47 -10q-24 0 -46 10t-38.5 26.5t-26.5 38.5t-10 46zM881 1585q0 25 9.5 46.5t26 37.5t38.5 25.5t47 9.5t47 -9.5t38 -25.5t25 -37.5t9 -46.5 q0 -24 -9 -46t-25 -38.5t-38 -26.5t-47 -10t-47 10t-38.5 26.5t-26 38.5t-9.5 46z" />
<glyph unicode="&#xcc;" horiz-adv-x="797" d="M-20 0l13 74l176 26l201 1141l-167 27l13 73h639l-13 -73l-177 -27l-201 -1141l167 -26l-13 -74h-638zM308 1720l7 37h265l137 -273l-6 -32h-86z" />
<glyph unicode="&#xcd;" horiz-adv-x="797" d="M-20 0l13 74l176 26l201 1141l-167 27l13 73h639l-13 -73l-177 -27l-201 -1141l167 -26l-13 -74h-638zM406 1452l6 33l196 272h285l-4 -37l-397 -268h-86z" />
<glyph unicode="&#xce;" horiz-adv-x="797" d="M-20 0l13 74l176 26l201 1141l-167 27l13 73h639l-13 -73l-177 -27l-201 -1141l167 -26l-13 -74h-638zM229 1452l6 33l269 293h213l166 -293l-6 -33h-76l-220 162l-276 -162h-76z" />
<glyph unicode="&#xcf;" horiz-adv-x="797" d="M-20 0l13 74l176 26l201 1141l-167 27l13 73h639l-13 -73l-177 -27l-201 -1141l167 -26l-13 -74h-638zM280 1585q0 25 10 46.5t26.5 37.5t38.5 25.5t46 9.5q25 0 46.5 -9.5t37.5 -25.5t25.5 -37.5t9.5 -46.5q0 -24 -9 -46t-25 -38.5t-38 -26.5t-47 -10q-24 0 -46 10 t-38.5 26.5t-26.5 38.5t-10 46zM636 1585q0 25 9.5 46.5t26 37.5t38.5 25.5t47 9.5t47 -9.5t38 -25.5t25 -37.5t9 -46.5q0 -24 -9 -46t-25 -38.5t-38 -26.5t-47 -10t-47 10t-38.5 26.5t-26 38.5t-9.5 46z" />
<glyph unicode="&#xd0;" horiz-adv-x="1479" d="M-15 0l12 73l177 27l89 509h-172l22 122h172l90 511l-167 26l13 73h521q168 0 296.5 -36t215.5 -106.5t132 -173.5t45 -237q0 -179 -57 -325t-164.5 -250t-262 -160.5t-348.5 -56.5q-118 0 -228 2t-191 2h-195zM471 114q32 -3 61.5 -5.5t62.5 -2.5q125 0 222.5 47.5 t165 135t102.5 210.5t35 275q0 125 -30 212t-84.5 141.5t-131 79t-169.5 24.5h-37l-88 -500h257l-21 -122h-258z" />
<glyph unicode="&#xd1;" horiz-adv-x="1479" d="M-19 0l12 73l177 27l201 1142l-167 26l13 73h433l435 -894l140 795l-175 26l13 73h477l-13 -73l-177 -26l-218 -1242h-115l-541 1112l-181 -1012l175 -27l-12 -73h-477zM591 1442q13 56 34 108t52.5 91.5t76 63.5t106.5 24q52 0 90.5 -21.5t69.5 -46.5q10 -8 22.5 -18.5 t26 -20.5t28 -17t27.5 -7q37 0 58 25.5t41 86.5h99q-14 -56 -34.5 -107.5t-52.5 -91.5t-77 -63.5t-106 -23.5q-26 0 -48.5 6.5t-42 16t-36.5 22t-32 24.5q-10 8 -22 19t-25.5 21t-28 17t-28.5 7q-38 0 -59 -26t-40 -89h-99z" />
<glyph unicode="&#xd2;" horiz-adv-x="1479" d="M74 524q0 113 22.5 218.5t67 198t111 169t153 131t194 85t234.5 30.5q129 0 233 -40.5t178 -113t114 -172.5t40 -218q0 -97 -19 -196.5t-59 -192t-102 -173.5t-149 -141t-199.5 -94.5t-253.5 -34.5q-129 0 -233 40.5t-178 113t-114 172t-40 218.5zM375 485 q0 -92 18.5 -166t54 -126.5t88 -81t121.5 -28.5q78 0 142.5 35.5t116 95.5t90 138t64 162t38 169.5t12.5 159.5q0 93 -19 168t-55.5 128.5t-90.5 82.5t-123 29q-77 0 -141 -36.5t-115 -97t-88.5 -139t-62.5 -163.5t-37.5 -170.5t-12.5 -159.5zM610 1720l7 37h265l137 -273 l-6 -32h-86z" />
<glyph unicode="&#xd3;" horiz-adv-x="1479" d="M74 524q0 113 22.5 218.5t67 198t111 169t153 131t194 85t234.5 30.5q129 0 233 -40.5t178 -113t114 -172.5t40 -218q0 -97 -19 -196.5t-59 -192t-102 -173.5t-149 -141t-199.5 -94.5t-253.5 -34.5q-129 0 -233 40.5t-178 113t-114 172t-40 218.5zM375 485 q0 -92 18.5 -166t54 -126.5t88 -81t121.5 -28.5q78 0 142.5 35.5t116 95.5t90 138t64 162t38 169.5t12.5 159.5q0 93 -19 168t-55.5 128.5t-90.5 82.5t-123 29q-77 0 -141 -36.5t-115 -97t-88.5 -139t-62.5 -163.5t-37.5 -170.5t-12.5 -159.5zM744 1452l6 33l196 272h285 l-4 -37l-397 -268h-86z" />
<glyph unicode="&#xd4;" horiz-adv-x="1479" d="M74 524q0 113 22.5 218.5t67 198t111 169t153 131t194 85t234.5 30.5q129 0 233 -40.5t178 -113t114 -172.5t40 -218q0 -97 -19 -196.5t-59 -192t-102 -173.5t-149 -141t-199.5 -94.5t-253.5 -34.5q-129 0 -233 40.5t-178 113t-114 172t-40 218.5zM375 485 q0 -92 18.5 -166t54 -126.5t88 -81t121.5 -28.5q78 0 142.5 35.5t116 95.5t90 138t64 162t38 169.5t12.5 159.5q0 93 -19 168t-55.5 128.5t-90.5 82.5t-123 29q-77 0 -141 -36.5t-115 -97t-88.5 -139t-62.5 -163.5t-37.5 -170.5t-12.5 -159.5zM571 1452l6 33l269 293h213 l166 -293l-6 -33h-76l-220 162l-276 -162h-76z" />
<glyph unicode="&#xd5;" horiz-adv-x="1479" d="M74 524q0 113 22.5 218.5t67 198t111 169t153 131t194 85t234.5 30.5q129 0 233 -40.5t178 -113t114 -172.5t40 -218q0 -97 -19 -196.5t-59 -192t-102 -173.5t-149 -141t-199.5 -94.5t-253.5 -34.5q-129 0 -233 40.5t-178 113t-114 172t-40 218.5zM375 485 q0 -92 18.5 -166t54 -126.5t88 -81t121.5 -28.5q78 0 142.5 35.5t116 95.5t90 138t64 162t38 169.5t12.5 159.5q0 93 -19 168t-55.5 128.5t-90.5 82.5t-123 29q-77 0 -141 -36.5t-115 -97t-88.5 -139t-62.5 -163.5t-37.5 -170.5t-12.5 -159.5zM555 1442q13 56 34 108 t52.5 91.5t76 63.5t106.5 24q52 0 90.5 -21.5t69.5 -46.5q10 -8 22.5 -18.5t26 -20.5t28 -17t27.5 -7q37 0 58 25.5t41 86.5h99q-14 -56 -34.5 -107.5t-52.5 -91.5t-77 -63.5t-106 -23.5q-26 0 -48.5 6.5t-42 16t-36.5 22t-32 24.5q-10 8 -22 19t-25.5 21t-28 17t-28.5 7 q-38 0 -59 -26t-40 -89h-99z" />
<glyph unicode="&#xd6;" horiz-adv-x="1479" d="M74 524q0 113 22.5 218.5t67 198t111 169t153 131t194 85t234.5 30.5q129 0 233 -40.5t178 -113t114 -172.5t40 -218q0 -97 -19 -196.5t-59 -192t-102 -173.5t-149 -141t-199.5 -94.5t-253.5 -34.5q-129 0 -233 40.5t-178 113t-114 172t-40 218.5zM375 485 q0 -92 18.5 -166t54 -126.5t88 -81t121.5 -28.5q78 0 142.5 35.5t116 95.5t90 138t64 162t38 169.5t12.5 159.5q0 93 -19 168t-55.5 128.5t-90.5 82.5t-123 29q-77 0 -141 -36.5t-115 -97t-88.5 -139t-62.5 -163.5t-37.5 -170.5t-12.5 -159.5zM617 1585q0 25 10 46.5 t26.5 37.5t38.5 25.5t46 9.5q25 0 46.5 -9.5t37.5 -25.5t25.5 -37.5t9.5 -46.5q0 -24 -9 -46t-25 -38.5t-38 -26.5t-47 -10q-24 0 -46 10t-38.5 26.5t-26.5 38.5t-10 46zM973 1585q0 25 9.5 46.5t26 37.5t38.5 25.5t47 9.5t47 -9.5t38 -25.5t25 -37.5t9 -46.5q0 -24 -9 -46 t-25 -38.5t-38 -26.5t-47 -10t-47 10t-38.5 26.5t-26 38.5t-9.5 46z" />
<glyph unicode="&#xd7;" horiz-adv-x="1167" d="M180 356l324 326l-324 322l104 104l322 -324l326 324l101 -102l-324 -324l324 -326l-101 -102l-326 324l-325 -324z" />
<glyph unicode="&#xd8;" horiz-adv-x="1479" d="M-39 -55l229 229q-57 70 -86.5 158.5t-29.5 191.5q0 113 22.5 218.5t67 198t111 169t153 131t194 85t234.5 30.5q119 0 216.5 -34.5t170.5 -97.5l167 167h145l-241 -242q52 -68 79.5 -153t27.5 -184q0 -97 -19 -196.5t-59 -192t-102 -173.5t-149 -141t-199.5 -94.5 t-253.5 -34.5q-114 0 -208 31.5t-166 88.5l-155 -155h-149zM375 485q0 -32 1.5 -61.5t6.5 -56.5l700 698q-34 88 -97 137t-154 49q-77 0 -141 -36.5t-115 -97t-88.5 -139t-62.5 -163.5t-37.5 -170.5t-12.5 -159.5zM416 251q34 -80 94 -124t147 -44q78 0 142.5 35.5t116 95.5 t90 138t64 162t38 169.5t12.5 159.5q0 28 -2 54t-5 51z" />
<glyph unicode="&#xd9;" horiz-adv-x="1479" d="M167 1268l13 73h619l-13 -73l-177 -26l-113 -656q-11 -62 -17 -115.5t-6 -81.5q0 -138 69.5 -202.5t197.5 -64.5q90 0 158.5 26t117 71.5t78 108t42.5 135.5l137 779l-175 26l13 73h456l-13 -73l-157 -26l-135 -771q-19 -107 -58.5 -197t-107 -155t-167.5 -101.5 t-240 -36.5q-134 0 -230 31.5t-158 87t-91.5 132.5t-29.5 167q0 37 5.5 83.5t14.5 100.5l114 659zM644 1720l7 37h265l137 -273l-6 -32h-86z" />
<glyph unicode="&#xda;" horiz-adv-x="1479" d="M167 1268l13 73h619l-13 -73l-177 -26l-113 -656q-11 -62 -17 -115.5t-6 -81.5q0 -138 69.5 -202.5t197.5 -64.5q90 0 158.5 26t117 71.5t78 108t42.5 135.5l137 779l-175 26l13 73h456l-13 -73l-157 -26l-135 -771q-19 -107 -58.5 -197t-107 -155t-167.5 -101.5 t-240 -36.5q-134 0 -230 31.5t-158 87t-91.5 132.5t-29.5 167q0 37 5.5 83.5t14.5 100.5l114 659zM797 1452l6 33l196 272h285l-4 -37l-397 -268h-86z" />
<glyph unicode="&#xdb;" horiz-adv-x="1479" d="M167 1268l13 73h619l-13 -73l-177 -26l-113 -656q-11 -62 -17 -115.5t-6 -81.5q0 -138 69.5 -202.5t197.5 -64.5q90 0 158.5 26t117 71.5t78 108t42.5 135.5l137 779l-175 26l13 73h456l-13 -73l-157 -26l-135 -771q-19 -107 -58.5 -197t-107 -155t-167.5 -101.5 t-240 -36.5q-134 0 -230 31.5t-158 87t-91.5 132.5t-29.5 167q0 37 5.5 83.5t14.5 100.5l114 659zM626 1452l6 33l269 293h213l166 -293l-6 -33h-76l-220 162l-276 -162h-76z" />
<glyph unicode="&#xdc;" horiz-adv-x="1479" d="M167 1268l13 73h619l-13 -73l-177 -26l-113 -656q-11 -62 -17 -115.5t-6 -81.5q0 -138 69.5 -202.5t197.5 -64.5q90 0 158.5 26t117 71.5t78 108t42.5 135.5l137 779l-175 26l13 73h456l-13 -73l-157 -26l-135 -771q-19 -107 -58.5 -197t-107 -155t-167.5 -101.5 t-240 -36.5q-134 0 -230 31.5t-158 87t-91.5 132.5t-29.5 167q0 37 5.5 83.5t14.5 100.5l114 659zM670 1585q0 25 10 46.5t26.5 37.5t38.5 25.5t46 9.5q25 0 46.5 -9.5t37.5 -25.5t25.5 -37.5t9.5 -46.5q0 -24 -9 -46t-25 -38.5t-38 -26.5t-47 -10q-24 0 -46 10t-38.5 26.5 t-26.5 38.5t-10 46zM1026 1585q0 25 9.5 46.5t26 37.5t38.5 25.5t47 9.5t47 -9.5t38 -25.5t25 -37.5t9 -46.5q0 -24 -9 -46t-25 -38.5t-38 -26.5t-47 -10t-47 10t-38.5 26.5t-26 38.5t-9.5 46z" />
<glyph unicode="&#xdd;" horiz-adv-x="1251" d="M105 1268l13 73h636l-13 -73l-185 -26l178 -556l364 556l-159 26l13 73h456l-13 -73l-147 -26l-466 -694l-80 -448l208 -27l-12 -73h-722l12 73l218 27l79 442l-234 700zM707 1452l6 33l196 272h285l-4 -37l-397 -268h-86z" />
<glyph unicode="&#xde;" horiz-adv-x="1251" d="M-15 0l13 74l176 26l201 1141l-167 27l13 73h639l-13 -73l-177 -27l-28 -158h109q119 0 204.5 -26t140 -72.5t80.5 -112t26 -144.5q0 -100 -31.5 -184.5t-99.5 -145.5t-174 -95.5t-254 -34.5h-145l-29 -168l168 -26l-13 -74h-639zM518 378h46q345 0 345 337 q0 132 -60.5 195t-183.5 63h-42z" />
<glyph unicode="&#xdf;" d="M-75 0l11 66l86 24l152 862q21 119 58.5 210.5t96.5 153.5t141.5 94t193.5 32q175 0 256 -82t81 -243q0 -31 -3 -63.5t-8 -68.5q-51 0 -94.5 -10t-75 -32t-49.5 -57t-18 -84q0 -39 13 -72.5t34 -66t48 -65t54 -69.5q26 -35 44.5 -84t18.5 -109q0 -80 -25.5 -145.5 t-74.5 -112.5t-121.5 -72.5t-165.5 -25.5q-80 0 -136 13.5t-82 27.5l35 223h66l17 -134q17 -15 39.5 -26t57.5 -11t61.5 13.5t44.5 37t27 56.5t9 72q0 42 -11 77t-29.5 67t-43 62.5t-52.5 63.5q-30 36 -50.5 86t-20.5 113q0 57 16.5 108t45.5 91.5t70 69.5t89 43 q5 38 8.5 76.5t3.5 66.5q0 83 -24.5 124t-78.5 41q-41 0 -70 -24t-51.5 -73t-40.5 -122t-35 -170l-167 -952h-351z" />
<glyph unicode="&#xe0;" d="M24 319q0 129 40.5 246t114.5 205.5t178 141t231 52.5q72 0 136.5 -12.5t114.5 -32.5l82 37h54l-152 -866l109 -32l-8 -58h-347l-4 138q-27 -34 -59.5 -63t-69 -50.5t-76 -33.5t-80.5 -12q-58 0 -106.5 21t-83.5 63.5t-54.5 106.5t-19.5 149zM287 351q0 -58 10.5 -100.5 t28 -70t39 -40.5t43.5 -13q23 0 47.5 12.5t48 33t44.5 45t37 48.5l99 563q-21 16 -55 25t-69 9q-61 0 -111.5 -45t-86.5 -118t-55.5 -164.5t-19.5 -184.5zM397 1386l7 37h265l137 -273l-6 -32h-86z" />
<glyph unicode="&#xe1;" d="M24 319q0 129 40.5 246t114.5 205.5t178 141t231 52.5q72 0 136.5 -12.5t114.5 -32.5l82 37h54l-152 -866l109 -32l-8 -58h-347l-4 138q-27 -34 -59.5 -63t-69 -50.5t-76 -33.5t-80.5 -12q-58 0 -106.5 21t-83.5 63.5t-54.5 106.5t-19.5 149zM287 351q0 -58 10.5 -100.5 t28 -70t39 -40.5t43.5 -13q23 0 47.5 12.5t48 33t44.5 45t37 48.5l99 563q-21 16 -55 25t-69 9q-61 0 -111.5 -45t-86.5 -118t-55.5 -164.5t-19.5 -184.5zM543 1118l6 33l196 272h285l-4 -37l-397 -268h-86z" />
<glyph unicode="&#xe2;" d="M24 319q0 129 40.5 246t114.5 205.5t178 141t231 52.5q72 0 136.5 -12.5t114.5 -32.5l82 37h54l-152 -866l109 -32l-8 -58h-347l-4 138q-27 -34 -59.5 -63t-69 -50.5t-76 -33.5t-80.5 -12q-58 0 -106.5 21t-83.5 63.5t-54.5 106.5t-19.5 149zM287 351q0 -58 10.5 -100.5 t28 -70t39 -40.5t43.5 -13q23 0 47.5 12.5t48 33t44.5 45t37 48.5l99 563q-21 16 -55 25t-69 9q-61 0 -111.5 -45t-86.5 -118t-55.5 -164.5t-19.5 -184.5zM305 1118l6 33l269 293h213l166 -293l-6 -33h-76l-220 162l-276 -162h-76z" />
<glyph unicode="&#xe3;" d="M24 319q0 129 40.5 246t114.5 205.5t178 141t231 52.5q72 0 136.5 -12.5t114.5 -32.5l82 37h54l-152 -866l109 -32l-8 -58h-347l-4 138q-27 -34 -59.5 -63t-69 -50.5t-76 -33.5t-80.5 -12q-58 0 -106.5 21t-83.5 63.5t-54.5 106.5t-19.5 149zM256 1108q13 56 34 108 t52.5 91.5t76 63.5t106.5 24q52 0 90.5 -21.5t69.5 -46.5q10 -8 22.5 -18.5t26 -20.5t28 -17t27.5 -7q37 0 58 25.5t41 86.5h99q-14 -56 -34.5 -107.5t-52.5 -91.5t-77 -63.5t-106 -23.5q-26 0 -48.5 6.5t-42 16t-36.5 22t-32 24.5q-10 8 -22 19t-25.5 21t-28 17t-28.5 7 q-38 0 -59 -26t-40 -89h-99zM287 351q0 -58 10.5 -100.5t28 -70t39 -40.5t43.5 -13q23 0 47.5 12.5t48 33t44.5 45t37 48.5l99 563q-21 16 -55 25t-69 9q-61 0 -111.5 -45t-86.5 -118t-55.5 -164.5t-19.5 -184.5z" />
<glyph unicode="&#xe4;" d="M24 319q0 129 40.5 246t114.5 205.5t178 141t231 52.5q72 0 136.5 -12.5t114.5 -32.5l82 37h54l-152 -866l109 -32l-8 -58h-347l-4 138q-27 -34 -59.5 -63t-69 -50.5t-76 -33.5t-80.5 -12q-58 0 -106.5 21t-83.5 63.5t-54.5 106.5t-19.5 149zM287 351q0 -58 10.5 -100.5 t28 -70t39 -40.5t43.5 -13q23 0 47.5 12.5t48 33t44.5 45t37 48.5l99 563q-21 16 -55 25t-69 9q-61 0 -111.5 -45t-86.5 -118t-55.5 -164.5t-19.5 -184.5zM332 1251q0 25 10 46.5t26.5 37.5t38.5 25.5t46 9.5q25 0 46.5 -9.5t37.5 -25.5t25.5 -37.5t9.5 -46.5q0 -24 -9 -46 t-25 -38.5t-38 -26.5t-47 -10q-24 0 -46 10t-38.5 26.5t-26.5 38.5t-10 46zM688 1251q0 25 9.5 46.5t26 37.5t38.5 25.5t47 9.5t47 -9.5t38 -25.5t25 -37.5t9 -46.5q0 -24 -9 -46t-25 -38.5t-38 -26.5t-47 -10t-47 10t-38.5 26.5t-26 38.5t-9.5 46z" />
<glyph unicode="&#xe5;" d="M24 319q0 129 40.5 246t114.5 205.5t178 141t231 52.5q72 0 136.5 -12.5t114.5 -32.5l82 37h54l-152 -866l109 -32l-8 -58h-347l-4 138q-27 -34 -59.5 -63t-69 -50.5t-76 -33.5t-80.5 -12q-58 0 -106.5 21t-83.5 63.5t-54.5 106.5t-19.5 149zM287 351q0 -58 10.5 -100.5 t28 -70t39 -40.5t43.5 -13q23 0 47.5 12.5t48 33t44.5 45t37 48.5l99 563q-21 16 -55 25t-69 9q-61 0 -111.5 -45t-86.5 -118t-55.5 -164.5t-19.5 -184.5zM426 1272q0 44 16 82.5t44.5 67t67 45t83.5 16.5t83.5 -16.5t67 -45t44.5 -67t16 -82.5t-16 -82.5t-44.5 -67.5 t-67 -46t-83.5 -17t-83.5 17t-67 46t-44.5 67.5t-16 82.5zM539 1272q0 -20 8 -37.5t21.5 -31t31 -21.5t37.5 -8t37.5 8t31 21.5t21.5 31t8 37.5t-8 38t-21.5 31.5t-31 21.5t-37.5 8t-37.5 -8t-31 -21.5t-21.5 -31.5t-8 -38z" />
<glyph unicode="&#xe6;" horiz-adv-x="1479" d="M26 319q0 129 43.5 246t121.5 205.5t185 141t234 52.5q36 0 74.5 -6.5t75 -16t69.5 -22t58 -24.5q24 16 53 29t61.5 22t66.5 14t67 5q73 0 129 -15.5t93.5 -43t57 -65t19.5 -81.5q0 -65 -37 -124.5t-107.5 -106.5t-172 -79t-230.5 -42q-1 -4 -2 -12.5t-1.5 -18t-1 -20 t-0.5 -17.5q0 -45 9.5 -87.5t31.5 -75.5t59 -53t91 -20q37 0 69.5 8t62 21t57 30t54.5 35l44 -63q-31 -26 -73 -53.5t-92 -50t-106.5 -37t-117.5 -14.5q-138 0 -215.5 47t-111.5 131q-43 -51 -85 -85.5t-83 -55t-82.5 -29.5t-83.5 -9q-58 0 -109.5 21t-90.5 63.5 t-61.5 106.5t-22.5 149zM289 351q0 -60 10.5 -102.5t28.5 -69.5t42.5 -39.5t51.5 -12.5q23 0 51.5 12.5t56 32t52.5 44t41 48.5q-1 11 -2 29t-1 37q0 55 9 114t28.5 118.5t49 117t70.5 108.5q-21 15 -45.5 29t-50.5 24t-51.5 16t-47.5 6q-61 0 -114.5 -45t-93 -118 t-62.5 -164.5t-23 -184.5zM901 508q67 7 122 32.5t94.5 62t61 81t21.5 89.5q0 42 -24.5 63t-52.5 21q-38 0 -73.5 -30t-65 -79t-51.5 -111.5t-32 -128.5z" />
<glyph unicode="&#xe7;" horiz-adv-x="909" d="M30 330q0 156 48.5 275t127 199t178 120.5t201.5 40.5q40 0 82 -4t81.5 -10.5t73.5 -14.5t57 -16l-49 -288h-72l-14 171q-25 28 -60.5 44t-85.5 16q-58 0 -112 -38.5t-96 -107.5t-67 -165t-25 -212q0 -63 13.5 -108t36.5 -73.5t55 -41.5t68 -13q75 0 136.5 27t118.5 67 l44 -63q-27 -24 -66 -51t-87.5 -50t-105.5 -38.5t-120 -15.5q-90 0 -158 25.5t-113 72t-67.5 110.5t-22.5 142zM88 -403l37 97q32 -11 59 -15t44 -4q28 0 48 8t33.5 20.5t20 29t6.5 34.5q0 35 -22.5 58t-83.5 27l86 195h91l-43 -110q36 -5 67 -17t53.5 -31t35.5 -45t13 -60 q0 -54 -24.5 -94.5t-66 -67.5t-95 -40.5t-110.5 -13.5q-32 0 -71.5 6.5t-77.5 22.5z" />
<glyph unicode="&#xe8;" horiz-adv-x="909" d="M48 330q0 89 19.5 170.5t55 152t83.5 128t105.5 98.5t121.5 63.5t130 22.5q73 0 129 -15.5t94.5 -43t58 -65t19.5 -81.5q0 -65 -36 -124.5t-105 -106.5t-169 -79t-229 -42q-1 -4 -2 -12.5t-1.5 -18t-1 -20t-0.5 -17.5q0 -45 8 -87.5t28 -75.5t55.5 -53t89.5 -20 q74 0 137 28.5t118 65.5l44 -63q-31 -26 -73 -53.5t-92 -50t-107 -37t-117 -14.5q-94 0 -162.5 24.5t-113 69.5t-66 110t-21.5 146zM330 1386l7 37h265l137 -273l-6 -32h-86zM341 508q67 7 119 32.5t87.5 62t54 81t18.5 89.5q0 42 -20.5 63t-48.5 21q-38 0 -71.5 -30 t-61 -79t-47.5 -111.5t-30 -128.5z" />
<glyph unicode="&#xe9;" horiz-adv-x="909" d="M48 330q0 89 19.5 170.5t55 152t83.5 128t105.5 98.5t121.5 63.5t130 22.5q73 0 129 -15.5t94.5 -43t58 -65t19.5 -81.5q0 -65 -36 -124.5t-105 -106.5t-169 -79t-229 -42q-1 -4 -2 -12.5t-1.5 -18t-1 -20t-0.5 -17.5q0 -45 8 -87.5t28 -75.5t55.5 -53t89.5 -20 q74 0 137 28.5t118 65.5l44 -63q-31 -26 -73 -53.5t-92 -50t-107 -37t-117 -14.5q-94 0 -162.5 24.5t-113 69.5t-66 110t-21.5 146zM341 508q67 7 119 32.5t87.5 62t54 81t18.5 89.5q0 42 -20.5 63t-48.5 21q-38 0 -71.5 -30t-61 -79t-47.5 -111.5t-30 -128.5zM479 1118 l6 33l196 272h285l-4 -37l-397 -268h-86z" />
<glyph unicode="&#xea;" horiz-adv-x="909" d="M48 330q0 89 19.5 170.5t55 152t83.5 128t105.5 98.5t121.5 63.5t130 22.5q73 0 129 -15.5t94.5 -43t58 -65t19.5 -81.5q0 -65 -36 -124.5t-105 -106.5t-169 -79t-229 -42q-1 -4 -2 -12.5t-1.5 -18t-1 -20t-0.5 -17.5q0 -45 8 -87.5t28 -75.5t55.5 -53t89.5 -20 q74 0 137 28.5t118 65.5l44 -63q-31 -26 -73 -53.5t-92 -50t-107 -37t-117 -14.5q-94 0 -162.5 24.5t-113 69.5t-66 110t-21.5 146zM259 1118l6 33l269 293h213l166 -293l-6 -33h-76l-220 162l-276 -162h-76zM341 508q67 7 119 32.5t87.5 62t54 81t18.5 89.5q0 42 -20.5 63 t-48.5 21q-38 0 -71.5 -30t-61 -79t-47.5 -111.5t-30 -128.5z" />
<glyph unicode="&#xeb;" horiz-adv-x="909" d="M48 330q0 89 19.5 170.5t55 152t83.5 128t105.5 98.5t121.5 63.5t130 22.5q73 0 129 -15.5t94.5 -43t58 -65t19.5 -81.5q0 -65 -36 -124.5t-105 -106.5t-169 -79t-229 -42q-1 -4 -2 -12.5t-1.5 -18t-1 -20t-0.5 -17.5q0 -45 8 -87.5t28 -75.5t55.5 -53t89.5 -20 q74 0 137 28.5t118 65.5l44 -63q-31 -26 -73 -53.5t-92 -50t-107 -37t-117 -14.5q-94 0 -162.5 24.5t-113 69.5t-66 110t-21.5 146zM281 1251q0 25 10 46.5t26.5 37.5t38.5 25.5t46 9.5q25 0 46.5 -9.5t37.5 -25.5t25.5 -37.5t9.5 -46.5q0 -24 -9 -46t-25 -38.5t-38 -26.5 t-47 -10q-24 0 -46 10t-38.5 26.5t-26.5 38.5t-10 46zM341 508q67 7 119 32.5t87.5 62t54 81t18.5 89.5q0 42 -20.5 63t-48.5 21q-38 0 -71.5 -30t-61 -79t-47.5 -111.5t-30 -128.5zM637 1251q0 25 9.5 46.5t26 37.5t38.5 25.5t47 9.5t47 -9.5t38 -25.5t25 -37.5t9 -46.5 q0 -24 -9 -46t-25 -38.5t-38 -26.5t-47 -10t-47 10t-38.5 26.5t-26 38.5t-9.5 46z" />
<glyph unicode="&#xec;" horiz-adv-x="569" d="M47 0l150 850l-91 24l11 66h365l-150 -850l119 -24l-11 -66h-393zM101 1386l7 37h265l137 -273l-6 -32h-86z" />
<glyph unicode="&#xed;" horiz-adv-x="569" d="M47 0l150 850l-91 24l11 66h365l-150 -850l119 -24l-11 -66h-393zM221 1118l6 33l196 272h285l-4 -37l-397 -268h-86z" />
<glyph unicode="&#xee;" horiz-adv-x="569" d="M24 1118l6 33l269 293h213l166 -293l-6 -33h-76l-220 162l-276 -162h-76zM47 0l150 850l-91 24l11 66h365l-150 -850l119 -24l-11 -66h-393z" />
<glyph unicode="&#xef;" horiz-adv-x="569" d="M47 0l150 850l-91 24l11 66h365l-150 -850l119 -24l-11 -66h-393zM78 1251q0 25 10 46.5t26.5 37.5t38.5 25.5t46 9.5q25 0 46.5 -9.5t37.5 -25.5t25.5 -37.5t9.5 -46.5q0 -24 -9 -46t-25 -38.5t-38 -26.5t-47 -10q-24 0 -46 10t-38.5 26.5t-26.5 38.5t-10 46zM434 1251 q0 25 9.5 46.5t26 37.5t38.5 25.5t47 9.5t47 -9.5t38 -25.5t25 -37.5t9 -46.5q0 -24 -9 -46t-25 -38.5t-38 -26.5t-47 -10t-47 10t-38.5 26.5t-26 38.5t-9.5 46z" />
<glyph unicode="&#xf0;" d="M35 353q0 127 38.5 228.5t109 173t169.5 110t219 38.5q29 0 62 -4t55 -9q-4 59 -27.5 125t-68.5 124l-281 -148l22 126l191 100q-34 29 -75 54t-92 42l19 108q85 -20 153.5 -51.5t133.5 -75.5l314 165l-22 -124l-211 -111q96 -92 154 -225.5t58 -311.5q0 -91 -15 -179 t-45.5 -166.5t-76 -144.5t-106 -114.5t-136.5 -75.5t-167 -27q-78 0 -146.5 25t-119 72.5t-80 117t-29.5 158.5zM301 283q0 -102 36 -153t95 -51q51 0 97 44t81 118t55.5 171.5t20.5 204.5q0 53 -10.5 89t-28 57.5t-40.5 31t-49 9.5q-47 0 -93 -42.5t-82.5 -114t-59 -166 t-22.5 -198.5z" />
<glyph unicode="&#xf1;" horiz-adv-x="1139" d="M42 0l148 849l-89 25l13 66h334l-8 -175q76 98 169.5 149t210.5 51q46 0 85.5 -12.5t68.5 -37.5t45 -63t16 -89q0 -18 -2.5 -41t-6.5 -47.5l-8 -49t-8 -45.5l-87 -490l116 -24l-13 -66h-386l102 569q4 21 8 44t7 44t5 39t2 29q0 97 -91 97q-34 0 -72 -20.5t-74 -53 t-66 -73.5t-47 -81l-106 -594h-266zM314 1108q13 56 34 108t52.5 91.5t76 63.5t106.5 24q52 0 90.5 -21.5t69.5 -46.5q10 -8 22.5 -18.5t26 -20.5t28 -17t27.5 -7q37 0 58 25.5t41 86.5h99q-14 -56 -34.5 -107.5t-52.5 -91.5t-77 -63.5t-106 -23.5q-26 0 -48.5 6.5t-42 16 t-36.5 22t-32 24.5q-10 8 -22 19t-25.5 21t-28 17t-28.5 7q-38 0 -59 -26t-40 -89h-99z" />
<glyph unicode="&#xf2;" d="M32 374q0 117 38 224t109.5 188.5t173 130t227.5 48.5q83 0 152 -27t118.5 -78t76.5 -124t27 -165q0 -117 -38 -224t-109.5 -188.5t-173 -130t-227.5 -48.5q-83 0 -152 27t-118.5 78t-76.5 124t-27 165zM297 319q0 -115 37 -177.5t95 -62.5q47 0 92.5 40.5t81.5 113 t58 172.5t22 220q0 117 -31 179t-94 62q-47 0 -94 -43.5t-84 -118.5t-60 -174.5t-23 -210.5zM337 1386l7 37h265l137 -273l-6 -32h-86z" />
<glyph unicode="&#xf3;" d="M32 374q0 117 38 224t109.5 188.5t173 130t227.5 48.5q83 0 152 -27t118.5 -78t76.5 -124t27 -165q0 -117 -38 -224t-109.5 -188.5t-173 -130t-227.5 -48.5q-83 0 -152 27t-118.5 78t-76.5 124t-27 165zM297 319q0 -115 37 -177.5t95 -62.5q47 0 92.5 40.5t81.5 113 t58 172.5t22 220q0 117 -31 179t-94 62q-47 0 -94 -43.5t-84 -118.5t-60 -174.5t-23 -210.5zM469 1118l6 33l196 272h285l-4 -37l-397 -268h-86z" />
<glyph unicode="&#xf4;" d="M32 374q0 117 38 224t109.5 188.5t173 130t227.5 48.5q83 0 152 -27t118.5 -78t76.5 -124t27 -165q0 -117 -38 -224t-109.5 -188.5t-173 -130t-227.5 -48.5q-83 0 -152 27t-118.5 78t-76.5 124t-27 165zM281 1118l6 33l269 293h213l166 -293l-6 -33h-76l-220 162 l-276 -162h-76zM297 319q0 -115 37 -177.5t95 -62.5q47 0 92.5 40.5t81.5 113t58 172.5t22 220q0 117 -31 179t-94 62q-47 0 -94 -43.5t-84 -118.5t-60 -174.5t-23 -210.5z" />
<glyph unicode="&#xf5;" d="M32 374q0 117 38 224t109.5 188.5t173 130t227.5 48.5q83 0 152 -27t118.5 -78t76.5 -124t27 -165q0 -117 -38 -224t-109.5 -188.5t-173 -130t-227.5 -48.5q-83 0 -152 27t-118.5 78t-76.5 124t-27 165zM256 1108q13 56 34 108t52.5 91.5t76 63.5t106.5 24 q52 0 90.5 -21.5t69.5 -46.5q10 -8 22.5 -18.5t26 -20.5t28 -17t27.5 -7q37 0 58 25.5t41 86.5h99q-14 -56 -34.5 -107.5t-52.5 -91.5t-77 -63.5t-106 -23.5q-26 0 -48.5 6.5t-42 16t-36.5 22t-32 24.5q-10 8 -22 19t-25.5 21t-28 17t-28.5 7q-38 0 -59 -26t-40 -89h-99z M297 319q0 -115 37 -177.5t95 -62.5q47 0 92.5 40.5t81.5 113t58 172.5t22 220q0 117 -31 179t-94 62q-47 0 -94 -43.5t-84 -118.5t-60 -174.5t-23 -210.5z" />
<glyph unicode="&#xf6;" d="M32 374q0 117 38 224t109.5 188.5t173 130t227.5 48.5q83 0 152 -27t118.5 -78t76.5 -124t27 -165q0 -117 -38 -224t-109.5 -188.5t-173 -130t-227.5 -48.5q-83 0 -152 27t-118.5 78t-76.5 124t-27 165zM297 319q0 -115 37 -177.5t95 -62.5q47 0 92.5 40.5t81.5 113 t58 172.5t22 220q0 117 -31 179t-94 62q-47 0 -94 -43.5t-84 -118.5t-60 -174.5t-23 -210.5zM324 1251q0 25 10 46.5t26.5 37.5t38.5 25.5t46 9.5q25 0 46.5 -9.5t37.5 -25.5t25.5 -37.5t9.5 -46.5q0 -24 -9 -46t-25 -38.5t-38 -26.5t-47 -10q-24 0 -46 10t-38.5 26.5 t-26.5 38.5t-10 46zM680 1251q0 25 9.5 46.5t26 37.5t38.5 25.5t47 9.5t47 -9.5t38 -25.5t25 -37.5t9 -46.5q0 -24 -9 -46t-25 -38.5t-38 -26.5t-47 -10t-47 10t-38.5 26.5t-26 38.5t-9.5 46z" />
<glyph unicode="&#xf7;" horiz-adv-x="1124" d="M100 608v143h952v-143h-952zM441 317q0 28 10.5 52.5t28.5 42.5t42.5 28.5t52.5 10.5t52.5 -10.5t42.5 -28.5t28.5 -42.5t10.5 -52.5t-10.5 -52.5t-28.5 -42.5t-42.5 -28.5t-52.5 -10.5t-52.5 10.5t-42.5 28.5t-28.5 42.5t-10.5 52.5zM441 1043q0 28 10.5 52.5t28.5 42.5 t42.5 28.5t52.5 10.5t52.5 -10.5t42.5 -28.5t28.5 -42.5t10.5 -52.5t-10.5 -52.5t-28.5 -42.5t-42.5 -28.5t-52.5 -10.5t-52.5 10.5t-42.5 28.5t-28.5 42.5t-10.5 52.5z" />
<glyph unicode="&#xf8;" d="M-47 -84l164 190q-41 51 -63 117.5t-22 150.5q0 117 38 224t109.5 188.5t173 130t227.5 48.5q130 0 221 -64l104 121h124l-159 -185q40 -51 62 -117.5t22 -148.5q0 -117 -38 -224t-109.5 -188.5t-173 -130t-227.5 -48.5q-128 0 -219 61l-107 -125h-127zM297 315l373 434 q-14 57 -41.5 87t-70.5 30q-47 0 -94 -43.5t-84 -118.5t-60 -174.5t-23 -210.5v-4zM314 189q17 -54 46.5 -82t68.5 -28q46 0 91.5 40t81.5 111.5t58 170.5t23 218z" />
<glyph unicode="&#xf9;" horiz-adv-x="1139" d="M75 874l13 66h386l-102 -568q-4 -21 -8 -44t-7 -44t-5 -39t-2 -29q0 -97 91 -97q34 0 72 20.5t74 53t66 73t47 81.5l106 593h266l-148 -849l109 -25l-13 -66h-354l8 176q-76 -98 -169.5 -149t-210.5 -51q-47 0 -86 12.5t-68 38.5t-45 66t-16 94q0 12 2.5 34.5t6.5 49 t9 54.5t9 51l85 474zM421 1386l7 37h265l137 -273l-6 -32h-86z" />
<glyph unicode="&#xfa;" horiz-adv-x="1139" d="M75 874l13 66h386l-102 -568q-4 -21 -8 -44t-7 -44t-5 -39t-2 -29q0 -97 91 -97q34 0 72 20.5t74 53t66 73t47 81.5l106 593h266l-148 -849l109 -25l-13 -66h-354l8 176q-76 -98 -169.5 -149t-210.5 -51q-47 0 -86 12.5t-68 38.5t-45 66t-16 94q0 12 2.5 34.5t6.5 49 t9 54.5t9 51l85 474zM503 1118l6 33l196 272h285l-4 -37l-397 -268h-86z" />
<glyph unicode="&#xfb;" horiz-adv-x="1139" d="M75 874l13 66h386l-102 -568q-4 -21 -8 -44t-7 -44t-5 -39t-2 -29q0 -97 91 -97q34 0 72 20.5t74 53t66 73t47 81.5l106 593h266l-148 -849l109 -25l-13 -66h-354l8 176q-76 -98 -169.5 -149t-210.5 -51q-47 0 -86 12.5t-68 38.5t-45 66t-16 94q0 12 2.5 34.5t6.5 49 t9 54.5t9 51l85 474zM339 1118l6 33l269 293h213l166 -293l-6 -33h-76l-220 162l-276 -162h-76z" />
<glyph unicode="&#xfc;" horiz-adv-x="1139" d="M75 874l13 66h386l-102 -568q-4 -21 -8 -44t-7 -44t-5 -39t-2 -29q0 -97 91 -97q34 0 72 20.5t74 53t66 73t47 81.5l106 593h266l-148 -849l109 -25l-13 -66h-354l8 176q-76 -98 -169.5 -149t-210.5 -51q-47 0 -86 12.5t-68 38.5t-45 66t-16 94q0 12 2.5 34.5t6.5 49 t9 54.5t9 51l85 474zM372 1251q0 25 10 46.5t26.5 37.5t38.5 25.5t46 9.5q25 0 46.5 -9.5t37.5 -25.5t25.5 -37.5t9.5 -46.5q0 -24 -9 -46t-25 -38.5t-38 -26.5t-47 -10q-24 0 -46 10t-38.5 26.5t-26.5 38.5t-10 46zM728 1251q0 25 9.5 46.5t26 37.5t38.5 25.5t47 9.5 t47 -9.5t38 -25.5t25 -37.5t9 -46.5q0 -24 -9 -46t-25 -38.5t-38 -26.5t-47 -10t-47 10t-38.5 26.5t-26 38.5t-9.5 46z" />
<glyph unicode="&#xfd;" horiz-adv-x="909" d="M-205 -423l42 242h60l20 -126q12 -11 28.5 -17t41.5 -6q37 0 74 23.5t73 62t70.5 88.5t67.5 104l28 47l-214 855l-61 24l11 66h303l152 -639l181 300q14 23 25.5 48t20 49t13.5 45.5t5 37.5q0 25 -7.5 41t-20 26.5t-29 16t-33.5 10.5l12 65h231q9 -8 17.5 -25t8.5 -38 q0 -16 -3 -37t-12 -48t-25 -61t-41 -74l-439 -716q-49 -80 -98 -150t-101.5 -121.5t-111.5 -81.5t-128 -30q-28 0 -48.5 1t-38.5 3.5t-35.5 6t-38.5 8.5zM407 1118l6 33l196 272h285l-4 -37l-397 -268h-86z" />
<glyph unicode="&#xfe;" d="M-167 -436l12 65l104 24l297 1683l-99 25l12 60h370l-76 -432q-10 -56 -21.5 -108t-22.5 -90q27 40 61 72.5t73 55t81 34.5t85 12q53 0 98.5 -21.5t78.5 -63.5t51.5 -104.5t18.5 -144.5q0 -129 -35.5 -247t-102 -207.5t-162 -143t-214.5 -53.5q-22 0 -46 3t-47 7.5 t-43 10.5t-33 12q-1 -12 -2.5 -29.5t-3.5 -35.5t-4.5 -34t-3.5 -25l-38 -236l160 -24l-12 -65h-536zM301 127q12 -12 29.5 -21t35.5 -15t35 -9t29 -3q59 0 107.5 44t83 116t53.5 163t19 185q0 62 -10.5 105t-27 70t-37.5 39t-42 12q-17 0 -38.5 -10.5t-45.5 -29t-48.5 -44 t-45.5 -55.5z" />
<glyph unicode="&#xff;" horiz-adv-x="909" d="M-205 -423l42 242h60l20 -126q12 -11 28.5 -17t41.5 -6q37 0 74 23.5t73 62t70.5 88.5t67.5 104l28 47l-214 855l-61 24l11 66h303l152 -639l181 300q14 23 25.5 48t20 49t13.5 45.5t5 37.5q0 25 -7.5 41t-20 26.5t-29 16t-33.5 10.5l12 65h231q9 -8 17.5 -25t8.5 -38 q0 -16 -3 -37t-12 -48t-25 -61t-41 -74l-439 -716q-49 -80 -98 -150t-101.5 -121.5t-111.5 -81.5t-128 -30q-28 0 -48.5 1t-38.5 3.5t-35.5 6t-38.5 8.5zM238 1251q0 25 10 46.5t26.5 37.5t38.5 25.5t46 9.5q25 0 46.5 -9.5t37.5 -25.5t25.5 -37.5t9.5 -46.5q0 -24 -9 -46 t-25 -38.5t-38 -26.5t-47 -10q-24 0 -46 10t-38.5 26.5t-26.5 38.5t-10 46zM594 1251q0 25 9.5 46.5t26 37.5t38.5 25.5t47 9.5t47 -9.5t38 -25.5t25 -37.5t9 -46.5q0 -24 -9 -46t-25 -38.5t-38 -26.5t-47 -10t-47 10t-38.5 26.5t-26 38.5t-9.5 46z" />
<glyph unicode="&#x152;" horiz-adv-x="1933" d="M71 524q0 169 50.5 319t149.5 262.5t245 178t337 65.5q38 0 92 -2t109 -6h793l-60 -341h-91l6 217q-31 4 -78 7t-96 4.5t-92.5 2t-66.5 0.5h-58l-87 -492h213l57 148h89l-73 -412h-89l-4 152h-213l-91 -517h103q62 0 119 1.5t103.5 3.5t80.5 5t50 6l100 248h91l-84 -374 h-875q-52 -3 -91 -5t-74 -2q-129 0 -233 38.5t-178 108.5t-114 167.5t-40 216.5zM372 485q0 -92 18.5 -164.5t54 -123t88 -77.5t121.5 -27q50 0 89 5.5t76 18.5l194 1102q-20 6 -38.5 11.5t-39 9t-43.5 6t-53 2.5q-80 0 -145.5 -36t-117.5 -96t-90.5 -138.5t-63.5 -163.5 t-37.5 -170t-12.5 -159z" />
<glyph unicode="&#x153;" horiz-adv-x="1479" d="M45 320q0 35 3 74t11 81q21 119 62.5 210.5t105 153.5t149.5 94t197 32q100 0 164.5 -36t100.5 -96q60 62 134.5 97t162.5 35q147 0 224 -54t77 -151q0 -65 -36 -124.5t-105 -106.5t-169 -79t-229 -42q-1 -4 -2 -12.5t-1.5 -18t-1 -20t-0.5 -17.5q0 -45 8 -87.5t28 -75.5 t55.5 -53t89.5 -20q74 0 137 28.5t118 65.5l44 -63q-31 -26 -73 -53.5t-90.5 -50t-103 -37t-111.5 -14.5q-108 0 -178 33.5t-109 93.5q-58 -58 -135.5 -92.5t-180.5 -34.5q-177 0 -261.5 86t-84.5 254zM307 242q0 -81 23.5 -121.5t80.5 -40.5q45 0 79 25t60.5 75t47 123.5 t37.5 171.5q12 67 18.5 122t6.5 99q0 85 -26 126.5t-85 41.5q-44 0 -76.5 -24t-58 -73t-45 -122t-36.5 -170q-13 -71 -19.5 -129t-6.5 -104zM913 508q67 7 119 32.5t87.5 62t54 81t18.5 89.5q0 42 -20.5 63t-48.5 21q-38 0 -71.5 -30t-61 -79t-47.5 -111.5t-30 -128.5z" />
<glyph unicode="&#x178;" horiz-adv-x="1251" d="M105 1268l13 73h636l-13 -73l-185 -26l178 -556l364 556l-159 26l13 73h456l-13 -73l-147 -26l-466 -694l-80 -448l208 -27l-12 -73h-722l12 73l218 27l79 442l-234 700zM558 1652q0 25 10 46.5t26.5 37.5t38.5 25.5t46 9.5q25 0 46.5 -9.5t37.5 -25.5t25.5 -37.5 t9.5 -46.5q0 -24 -9 -46t-25 -38.5t-38 -26.5t-47 -10q-24 0 -46 10t-38.5 26.5t-26.5 38.5t-10 46zM914 1652q0 25 9.5 46.5t26 37.5t38.5 25.5t47 9.5t47 -9.5t38 -25.5t25 -37.5t9 -46.5q0 -24 -9 -46t-25 -38.5t-38 -26.5t-47 -10t-47 10t-38.5 26.5t-26 38.5t-9.5 46z " />
<glyph unicode="&#x2c6;" horiz-adv-x="682" d="M113 1118l6 33l269 293h213l166 -293l-6 -33h-76l-220 162l-276 -162h-76z" />
<glyph unicode="&#x2dc;" horiz-adv-x="682" d="M94 1108q13 56 34 108t52.5 91.5t76 63.5t106.5 24q52 0 90.5 -21.5t69.5 -46.5q10 -8 22.5 -18.5t26 -20.5t28 -17t27.5 -7q37 0 58 25.5t41 86.5h99q-14 -56 -34.5 -107.5t-52.5 -91.5t-77 -63.5t-106 -23.5q-26 0 -48.5 6.5t-42 16t-36.5 22t-32 24.5q-10 8 -22 19 t-25.5 21t-28 17t-28.5 7q-38 0 -59 -26t-40 -89h-99z" />
<glyph unicode="&#x2000;" horiz-adv-x="889" />
<glyph unicode="&#x2001;" horiz-adv-x="1778" />
<glyph unicode="&#x2002;" horiz-adv-x="889" />
<glyph unicode="&#x2003;" horiz-adv-x="1778" />
<glyph unicode="&#x2004;" horiz-adv-x="592" />
<glyph unicode="&#x2005;" horiz-adv-x="444" />
<glyph unicode="&#x2006;" horiz-adv-x="296" />
<glyph unicode="&#x2007;" horiz-adv-x="296" />
<glyph unicode="&#x2008;" horiz-adv-x="222" />
<glyph unicode="&#x2009;" horiz-adv-x="355" />
<glyph unicode="&#x200a;" horiz-adv-x="98" />
<glyph unicode="&#x2013;" d="M-33 406v143h1052v-143h-1052z" />
<glyph unicode="&#x2014;" horiz-adv-x="2048" d="M-31 406v143h2076v-143h-2076z" />
<glyph unicode="&#x2018;" horiz-adv-x="682" d="M232 938q0 70 21.5 135t68 120t120 98t177.5 70v-92q-51 -14 -86 -38t-56.5 -51t-30.5 -53t-9 -44q0 -20 10.5 -33.5t26 -24.5t34 -22.5t34 -27.5t26 -39.5t10.5 -59.5q0 -65 -45 -99t-114 -34q-38 0 -72 12.5t-59.5 37.5t-40.5 61t-15 84z" />
<glyph unicode="&#x2019;" horiz-adv-x="682" d="M222 743v92q51 14 86 38t56.5 51t30.5 53t9 44q0 20 -10.5 33.5t-26 24.5t-34 22.5t-34 27.5t-26 39.5t-10.5 59.5q0 65 45 99t114 34q38 0 72 -12.5t59.5 -37.5t40.5 -61t15 -84q0 -71 -21.5 -135.5t-68 -119.5t-120 -98t-177.5 -70z" />
<glyph unicode="&#x201a;" horiz-adv-x="682" d="M35 -225q51 14 86 38t56.5 51t30.5 53t9 44q0 20 -10.5 33.5t-26 24.5t-34 22.5t-34 27.5t-26 39.5t-10.5 59.5q0 65 45 99t114 34q38 0 72 -12.5t59.5 -37.5t40.5 -61t15 -84q0 -71 -21.5 -135.5t-68 -119.5t-120 -98t-177.5 -70v92z" />
<glyph unicode="&#x201c;" d="M194 938q0 70 21.5 135t68 120t120 98t177.5 70v-92q-51 -14 -86 -38t-56.5 -51t-30.5 -53t-9 -44q0 -20 10.5 -33.5t26 -24.5t34 -22.5t34 -27.5t26 -39.5t10.5 -59.5q0 -65 -45 -99t-114 -34q-38 0 -72 12.5t-59.5 37.5t-40.5 61t-15 84zM614 938q0 70 21.5 135t68 120 t120 98t177.5 70v-92q-51 -14 -86 -38t-56.5 -51t-30.5 -53t-9 -44q0 -20 10.5 -33.5t26 -24.5t34 -22.5t34 -27.5t26 -39.5t10.5 -59.5q0 -65 -45 -99t-114 -34q-38 0 -72 12.5t-59.5 37.5t-40.5 61t-15 84z" />
<glyph unicode="&#x201d;" d="M183 743v92q51 14 86 38t56.5 51t30.5 53t9 44q0 20 -10.5 33.5t-26 24.5t-34 22.5t-34 27.5t-26 39.5t-10.5 59.5q0 65 45 99t114 34q38 0 72 -12.5t59.5 -37.5t40.5 -61t15 -84q0 -71 -21.5 -135.5t-68 -119.5t-120 -98t-177.5 -70zM603 743v92q51 14 86 38t56.5 51 t30.5 53t9 44q0 20 -10.5 33.5t-26 24.5t-34 22.5t-34 27.5t-26 39.5t-10.5 59.5q0 65 45 99t114 34q38 0 72 -12.5t59.5 -37.5t40.5 -61t15 -84q0 -71 -21.5 -135.5t-68 -119.5t-120 -98t-177.5 -70z" />
<glyph unicode="&#x201e;" d="M4 -225q51 14 86 38t56.5 51t30.5 53t9 44q0 20 -10.5 33.5t-26 24.5t-34 22.5t-34 27.5t-26 39.5t-10.5 59.5q0 65 45 99t114 34q38 0 72 -12.5t59.5 -37.5t40.5 -61t15 -84q0 -71 -21.5 -135.5t-68 -119.5t-120 -98t-177.5 -70v92zM424 -225q51 14 86 38t56.5 51 t30.5 53t9 44q0 20 -10.5 33.5t-26 24.5t-34 22.5t-34 27.5t-26 39.5t-10.5 59.5q0 65 45 99t114 34q38 0 72 -12.5t59.5 -37.5t40.5 -61t15 -84q0 -71 -21.5 -135.5t-68 -119.5t-120 -98t-177.5 -70v92z" />
<glyph unicode="&#x2022;" horiz-adv-x="717" d="M96 678q0 57 21.5 107.5t59 88t88 59.5t108.5 22t108.5 -22t88 -59.5t59 -88t21.5 -107.5t-21.5 -107.5t-59 -88t-88 -59.5t-108.5 -22t-108.5 22t-88 59.5t-59 88t-21.5 107.5z" />
<glyph unicode="&#x2026;" horiz-adv-x="2048" d="M97 137q0 34 13 64.5t35.5 53t52.5 35.5t65 13q34 0 64.5 -13t53 -35.5t35.5 -53t13 -64.5q0 -35 -13 -65t-35.5 -52.5t-53 -35.5t-64.5 -13q-35 0 -65 13t-52.5 35.5t-35.5 52.5t-13 65zM787 137q0 34 13 64.5t35.5 53t52.5 35.5t65 13q34 0 64.5 -13t53 -35.5t35.5 -53 t13 -64.5q0 -35 -13 -65t-35.5 -52.5t-53 -35.5t-64.5 -13q-35 0 -65 13t-52.5 35.5t-35.5 52.5t-13 65zM1477 137q0 34 13 64.5t35.5 53t52.5 35.5t65 13q34 0 64.5 -13t53 -35.5t35.5 -53t13 -64.5q0 -35 -13 -65t-35.5 -52.5t-53 -35.5t-64.5 -13q-35 0 -65 13 t-52.5 35.5t-35.5 52.5t-13 65z" />
<glyph unicode="&#x202f;" horiz-adv-x="355" />
<glyph unicode="&#x2039;" horiz-adv-x="682" d="M112 429l12 66l383 356h100l-261 -389l124 -388h-100z" />
<glyph unicode="&#x203a;" horiz-adv-x="682" d="M29 74l260 389l-123 389h100l257 -356l-12 -66l-382 -356h-100z" />
<glyph unicode="&#x205f;" horiz-adv-x="444" />
<glyph unicode="&#x20ac;" d="M-11 493l18 101h110q2 14 5 33t5 34l7.5 37.5t8.5 39.5h-110l17 101h118q79 265 225 391t366 126q52 0 94 -2t79.5 -6.5t72.5 -10.5t74 -14l-46 -285h-89l-2 150q-35 31 -79.5 48t-97.5 17q-50 0 -97 -22t-89.5 -71.5t-79.5 -128t-65 -192.5h284l-17 -101h-287 q-5 -15 -8.5 -33t-7.5 -38q-3 -17 -6 -39t-4 -34h287l-18 -101h-284q-2 -25 -3 -48t-1 -45q0 -161 54 -239t144 -78q70 0 124 24t88 56l57 165h89l-56 -298q-69 -20 -155.5 -35t-189.5 -15q-106 0 -184.5 31t-130.5 90t-77.5 145t-25.5 196v25.5t1 25.5h-118z" />
<glyph unicode="&#x2122;" horiz-adv-x="2048" d="M146 1112v231h742v-231h-71l-16 149q-11 2 -24.5 4.5t-32.5 4.5t-44 3t-60 1h-30v-660l128 -16v-60h-445v60l128 16v661h-31q-39 0 -64.5 -1.5t-42.5 -3.5t-28 -4.5t-22 -4.5l-16 -149h-71zM945 538v60l103 16v653l-103 16v60h335l214 -495l218 495h322v-60l-103 -16 v-653l103 -16v-60h-400v60l108 16v586l-293 -662h-33l-278 645v-569l103 -16v-60h-296z" />
<glyph unicode="&#x25fc;" horiz-adv-x="940" d="M0 0v940h940v-940h-940z" />
<glyph unicode="&#xfb01;" horiz-adv-x="1139" d="M-15 -436l224 1272h-142l12 69l149 39l14 81q18 99 57.5 177t101.5 131t148 81t196 28q33 0 69.5 -3.5t69.5 -9t60.5 -11.5t42.5 -12l-41 -234h-64l-19 114q-14 16 -46.5 31t-76.5 15q-53 0 -90 -18t-62.5 -53t-42 -86t-28.5 -118l-21 -117h560l-150 -850l99 -24l-11 -66 h-373l148 836h-291l-224 -1272h-269z" />
<glyph unicode="&#xfb02;" horiz-adv-x="1139" d="M-15 -436l224 1272h-142l12 69l149 39l18 101q17 99 56 173.5t97 124t132.5 74.5t163.5 25q22 0 56 -2.5t69.5 -6t67 -7l49.5 -5.5h205l-235 -1331l99 -24l-11 -66h-372l225 1294q-36 21 -70 29.5t-79 8.5q-22 0 -47.5 -9t-49.5 -35t-45 -74.5t-35 -126.5l-26 -147h191 l-18 -104h-191l-224 -1272h-269z" />
</font>
</defs>
</svg>
